  0
SECTION
  2
HEADER
  9
$ACADVER
  1
AC1015
  9
$ACADMAINTVER
 70
     6
  9
$DWGCODEPAGE
  3
ANSI_1252
  9
$INSBASE
 10
0.0
 20
0.0
 30
0.0
  9
$EXTMIN
 10
0.0
 20
0.0
 30
0.0
  9
$EXTMAX
 10
1189.0
 20
841.0
 30
0.0
  9
$LIMMIN
 10
0.0
 20
0.0
  9
$LIMMAX
 10
1189.0
 20
841.0
  9
$ORTHOMODE
 70
     0
  9
$REGENMODE
 70
     1
  9
$FILLMODE
 70
     1
  9
$QTEXTMODE
 70
     0
  9
$MIRRTEXT
 70
     1
  9
$LTSCALE
 40
1.0
  9
$ATTMODE
 70
     1
  9
$TEXTSIZE
 40
3.5
  9
$TRACEWID
 40
1.0
  9
$TEXTSTYLE
  7
Standard
  9
$CLAYER
  8
0
  9
$CELTYPE
  6
ByLayer
  9
$CECOLOR
 62
   256
  9
$CELTSCALE
 40
1.0
  9
$DISPSILH
 70
     0
  9
$DIMSCALE
 40
1.0
  9
$DIMASZ
 40
3.302
  9
$DIMEXO
 40
1.0
  9
$DIMDLI
 40
3.75
  9
$DIMRND
 40
0.0
  9
$DIMDLE
 40
0.0
  9
$DIMEXE
 40
1.0
  9
$DIMTP
 40
0.0
  9
$DIMTM
 40
0.0
  9
$DIMTXT
 40
3.5
  9
$DIMCEN
 40
2.5
  9
$DIMTSZ
 40
0.0
  9
$DIMTOL
 70
     0
  9
$DIMLIM
 70
     0
  9
$DIMTIH
 70
     1
  9
$DIMTOH
 70
     1
  9
$DIMSE1
 70
     0
  9
$DIMSE2
 70
     0
  9
$DIMTAD
 70
     1
  9
$DIMZIN
 70
     1
  9
$DIMBLK
  1

  9
$DIMASO
 70
     1
  9
$DIMSHO
 70
     1
  9
$DIMPOST
  1

  9
$DIMAPOST
  1

  9
$DIMALT
 70
     0
  9
$DIMALTD
 70
     3
  9
$DIMALTF
 40
0.0393700787
  9
$DIMLFAC
 40
1.0
  9
$DIMTOFL
 70
     1
  9
$DIMTVP
 40
0.0
  9
$DIMTIX
 70
     0
  9
$DIMSOXD
 70
     0
  9
$DIMSAH
 70
     0
  9
$DIMBLK1
  1

  9
$DIMBLK2
  1

  9
$DIMSTYLE
  2
ISO-25
  9
$DIMCLRD
 70
     0
  9
$DIMCLRE
 70
     0
  9
$DIMCLRT
 70
     0
  9
$DIMTFAC
 40
1.0
  9
$DIMGAP
 40
1.524
  9
$DIMJUST
 70
     0
  9
$DIMSD1
 70
     0
  9
$DIMSD2
 70
     0
  9
$DIMTOLJ
 70
     0
  9
$DIMTZIN
 70
     1
  9
$DIMALTZ
 70
     0
  9
$DIMALTTZ
 70
     0
  9
$DIMUPT
 70
     0
  9
$DIMDEC
 70
     2
  9
$DIMTDEC
 70
     2
  9
$DIMALTU
 70
     2
  9
$DIMALTTD
 70
     3
  9
$DIMTXSTY
  7
Standard
  9
$DIMAUNIT
 70
     0
  9
$DIMADEC
 70
     2
  9
$DIMALTRND
 40
0.0
  9
$DIMAZIN
 70
     0
  9
$DIMDSEP
 70
    44
  9
$DIMATFIT
 70
     3
  9
$DIMFRAC
 70
     0
  9
$DIMLDRBLK
  1

  9
$DIMLUNIT
 70
     2
  9
$DIMLWD
 70
    -2
  9
$DIMLWE
 70
    -2
  9
$DIMTMOVE
 70
     0
  9
$LUNITS
 70
     2
  9
$LUPREC
 70
     2
  9
$SKETCHINC
 40
1.0
  9
$FILLETRAD
 40
10.0
  9
$AUNITS
 70
     0
  9
$AUPREC
 70
     2
  9
$MENU
  1
.
  9
$ELEVATION
 40
0.0
  9
$PELEVATION
 40
0.0
  9
$THICKNESS
 40
0.0
  9
$LIMCHECK
 70
     0
  9
$CHAMFERA
 40
0.0
  9
$CHAMFERB
 40
0.0
  9
$CHAMFERC
 40
0.0
  9
$CHAMFERD
 40
0.0
  9
$SKPOLY
 70
     0
  9
$TDCREATE
 40
2459621.737260868
  9
$TDUCREATE
 40
2459621.695594201
  9
$TDUPDATE
 40
2459621.737262118
  9
$TDUUPDATE
 40
2459621.695595451
  9
$TDINDWG
 40
0.0000000116
  9
$TDUSRTIMER
 40
0.0000000116
  9
$USRTIMER
 70
     1
  9
$ANGBASE
 50
0.0
  9
$ANGDIR
 70
     0
  9
$PDMODE
 70
     0
  9
$PDSIZE
 40
-1.0
  9
$PLINEWID
 40
0.0
  9
$SPLFRAME
 70
     0
  9
$SPLINETYPE
 70
     6
  9
$SPLINESEGS
 70
     8
  9
$HANDSEED
  5
326
  9
$SURFTAB1
 70
     6
  9
$SURFTAB2
 70
     6
  9
$SURFTYPE
 70
     6
  9
$SURFU
 70
     6
  9
$SURFV
 70
     6
  9
$UCSBASE
  2

  9
$UCSNAME
  2

  9
$UCSORG
 10
0.0
 20
0.0
 30
0.0
  9
$UCSXDIR
 10
1.0
 20
0.0
 30
0.0
  9
$UCSYDIR
 10
0.0
 20
1.0
 30
0.0
  9
$UCSORTHOREF
  2

  9
$UCSORTHOVIEW
 70
     0
  9
$UCSORGTOP
 10
0.0
 20
0.0
 30
0.0
  9
$UCSORGBOTTOM
 10
0.0
 20
0.0
 30
0.0
  9
$UCSORGLEFT
 10
0.0
 20
0.0
 30
0.0
  9
$UCSORGRIGHT
 10
0.0
 20
0.0
 30
0.0
  9
$UCSORGFRONT
 10
0.0
 20
0.0
 30
0.0
  9
$UCSORGBACK
 10
0.0
 20
0.0
 30
0.0
  9
$PUCSBASE
  2

  9
$PUCSNAME
  2

  9
$PUCSORG
 10
0.0
 20
0.0
 30
0.0
  9
$PUCSXDIR
 10
1.0
 20
0.0
 30
0.0
  9
$PUCSYDIR
 10
0.0
 20
1.0
 30
0.0
  9
$PUCSORTHOREF
  2

  9
$PUCSORTHOVIEW
 70
     0
  9
$PUCSORGTOP
 10
0.0
 20
0.0
 30
0.0
  9
$PUCSORGBOTTOM
 10
0.0
 20
0.0
 30
0.0
  9
$PUCSORGLEFT
 10
0.0
 20
0.0
 30
0.0
  9
$PUCSORGRIGHT
 10
0.0
 20
0.0
 30
0.0
  9
$PUCSORGFRONT
 10
0.0
 20
0.0
 30
0.0
  9
$PUCSORGBACK
 10
0.0
 20
0.0
 30
0.0
  9
$USERI1
 70
     0
  9
$USERI2
 70
     0
  9
$USERI3
 70
     0
  9
$USERI4
 70
     0
  9
$USERI5
 70
     0
  9
$USERR1
 40
0.0
  9
$USERR2
 40
0.0
  9
$USERR3
 40
0.0
  9
$USERR4
 40
0.0
  9
$USERR5
 40
0.0
  9
$WORLDVIEW
 70
     1
  9
$SHADEDGE
 70
     3
  9
$SHADEDIF
 70
    70
  9
$TILEMODE
 70
     1
  9
$MAXACTVP
 70
    64
  9
$PINSBASE
 10
0.0
 20
0.0
 30
0.0
  9
$PLIMCHECK
 70
     0
  9
$PEXTMIN
 10
1.0000000000E+20
 20
1.0000000000E+20
 30
1.0000000000E+20
  9
$PEXTMAX
 10
-1.0000000000E+20
 20
-1.0000000000E+20
 30
-1.0000000000E+20
  9
$PLIMMIN
 10
0.0
 20
0.0
  9
$PLIMMAX
 10
420.0
 20
297.0
  9
$UNITMODE
 70
     0
  9
$VISRETAIN
 70
     1
  9
$PLINEGEN
 70
     0
  9
$PSLTSCALE
 70
     1
  9
$TREEDEPTH
 70
  3020
  9
$CMLSTYLE
  2
Standard
  9
$CMLJUST
 70
     0
  9
$CMLSCALE
 40
20.0
  9
$PROXYGRAPHICS
 70
     1
  9
$MEASUREMENT
 70
     1
  9
$CELWEIGHT
370
    -1
  9
$ENDCAPS
280
     0
  9
$JOINSTYLE
280
     0
  9
$LWDISPLAY
290
     1
  9
$INSUNITS
 70
     4
  9
$HYPERLINKBASE
  1

  9
$STYLESHEET
  1

  9
$XEDIT
290
     1
  9
$CEPSNTYPE
380
     0
  9
$PSTYLEMODE
290
     1
  9
$FINGERPRINTGUID
  2
{5187d4fe-1b45-445d-a9f5-a0654b536a7f}
  9
$VERSIONGUID
  2
{FAEB1C32-E019-11D5-929B-00C0DF256EC4}
  9
$EXTNAMES
290
     1
  9
$PSVPSCALE
 40
0.0
  9
$OLESTARTUP
290
     0
  0
ENDSEC
  0
SECTION
  2
CLASSES
  0
CLASS
  1
ACDBDICTIONARYWDFLT
  2
AcDbDictionaryWithDefault
  3
ObjectDBX Classes
 90
        0
280
     0
281
     0
  0
CLASS
  1
VISUALSTYLE
  2
AcDbVisualStyle
  3
ObjectDBX Classes
 90
     4095
280
     0
281
     0
  0
CLASS
  1
MATERIAL
  2
AcDbMaterial
  3
ObjectDBX Classes
 90
     1153
280
     0
281
     0
  0
CLASS
  1
SCALE
  2
AcDbScale
  3
ObjectDBX Classes
 90
     1153
280
     0
281
     0
  0
CLASS
  1
TABLESTYLE
  2
AcDbTableStyle
  3
ObjectDBX Classes
 90
     4095
280
     0
281
     0
  0
CLASS
  1
MLEADERSTYLE
  2
AcDbMLeaderStyle
  3
ACDB_MLEADERSTYLE_CLASS
 90
     4095
280
     0
281
     0
  0
CLASS
  1
SUN
  2
AcDbSun
  3
SCENEOE
 90
     1153
280
     0
281
     0
  0
CLASS
  1
ACDBPLACEHOLDER
  2
AcDbPlaceHolder
  3
ObjectDBX Classes
 90
        0
280
     0
281
     0
  0
CLASS
  1
LAYOUT
  2
AcDbLayout
  3
ObjectDBX Classes
 90
        0
280
     0
281
     0
  0
ENDSEC
  0
SECTION
  2
TABLES
  0
TABLE
  2
VPORT
  5
8
330
0
100
AcDbSymbolTable
 70
     1
  0
VPORT
  5
29
330
8
100
AcDbSymbolTableRecord
100
AcDbViewportTableRecord
  2
*Active
 70
     0
 10
0.0
 20
0.0
 11
1.0
 21
1.0
 12
594.5
 22
420.5
 13
0.0
 23
0.0
 14
10.0
 24
10.0
 15
10.0
 25
10.0
 16
0.0
 26
0.0
 36
1.0
 17
0.0
 27
0.0
 37
0.0
 40
841.0
 41
1.4137931034
 42
50.0
 43
0.0
 44
0.0
 50
0.0
 51
0.0
 71
     0
 72
  2000
 73
     1
 74
     3
 75
     0
 76
     0
 77
     0
 78
     0
281
     0
 65
     1
110
0.0
120
0.0
130
0.0
111
1.0
121
0.0
131
0.0
112
0.0
122
1.0
132
0.0
 79
     0
146
0.0
  0
ENDTAB
  0
TABLE
  2
LTYPE
  5
5
330
0
100
AcDbSymbolTable
 70
     6
  0
LTYPE
  5
14
330
5
100
AcDbSymbolTableRecord
100
AcDbLinetypeTableRecord
  2
ByBlock
 70
     0
  3

 72
    65
 73
     0
 40
0.0
  0
LTYPE
  5
15
330
5
100
AcDbSymbolTableRecord
100
AcDbLinetypeTableRecord
  2
ByLayer
 70
     0
  3

 72
    65
 73
     0
 40
0.0
  0
LTYPE
  5
16
330
5
100
AcDbSymbolTableRecord
100
AcDbLinetypeTableRecord
  2
Continuous
 70
     0
  3
Solid line
 72
    65
 73
     0
 40
0.0
  0
LTYPE
  5
6E
330
5
100
AcDbSymbolTableRecord
100
AcDbLinetypeTableRecord
  2
HIDDEN
 70
     0
  3
Hidden __ __ __ __ __ __ __ __ __ __ __ __ __ __
 72
    65
 73
     2
 40
1.905
 49
1.27
 74
     0
 49
-0.635
 74
     0
  0
LTYPE
  5
6F
330
5
100
AcDbSymbolTableRecord
100
AcDbLinetypeTableRecord
  2
PHANTOM
 70
     0
  3
Phantom ______  __  __  ______  __  __  ______
 72
    65
 73
     6
 40
12.7
 49
6.35
 74
     0
 49
-1.27
 74
     0
 49
1.27
 74
     0
 49
-1.27
 74
     0
 49
1.27
 74
     0
 49
-1.27
 74
     0
  0
LTYPE
  5
70
330
5
100
AcDbSymbolTableRecord
100
AcDbLinetypeTableRecord
  2
CENTER
 70
     0
  3
Center ____ _ ____ _ ____ _ ____ _ ____ _ ____
 72
    65
 73
     4
 40
10.16
 49
6.35
 74
     0
 49
-1.27
 74
     0
 49
1.27
 74
     0
 49
-1.27
 74
     0
  0
LTYPE
  5
71
330
5
100
AcDbSymbolTableRecord
100
AcDbLinetypeTableRecord
  2
CENTERX2
 70
     0
  3
Center (2x) ________  __  ________  __  _____
 72
    65
 73
     4
 40
20.32
 49
12.7
 74
     0
 49
-2.54
 74
     0
 49
2.54
 74
     0
 49
-2.54
 74
     0
  0
LTYPE
  5
72
330
5
100
AcDbSymbolTableRecord
100
AcDbLinetypeTableRecord
  2
DOT2
 70
     0
  3
Dot (.5x) ........................................
 72
    65
 73
     2
 40
0.635
 49
0.0
 74
     0
 49
-0.635
 74
     0
  0
ENDTAB
  0
TABLE
  2
LAYER
  5
2
330
0
100
AcDbSymbolTable
 70
     1
  0
LAYER
  5
10
330
2
100
AcDbSymbolTableRecord
100
AcDbLayerTableRecord
  2
0
 70
     0
 62
     7
  6
Continuous
370
    -3
390
F
  0
ENDTAB
  0
TABLE
  2
STYLE
  5
3
330
0
100
AcDbSymbolTable
 70
     1
  0
STYLE
  5
11
330
3
100
AcDbSymbolTableRecord
100
AcDbTextStyleTableRecord
  2
Standard
 70
     0
 40
0.0
 41
1.0
 50
0.0
 71
     0
 42
3.5
  3
txt
  4

  0
ENDTAB
  0
TABLE
  2
VIEW
  5
6
330
0
100
AcDbSymbolTable
 70
     0
  0
ENDTAB
  0
TABLE
  2
UCS
  5
7
330
0
100
AcDbSymbolTable
 70
     0
  0
ENDTAB
  0
TABLE
  2
APPID
  5
9
330
0
100
AcDbSymbolTable
 70
     1
  0
APPID
  5
12
330
9
100
AcDbSymbolTableRecord
100
AcDbRegAppTableRecord
  2
ACAD
 70
     0
  0
ENDTAB
  0
TABLE
  2
DIMSTYLE
  5
A
330
0
100
AcDbSymbolTable
 70
     1
100
AcDbDimStyleTable
  0
DIMSTYLE
105
27
330
A
100
AcDbSymbolTableRecord
100
AcDbDimStyleTableRecord
  2
ISO-25
 70
     0
 41
2.5
 42
0.625
 43
3.75
 44
1.25
 73
     0
 74
     0
 77
     1
 78
     8
140
2.5
141
2.5
143
0.0393700787
147
0.625
171
     3
172
     1
178
     0
271
     2
272
     2
274
     3
278
    44
283
     0
284
     8
340
11
  0
ENDTAB
  0
TABLE
  2
BLOCK_RECORD
  5
1
330
0
100
AcDbSymbolTable
 70
     1
  0
BLOCK_RECORD
  5
1F
330
1
100
AcDbSymbolTableRecord
100
AcDbBlockTableRecord
  2
*Model_Space
340
22
  0
BLOCK_RECORD
  5
1B
330
1
100
AcDbSymbolTableRecord
100
AcDbBlockTableRecord
  2
*Paper_Space
340
1E
  0
BLOCK_RECORD
  5
23
330
1
100
AcDbSymbolTableRecord
100
AcDbBlockTableRecord
  2
*Paper_Space0
340
26
  0
ENDTAB
  0
ENDSEC
  0
SECTION
  2
BLOCKS
  0
BLOCK
  5
20
330
1F
100
AcDbEntity
  8
0
100
AcDbBlockBegin
  2
*Model_Space
 70
     0
 10
0.0
 20
0.0
 30
0.0
  3
*Model_Space
  1

  0
ENDBLK
  5
21
330
1F
100
AcDbEntity
  8
0
100
AcDbBlockEnd
  0
BLOCK
  5
1C
330
1B
100
AcDbEntity
 67
     1
  8
0
100
AcDbBlockBegin
  2
*Paper_Space
 70
     0
 10
0.0
 20
0.0
 30
0.0
  3
*Paper_Space
  1

  0
ENDBLK
  5
1D
330
1B
100
AcDbEntity
 67
     1
  8
0
100
AcDbBlockEnd
  0
BLOCK
  5
24
330
23
100
AcDbEntity
  8
0
100
AcDbBlockBegin
  2
*Paper_Space0
 70
     0
 10
0.0
 20
0.0
 30
0.0
  3
*Paper_Space0
  1

  0
ENDBLK
  5
25
330
23
100
AcDbEntity
  8
0
100
AcDbBlockEnd
  0
ENDSEC
  0
SECTION
  2
ENTITIES
  0
LINE
  5
73
330
1F
100
AcDbEntity
  8
0
  6
Continuous
 62
     7
370
    25
100
AcDbLine
 10
125.4480182813
 20
799.4776070994
 30
0.0
 11
85.4480182813
 21
799.4776070994
 31
0.0
  0
ARC
  5
74
330
1F
100
AcDbEntity
  8
0
  6
Continuous
 62
     7
370
    25
100
AcDbCircle
 10
85.4480182813
 20
779.4776070994
 30
0.0
 40
20.00000000000001
100
AcDbArc
 50
90.0
 51
180.0
  0
LINE
  5
75
330
1F
100
AcDbEntity
  8
0
  6
Continuous
 62
     7
370
    25
100
AcDbLine
 10
65.4480182813
 20
779.4776070994
 30
0.0
 11
65.4480182813
 21
769.4776070994
 31
0.0
  0
ARC
  5
76
330
1F
100
AcDbEntity
  8
0
  6
Continuous
 62
     7
370
    25
100
AcDbCircle
 10
85.4480182813
 20
769.4776070994
 30
0.0
 40
20.00000000000001
100
AcDbArc
 50
180.0
 51
270.0
  0
LINE
  5
77
330
1F
100
AcDbEntity
  8
0
  6
Continuous
 62
     7
370
    25
100
AcDbLine
 10
85.4480182813
 20
749.4776070994
 30
0.0
 11
125.4480182813
 21
749.4776070994
 31
0.0
  0
ARC
  5
78
330
1F
100
AcDbEntity
  8
0
  6
Continuous
 62
     7
370
    25
100
AcDbCircle
 10
125.4480182813
 20
769.4776070994
 30
0.0
 40
19.99999999999999
100
AcDbArc
 50
270.0
 51
0.0
  0
LINE
  5
79
330
1F
100
AcDbEntity
  8
0
  6
Continuous
 62
     7
370
    25
100
AcDbLine
 10
145.4480182813
 20
769.4776070994
 30
0.0
 11
145.4480182813
 21
779.4776070994
 31
0.0
  0
ARC
  5
7A
330
1F
100
AcDbEntity
  8
0
  6
Continuous
 62
     7
370
    25
100
AcDbCircle
 10
125.4480182813
 20
779.4776070994
 30
0.0
 40
20.0
100
AcDbArc
 50
0.0
 51
90.0
  0
CIRCLE
  5
7B
330
1F
100
AcDbEntity
  8
0
  6
Continuous
 62
     7
370
    25
100
AcDbCircle
 10
204.6475864682
 20
686.8990282063
 30
0.0
 40
1.523418559095205
  0
CIRCLE
  5
7C
330
1F
100
AcDbEntity
  8
0
  6
Continuous
 62
     7
370
    25
100
AcDbCircle
 10
171.7528937019
 20
738.5245282063
 30
0.0
 40
1.523418559095177
  0
CIRCLE
  5
7D
330
1F
100
AcDbEntity
  8
0
  6
Continuous
 62
     7
370
    25
100
AcDbCircle
 10
199.7690937019
 20
738.5245282063
 30
0.0
 40
1.523418559095177
  0
CIRCLE
  5
7E
330
1F
100
AcDbEntity
  8
0
  6
Continuous
 62
     7
370
    25
100
AcDbCircle
 10
156.3113864682
 20
762.0322282063
 30
0.0
 40
1.523418559095205
  0
CIRCLE
  5
7F
330
1F
100
AcDbEntity
  8
0
  6
Continuous
 62
     7
370
    25
100
AcDbCircle
 10
156.3113864682
 20
686.8990282063
 30
0.0
 40
1.523418559095234
  0
CIRCLE
  5
80
330
1F
100
AcDbEntity
  8
0
  6
Continuous
 62
     7
370
    25
100
AcDbCircle
 10
204.6475864682
 20
769.5252282063
 30
0.0
 40
1.523418559095177
  0
CIRCLE
  5
81
330
1F
100
AcDbEntity
  8
0
  6
Continuous
 62
     7
370
    25
100
AcDbCircle
 10
131.1875864682
 20
700.42662769
 30
0.0
 40
1.600000000000023
  0
CIRCLE
  5
82
330
1F
100
AcDbEntity
  8
0
  6
Continuous
 62
     7
370
    25
100
AcDbCircle
 10
237.1875864682
 20
795.4266281983
 30
0.0
 40
1.599999999999994
  0
CIRCLE
  5
83
330
1F
100
AcDbEntity
  8
0
  6
Continuous
 62
     7
370
    25
100
AcDbCircle
 10
25.1875864682
 20
795.4266281983
 30
0.0
 40
1.600000000000005
  0
CIRCLE
  5
84
330
1F
100
AcDbEntity
  8
0
  6
Continuous
 62
     7
370
    25
100
AcDbCircle
 10
22.6875864708
 20
687.9266281772
 30
0.0
 40
1.75
  0
CIRCLE
  5
85
330
1F
100
AcDbEntity
  8
0
  6
Continuous
 62
     7
370
    25
100
AcDbCircle
 10
38.9375864708
 20
718.1266281772
 30
0.0
 40
1.75
  0
LINE
  5
86
330
1F
100
AcDbEntity
  8
0
  6
Continuous
 62
     7
370
    25
100
AcDbLine
 10
177.1875864682
 20
801.4266281983
 30
0.0
 11
207.1875864682
 21
801.4266281983
 31
0.0
  0
ARC
  5
87
330
1F
100
AcDbEntity
  8
0
  6
Continuous
 62
     7
370
    25
100
AcDbCircle
 10
207.1875864682
 20
803.4266281983
 30
0.0
 40
2.0
100
AcDbArc
 50
270.0
 51
90.0
  0
LINE
  5
88
330
1F
100
AcDbEntity
  8
0
  6
Continuous
 62
     7
370
    25
100
AcDbLine
 10
207.1875864682
 20
805.4266281983
 30
0.0
 11
177.1875864682
 21
805.4266281983
 31
0.0
  0
ARC
  5
89
330
1F
100
AcDbEntity
  8
0
  6
Continuous
 62
     7
370
    25
100
AcDbCircle
 10
177.1875864682
 20
803.4266281983
 30
0.0
 40
2.0
100
AcDbArc
 50
90.0
 51
270.0
  0
LINE
  5
8A
330
1F
100
AcDbEntity
  8
0
  6
Continuous
 62
     7
370
    25
100
AcDbLine
 10
78.6875864682
 20
721.4266281983
 30
0.0
 11
78.6875864682
 21
691.4266281983
 31
0.0
  0
ARC
  5
8B
330
1F
100
AcDbEntity
  8
0
  6
Continuous
 62
     7
370
    25
100
AcDbCircle
 10
80.6875864682
 20
691.4266281983
 30
0.0
 40
2.0
100
AcDbArc
 50
180.0
 51
0.0
  0
LINE
  5
8C
330
1F
100
AcDbEntity
  8
0
  6
Continuous
 62
     7
370
    25
100
AcDbLine
 10
82.6875864682
 20
691.4266281983
 30
0.0
 11
82.6875864682
 21
721.4266281983
 31
0.0
  0
ARC
  5
8D
330
1F
100
AcDbEntity
  8
0
  6
Continuous
 62
     7
370
    25
100
AcDbCircle
 10
80.6875864682
 20
721.4266281983
 30
0.0
 40
2.0
100
AcDbArc
 50
0.0
 51
180.0
  0
LINE
  5
8E
330
1F
100
AcDbEntity
  8
0
  6
Continuous
 62
     7
370
    25
100
AcDbLine
 10
227.1875864682
 20
824.4266281983
 30
0.0
 11
227.1875864682
 21
803.4266281983
 31
0.0
  0
LINE
  5
8F
330
1F
100
AcDbEntity
  8
0
  6
Continuous
 62
     7
370
    25
100
AcDbLine
 10
227.1875864682
 20
803.4266281983
 30
0.0
 11
247.1875864682
 21
803.4266281983
 31
0.0
  0
LINE
  5
90
330
1F
100
AcDbEntity
  8
0
  6
Continuous
 62
     7
370
    25
100
AcDbLine
 10
247.1875864682
 20
671.4266281983
 30
0.0
 11
247.1875864682
 21
803.4266281983
 31
0.0
  0
LINE
  5
91
330
1F
100
AcDbEntity
  8
0
  6
Continuous
 62
     7
370
    25
100
AcDbLine
 10
247.1875864682
 20
671.4266281983
 30
0.0
 11
141.6875864682
 21
671.4266281983
 31
0.0
  0
LINE
  5
92
330
1F
100
AcDbEntity
  8
0
  6
Continuous
 62
     7
370
    25
100
AcDbLine
 10
141.6875864682
 20
671.4266281983
 30
0.0
 11
141.6875864682
 21
692.4266281983
 31
0.0
  0
LINE
  5
93
330
1F
100
AcDbEntity
  8
0
  6
Continuous
 62
     7
370
    25
100
AcDbLine
 10
141.6875864682
 20
692.4266281983
 30
0.0
 11
120.6875864682
 21
692.4266281983
 31
0.0
  0
LINE
  5
94
330
1F
100
AcDbEntity
  8
0
  6
Continuous
 62
     7
370
    25
100
AcDbLine
 10
120.6875864682
 20
692.4266281983
 30
0.0
 11
120.6875864682
 21
671.4266281983
 31
0.0
  0
LINE
  5
95
330
1F
100
AcDbEntity
  8
0
  6
Continuous
 62
     7
370
    25
100
AcDbLine
 10
35.1875864682
 20
803.4266281983
 30
0.0
 11
15.1875864682
 21
803.4266281983
 31
0.0
  0
LINE
  5
96
330
1F
100
AcDbEntity
  8
0
  6
Continuous
 62
     7
370
    25
100
AcDbLine
 10
35.1875864682
 20
824.4266281983
 30
0.0
 11
35.1875864682
 21
803.4266281983
 31
0.0
  0
LINE
  5
97
330
1F
100
AcDbEntity
  8
0
  6
Continuous
 62
     7
370
    25
100
AcDbLine
 10
35.1875864682
 20
824.4266281983
 30
0.0
 11
227.1875864682
 21
824.4266281983
 31
0.0
  0
LINE
  5
98
330
1F
100
AcDbEntity
  8
0
  6
Continuous
 62
     7
370
    25
100
AcDbLine
 10
15.1875864682
 20
803.4266281983
 30
0.0
 11
15.1875864682
 21
671.4266281983
 31
0.0
  0
LINE
  5
99
330
1F
100
AcDbEntity
  8
0
  6
Continuous
 62
     7
370
    25
100
AcDbLine
 10
120.6875864682
 20
671.4266281983
 30
0.0
 11
15.1875864682
 21
671.4266281983
 31
0.0
  0
LINE
  5
9A
330
1F
100
AcDbEntity
  8
0
  6
Continuous
 62
     7
370
    25
100
AcDbLine
 10
389.9971772399
 20
617.3226725424
 30
0.0
 11
407.9971772399
 21
617.3226725424
 31
0.0
  0
LINE
  5
9B
330
1F
100
AcDbEntity
  8
0
  6
Continuous
 62
     7
370
    25
100
AcDbLine
 10
389.9971772399
 20
596.3226725424
 30
0.0
 11
389.9971772399
 21
617.3226725424
 31
0.0
  0
LINE
  5
9C
330
1F
100
AcDbEntity
  8
0
  6
Continuous
 62
     7
370
    25
100
AcDbLine
 10
322.9971772399
 20
671.3226725424
 30
0.0
 11
257.9971772399
 21
671.3226725424
 31
0.0
  0
LINE
  5
9D
330
1F
100
AcDbEntity
  8
0
  6
Continuous
 62
     7
370
    25
100
AcDbLine
 10
257.9971772399
 20
671.3226725424
 30
0.0
 11
257.9971772399
 21
701.8226725424
 31
0.0
  0
LINE
  5
9E
330
1F
100
AcDbEntity
  8
0
  6
Continuous
 62
     7
370
    25
100
AcDbLine
 10
278.9971772399
 20
701.8226725424
 30
0.0
 11
257.9971772399
 21
701.8226725424
 31
0.0
  0
LINE
  5
9F
330
1F
100
AcDbEntity
  8
0
  6
Continuous
 62
     7
370
    25
100
AcDbLine
 10
278.9971772399
 20
722.8226725424
 30
0.0
 11
278.9971772399
 21
701.8226725424
 31
0.0
  0
LINE
  5
A0
330
1F
100
AcDbEntity
  8
0
  6
Continuous
 62
     7
370
    25
100
AcDbLine
 10
257.9971772399
 20
722.8226725424
 30
0.0
 11
278.9971772399
 21
722.8226725424
 31
0.0
  0
LINE
  5
A1
330
1F
100
AcDbEntity
  8
0
  6
Continuous
 62
     7
370
    25
100
AcDbLine
 10
257.9971772399
 20
722.8226725424
 30
0.0
 11
257.9971772399
 21
828.3226725424
 31
0.0
  0
LINE
  5
A2
330
1F
100
AcDbEntity
  8
0
  6
Continuous
 62
     7
370
    25
100
AcDbLine
 10
257.9971772399
 20
828.3226725424
 30
0.0
 11
389.9971772399
 21
828.3226725424
 31
0.0
  0
LINE
  5
A3
330
1F
100
AcDbEntity
  8
0
  6
Continuous
 62
     7
370
    25
100
AcDbLine
 10
389.9971772399
 20
807.3226725424
 30
0.0
 11
389.9971772399
 21
828.3226725424
 31
0.0
  0
LINE
  5
A4
330
1F
100
AcDbEntity
  8
0
  6
Continuous
 62
     7
370
    25
100
AcDbLine
 10
407.9971772399
 20
807.3226725424
 30
0.0
 11
389.9971772399
 21
807.3226725424
 31
0.0
  0
LINE
  5
A5
330
1F
100
AcDbEntity
  8
0
  6
Continuous
 62
     7
370
    25
100
AcDbLine
 10
407.9971772399
 20
737.3226725424
 30
0.0
 11
407.9971772399
 21
807.3226725424
 31
0.0
  0
LINE
  5
A6
330
1F
100
AcDbEntity
  8
0
  6
Continuous
 62
     7
370
    25
100
AcDbLine
 10
419.9971772399
 20
737.3226725424
 30
0.0
 11
407.9971772399
 21
737.3226725424
 31
0.0
  0
LINE
  5
A7
330
1F
100
AcDbEntity
  8
0
  6
Continuous
 62
     7
370
    25
100
AcDbLine
 10
419.9971772399
 20
737.3226725424
 30
0.0
 11
419.9971772399
 21
687.3226725424
 31
0.0
  0
LINE
  5
A8
330
1F
100
AcDbEntity
  8
0
  6
Continuous
 62
     7
370
    25
100
AcDbLine
 10
407.9971772399
 20
687.3226725424
 30
0.0
 11
419.9971772399
 21
687.3226725424
 31
0.0
  0
LINE
  5
A9
330
1F
100
AcDbEntity
  8
0
  6
Continuous
 62
     7
370
    25
100
AcDbLine
 10
407.9971772399
 20
617.3226725424
 30
0.0
 11
407.9971772399
 21
687.3226725424
 31
0.0
  0
CIRCLE
  5
AA
330
1F
100
AcDbEntity
  8
0
  6
Continuous
 62
     7
370
    25
100
AcDbCircle
 10
336.2971772398
 20
671.0726725423
 30
0.0
 40
2.000000000126875
  0
CIRCLE
  5
AB
330
1F
100
AcDbEntity
  8
0
  6
Continuous
 62
     7
370
    25
100
AcDbCircle
 10
376.2971772398
 20
671.0726725422
 30
0.0
 40
2.000000000126875
  0
CIRCLE
  5
AC
330
1F
100
AcDbEntity
  8
0
  6
Continuous
 62
     7
370
    25
100
AcDbCircle
 10
336.2971772399
 20
793.5726725424
 30
0.0
 40
2.0
  0
CIRCLE
  5
AD
330
1F
100
AcDbEntity
  8
0
  6
Continuous
 62
     7
370
    25
100
AcDbCircle
 10
336.2971772399
 20
753.5726725424
 30
0.0
 40
2.0
  0
CIRCLE
  5
AE
330
1F
100
AcDbEntity
  8
0
  6
Continuous
 62
     7
370
    25
100
AcDbCircle
 10
376.2971772399
 20
793.5726725424
 30
0.0
 40
2.0
  0
CIRCLE
  5
AF
330
1F
100
AcDbEntity
  8
0
  6
Continuous
 62
     7
370
    25
100
AcDbCircle
 10
376.2971772399
 20
753.5726725424
 30
0.0
 40
2.0
  0
CIRCLE
  5
B0
330
1F
100
AcDbEntity
  8
0
  6
Continuous
 62
     7
370
    25
100
AcDbCircle
 10
381.9971772393
 20
818.3226725414
 30
0.0
 40
1.600000000003774
  0
CIRCLE
  5
B1
330
1F
100
AcDbEntity
  8
0
  6
Continuous
 62
     7
370
    25
100
AcDbCircle
 10
381.9971772376
 20
606.3226725434
 30
0.0
 40
1.600000001006038
  0
CIRCLE
  5
B2
330
1F
100
AcDbEntity
  8
0
  6
Continuous
 62
     7
370
    25
100
AcDbCircle
 10
336.2971772398
 20
631.0726725423
 30
0.0
 40
2.000000000126875
  0
CIRCLE
  5
B3
330
1F
100
AcDbEntity
  8
0
  6
Continuous
 62
     7
370
    25
100
AcDbCircle
 10
376.2971772398
 20
631.0726725422
 30
0.0
 40
2.000000000126875
  0
CIRCLE
  5
B4
330
1F
100
AcDbEntity
  8
0
  6
Continuous
 62
     7
370
    25
100
AcDbCircle
 10
286.9971512642
 20
712.3226725425
 30
0.0
 40
1.599999999131796
  0
ARC
  5
B5
330
1F
100
AcDbEntity
  8
0
  6
Continuous
 62
     7
370
    25
100
AcDbCircle
 10
297.9971772399
 20
748.3226725424
 30
0.0
 40
10.00000000000011
100
AcDbArc
 50
270.0
 51
0.0
  0
LINE
  5
B6
330
1F
100
AcDbEntity
  8
0
  6
Continuous
 62
     7
370
    25
100
AcDbLine
 10
307.9971772399
 20
748.3226725424
 30
0.0
 11
307.9971772399
 21
798.3226725424
 31
0.0
  0
ARC
  5
B7
330
1F
100
AcDbEntity
  8
0
  6
Continuous
 62
     7
370
    25
100
AcDbCircle
 10
297.9971772399
 20
798.3226725424
 30
0.0
 40
10.0
100
AcDbArc
 50
0.0
 51
90.0
  0
LINE
  5
B8
330
1F
100
AcDbEntity
  8
0
  6
Continuous
 62
     7
370
    25
100
AcDbLine
 10
297.9971772399
 20
808.3226725424
 30
0.0
 11
287.9971772399
 21
808.3226725424
 31
0.0
  0
ARC
  5
B9
330
1F
100
AcDbEntity
  8
0
  6
Continuous
 62
     7
370
    25
100
AcDbCircle
 10
287.9971772399
 20
798.3226725424
 30
0.0
 40
10.0
100
AcDbArc
 50
90.0
 51
180.0
  0
LINE
  5
BA
330
1F
100
AcDbEntity
  8
0
  6
Continuous
 62
     7
370
    25
100
AcDbLine
 10
277.9971772399
 20
798.3226725424
 30
0.0
 11
277.9971772399
 21
748.3226725424
 31
0.0
  0
ARC
  5
BB
330
1F
100
AcDbEntity
  8
0
  6
Continuous
 62
     7
370
    25
100
AcDbCircle
 10
287.9971772399
 20
748.3226725424
 30
0.0
 40
10.00000000000011
100
AcDbArc
 50
180.0
 51
270.0
  0
LINE
  5
BC
330
1F
100
AcDbEntity
  8
0
  6
Continuous
 62
     7
370
    25
100
AcDbLine
 10
287.9971772399
 20
738.3226725424
 30
0.0
 11
297.9971772399
 21
738.3226725424
 31
0.0
  0
ARC
  5
BD
330
1F
100
AcDbEntity
  8
0
  6
Continuous
 62
     7
370
    25
100
AcDbCircle
 10
366.9971772399
 20
609.3226725424
 30
0.0
 40
3.0
100
AcDbArc
 50
270.0
 51
0.0
  0
LINE
  5
BE
330
1F
100
AcDbEntity
  8
0
  6
Continuous
 62
     7
370
    25
100
AcDbLine
 10
369.9971772399
 20
613.3226725424
 30
0.0
 11
369.9971772399
 21
609.3226725424
 31
0.0
  0
ARC
  5
BF
330
1F
100
AcDbEntity
  8
0
  6
Continuous
 62
     7
370
    25
100
AcDbCircle
 10
366.9971772399
 20
613.3226725424
 30
0.0
 40
3.0
100
AcDbArc
 50
360.0
 51
90.0
  0
LINE
  5
C0
330
1F
100
AcDbEntity
  8
0
  6
Continuous
 62
     7
370
    25
100
AcDbLine
 10
362.9971772399
 20
616.3226725424
 30
0.0
 11
366.9971772399
 21
616.3226725424
 31
0.0
  0
ARC
  5
C1
330
1F
100
AcDbEntity
  8
0
  6
Continuous
 62
     7
370
    25
100
AcDbCircle
 10
362.9971772399
 20
613.3226725424
 30
0.0
 40
3.0
100
AcDbArc
 50
90.0
 51
180.0
  0
LINE
  5
C2
330
1F
100
AcDbEntity
  8
0
  6
Continuous
 62
     7
370
    25
100
AcDbLine
 10
359.9971772399
 20
609.3226725424
 30
0.0
 11
359.9971772399
 21
613.3226725424
 31
0.0
  0
ARC
  5
C3
330
1F
100
AcDbEntity
  8
0
  6
Continuous
 62
     7
370
    25
100
AcDbCircle
 10
362.9971772399
 20
609.3226725424
 30
0.0
 40
3.0
100
AcDbArc
 50
180.0
 51
270.0
  0
LINE
  5
C4
330
1F
100
AcDbEntity
  8
0
  6
Continuous
 62
     7
370
    25
100
AcDbLine
 10
366.9971772399
 20
606.3226725424
 30
0.0
 11
362.9971772399
 21
606.3226725424
 31
0.0
  0
CIRCLE
  5
C5
330
1F
100
AcDbEntity
  8
0
  6
Continuous
 62
     7
370
    25
100
AcDbCircle
 10
346.9971772399
 20
727.6146196394
 30
0.0
 40
2.5
  0
CIRCLE
  5
C6
330
1F
100
AcDbEntity
  8
0
  6
Continuous
 62
     7
370
    25
100
AcDbCircle
 10
346.9971772399
 20
711.6146196394
 30
0.0
 40
2.500000000000114
  0
CIRCLE
  5
C7
330
1F
100
AcDbEntity
  8
0
  6
Continuous
 62
     7
370
    25
100
AcDbCircle
 10
411.9971772399
 20
711.6146196394
 30
0.0
 40
2.500000000000114
  0
CIRCLE
  5
C8
330
1F
100
AcDbEntity
  8
0
  6
Continuous
 62
     7
370
    25
100
AcDbCircle
 10
411.9971772399
 20
727.6146196394
 30
0.0
 40
2.5
  0
ARC
  5
C9
330
1F
100
AcDbEntity
  8
0
  6
Continuous
 62
     7
370
    25
100
AcDbCircle
 10
328.9971772399
 20
712.3226725424
 30
0.0
 40
2.0
100
AcDbArc
 50
270.0
 51
90.0
  0
LINE
  5
CA
330
1F
100
AcDbEntity
  8
0
  6
Continuous
 62
     7
370
    25
100
AcDbLine
 10
298.9971772399
 20
714.3226725424
 30
0.0
 11
328.9971772399
 21
714.3226725424
 31
0.0
  0
ARC
  5
CB
330
1F
100
AcDbEntity
  8
0
  6
Continuous
 62
     7
370
    25
100
AcDbCircle
 10
298.9971772399
 20
712.3226725424
 30
0.0
 40
2.0
100
AcDbArc
 50
90.0
 51
270.0
  0
LINE
  5
CC
330
1F
100
AcDbEntity
  8
0
  6
Continuous
 62
     7
370
    25
100
AcDbLine
 10
328.9971772399
 20
710.3226725424
 30
0.0
 11
298.9971772399
 21
710.3226725424
 31
0.0
  0
LINE
  5
CD
330
1F
100
AcDbEntity
  8
0
  6
Continuous
 62
     7
370
    25
100
AcDbLine
 10
389.9971772399
 20
596.3226725424
 30
0.0
 11
322.9971772399
 21
596.3226725424
 31
0.0
  0
LINE
  5
CE
330
1F
100
AcDbEntity
  8
0
  6
Continuous
 62
     7
370
    25
100
AcDbLine
 10
322.9971772399
 20
596.3226725424
 30
0.0
 11
322.9971772399
 21
671.3226725424
 31
0.0
  0
CIRCLE
  5
CF
330
1F
100
AcDbEntity
  8
0
  6
Continuous
 62
     7
370
    25
100
AcDbCircle
 10
549.0970322083
 20
684.3346986298
 30
0.0
 40
3.5
  0
CIRCLE
  5
D0
330
1F
100
AcDbEntity
  8
0
  6
Continuous
 62
     7
370
    25
100
AcDbCircle
 10
655.0970322062
 20
817.3346986298
 30
0.0
 40
3.500000000000114
  0
CIRCLE
  5
D1
330
1F
100
AcDbEntity
  8
0
  6
Continuous
 62
     7
370
    25
100
AcDbCircle
 10
443.0970322084
 20
817.3346986297
 30
0.0
 40
3.5
  0
LINE
  5
D2
330
1F
100
AcDbEntity
  8
0
  6
Continuous
 62
     7
370
    25
100
AcDbLine
 10
640.2970322063
 20
738.3346986297
 30
0.0
 11
640.2970322063
 21
734.3346986297
 31
0.0
  0
LINE
  5
D3
330
1F
100
AcDbEntity
  8
0
  6
Continuous
 62
     7
370
    25
100
AcDbLine
 10
620.2970322063
 20
738.3346986297
 30
0.0
 11
640.2970322063
 21
738.3346986297
 31
0.0
  0
LINE
  5
D4
330
1F
100
AcDbEntity
  8
0
  6
Continuous
 62
     7
370
    25
100
AcDbLine
 10
620.2970322063
 20
734.3346986297
 30
0.0
 11
620.2970322063
 21
738.3346986297
 31
0.0
  0
ARC
  5
D5
330
1F
100
AcDbEntity
  8
0
  6
Continuous
 62
     7
370
    25
100
AcDbCircle
 10
607.7970322063
 20
736.3346986297
 30
0.0
 40
4.000000000000033
100
AcDbArc
 50
210.0
 51
330.0
  0
LINE
  5
D6
330
1F
100
AcDbEntity
  8
0
  6
Continuous
 62
     7
370
    25
100
AcDbLine
 10
595.2970322063
 20
727.7988002449
 30
0.0
 11
595.2970322063
 21
734.3346986297
 31
0.0
  0
ARC
  5
D7
330
1F
100
AcDbEntity
  8
0
  6
Continuous
 62
     7
370
    25
100
AcDbCircle
 10
593.2970322063
 20
724.3346986297
 30
0.0
 40
4.000000000000033
100
AcDbArc
 50
300.0
 51
60.0
  0
LINE
  5
D8
330
1F
100
AcDbEntity
  8
0
  6
Continuous
 62
     7
370
    25
100
AcDbLine
 10
591.2970322063
 20
714.3346986297
 30
0.0
 11
595.2970322063
 21
714.3346986297
 31
0.0
  0
LINE
  5
D9
330
1F
100
AcDbEntity
  8
0
  6
Continuous
 62
     7
370
    25
100
AcDbLine
 10
591.2970322063
 20
694.3346986297
 30
0.0
 11
591.2970322063
 21
714.3346986297
 31
0.0
  0
LINE
  5
DA
330
1F
100
AcDbEntity
  8
0
  6
Continuous
 62
     7
370
    25
100
AcDbLine
 10
595.2970322063
 20
694.3346986297
 30
0.0
 11
591.2970322063
 21
694.3346986297
 31
0.0
  0
ARC
  5
DB
330
1F
100
AcDbEntity
  8
0
  6
Continuous
 62
     7
370
    25
100
AcDbCircle
 10
593.2970322063
 20
684.3346986297
 30
0.0
 40
4.000000000000033
100
AcDbArc
 50
300.0
 51
60.0
  0
LINE
  5
DC
330
1F
100
AcDbEntity
  8
0
  6
Continuous
 62
     7
370
    25
100
AcDbLine
 10
665.2970322063
 20
674.3346986297
 30
0.0
 11
595.2970322063
 21
674.3346986297
 31
0.0
  0
LINE
  5
DD
330
1F
100
AcDbEntity
  8
0
  6
Continuous
 62
     7
370
    25
100
AcDbLine
 10
665.2970322063
 20
734.3346986297
 30
0.0
 11
665.2970322063
 21
674.3346986297
 31
0.0
  0
LINE
  5
DE
330
1F
100
AcDbEntity
  8
0
  6
Continuous
 62
     7
370
    25
100
AcDbLine
 10
656.2611338214
 20
734.3346986297
 30
0.0
 11
665.2970322063
 21
734.3346986297
 31
0.0
  0
ARC
  5
DF
330
1F
100
AcDbEntity
  8
0
  6
Continuous
 62
     7
370
    25
100
AcDbCircle
 10
652.7970322063
 20
736.3346986297
 30
0.0
 40
4.000000000000033
100
AcDbArc
 50
210.0
 51
330.0
  0
CIRCLE
  5
E0
330
1F
100
AcDbEntity
  8
0
  6
Continuous
 62
     7
370
    25
100
AcDbCircle
 10
593.2970322063
 20
724.3346986297
 30
0.0
 40
1.599999999999909
  0
CIRCLE
  5
E1
330
1F
100
AcDbEntity
  8
0
  6
Continuous
 62
     7
370
    25
100
AcDbCircle
 10
593.2970322063
 20
684.3346986297
 30
0.0
 40
1.599999999999909
  0
CIRCLE
  5
E2
330
1F
100
AcDbEntity
  8
0
  6
Continuous
 62
     7
370
    25
100
AcDbCircle
 10
607.7970322063
 20
736.3346986297
 30
0.0
 40
1.600000000000136
  0
CIRCLE
  5
E3
330
1F
100
AcDbEntity
  8
0
  6
Continuous
 62
     7
370
    25
100
AcDbCircle
 10
652.7970322063
 20
736.3346986297
 30
0.0
 40
1.600000000000023
  0
CIRCLE
  5
E4
330
1F
100
AcDbEntity
  8
0
  6
Continuous
 62
     7
370
    25
100
AcDbCircle
 10
489.2970322063
 20
750.3346986297
 30
0.0
 40
7.5
  0
LINE
  5
E5
330
1F
100
AcDbEntity
  8
0
  6
Continuous
 62
     7
370
    25
100
AcDbLine
 10
581.7970322063
 20
764.3346986298
 30
0.0
 11
581.7970322063
 21
694.3346986298
 31
0.0
  0
LINE
  5
E6
330
1F
100
AcDbEntity
  8
0
  6
Continuous
 62
     7
370
    25
100
AcDbLine
 10
516.7970322063
 20
764.3346986298
 30
0.0
 11
581.7970322063
 21
764.3346986298
 31
0.0
  0
LINE
  5
E7
330
1F
100
AcDbEntity
  8
0
  6
Continuous
 62
     7
370
    25
100
AcDbLine
 10
516.7970322063
 20
764.3346986298
 30
0.0
 11
516.7970322063
 21
694.3346986298
 31
0.0
  0
LINE
  5
E8
330
1F
100
AcDbEntity
  8
0
  6
Continuous
 62
     7
370
    25
100
AcDbLine
 10
516.7970322063
 20
694.3346986298
 30
0.0
 11
581.7970322063
 21
694.3346986298
 31
0.0
  0
LINE
  5
E9
330
1F
100
AcDbEntity
  8
0
  6
Continuous
 62
     7
370
    25
100
AcDbLine
 10
440.5970322063
 20
711.0346986297
 30
0.0
 11
462.9970322063
 21
711.0346986297
 31
0.0
  0
LINE
  5
EA
330
1F
100
AcDbEntity
  8
0
  6
Continuous
 62
     7
370
    25
100
AcDbLine
 10
440.5970322063
 20
681.6346986297
 30
0.0
 11
440.5970322063
 21
711.0346986297
 31
0.0
  0
LINE
  5
EB
330
1F
100
AcDbEntity
  8
0
  6
Continuous
 62
     7
370
    25
100
AcDbLine
 10
462.9970322063
 20
681.6346986297
 30
0.0
 11
440.5970322063
 21
681.6346986297
 31
0.0
  0
LINE
  5
EC
330
1F
100
AcDbEntity
  8
0
  6
Continuous
 62
     7
370
    25
100
AcDbLine
 10
462.9970322063
 20
711.0346986297
 30
0.0
 11
462.9970322063
 21
681.6346986297
 31
0.0
  0
LINE
  5
ED
330
1F
100
AcDbEntity
  8
0
  6
Continuous
 62
     7
370
    25
100
AcDbLine
 10
429.2970322063
 20
670.3346986297
 30
0.0
 11
669.2970322063
 21
670.3346986297
 31
0.0
  0
LINE
  5
EE
330
1F
100
AcDbEntity
  8
0
  6
Continuous
 62
     7
370
    25
100
AcDbLine
 10
429.2970322063
 20
827.3346986297
 30
0.0
 11
429.2970322063
 21
670.3346986297
 31
0.0
  0
LINE
  5
EF
330
1F
100
AcDbEntity
  8
0
  6
Continuous
 62
     7
370
    25
100
AcDbLine
 10
669.2970322063
 20
827.3346986297
 30
0.0
 11
429.2970322063
 21
827.3346986297
 31
0.0
  0
LINE
  5
F0
330
1F
100
AcDbEntity
  8
0
  6
Continuous
 62
     7
370
    25
100
AcDbLine
 10
669.2970322063
 20
670.3346986297
 30
0.0
 11
669.2970322063
 21
827.3346986297
 31
0.0
  0
LINE
  5
F1
330
1F
100
AcDbEntity
  8
0
  6
Continuous
 62
     7
370
    25
100
AcDbLine
 10
595.2970322063
 20
714.3346986297
 30
0.0
 11
595.2970322063
 21
720.8705970146
 31
0.0
  0
LINE
  5
F2
330
1F
100
AcDbEntity
  8
0
  6
Continuous
 62
     7
370
    25
100
AcDbLine
 10
595.2970322063
 20
687.7988002449
 30
0.0
 11
595.2970322063
 21
694.3346986297
 31
0.0
  0
LINE
  5
F3
330
1F
100
AcDbEntity
  8
0
  6
Continuous
 62
     7
370
    25
100
AcDbLine
 10
595.2970322063
 20
674.3346986297
 30
0.0
 11
595.2970322063
 21
680.8705970146
 31
0.0
  0
LINE
  5
F4
330
1F
100
AcDbEntity
  8
0
  6
Continuous
 62
     7
370
    25
100
AcDbLine
 10
611.2611338214
 20
734.3346986297
 30
0.0
 11
620.2970322063
 21
734.3346986297
 31
0.0
  0
LINE
  5
F5
330
1F
100
AcDbEntity
  8
0
  6
Continuous
 62
     7
370
    25
100
AcDbLine
 10
595.2970322063
 20
734.3346986297
 30
0.0
 11
604.3329305912
 21
734.3346986297
 31
0.0
  0
LINE
  5
F6
330
1F
100
AcDbEntity
  8
0
  6
Continuous
 62
     7
370
    25
100
AcDbLine
 10
640.2970322063
 20
734.3346986297
 30
0.0
 11
649.3329305912
 21
734.3346986297
 31
0.0
  0
LINE
  5
F7
330
1F
100
AcDbEntity
  8
0
  6
Continuous
 62
     7
370
    25
100
AcDbLine
 10
234.9946415122
 20
485.0101849022
 30
0.0
 11
224.5946415122
 21
485.0101849022
 31
0.0
  0
LINE
  5
F8
330
1F
100
AcDbEntity
  8
0
  6
Continuous
 62
     7
370
    25
100
AcDbLine
 10
234.9946415122
 20
489.4101849022
 30
0.0
 11
234.9946415122
 21
485.0101849022
 31
0.0
  0
LINE
  5
F9
330
1F
100
AcDbEntity
  8
0
  6
Continuous
 62
     7
370
    25
100
AcDbLine
 10
234.9946415122
 20
489.4101849022
 30
0.0
 11
224.5946415122
 21
489.4101849022
 31
0.0
  0
LINE
  5
FA
330
1F
100
AcDbEntity
  8
0
  6
Continuous
 62
     7
370
    25
100
AcDbLine
 10
224.5946415122
 20
489.4101849022
 30
0.0
 11
224.5946415122
 21
485.0101849022
 31
0.0
  0
LINE
  5
FB
330
1F
100
AcDbEntity
  8
0
  6
Continuous
 62
     7
370
    25
100
AcDbLine
 10
194.9946415122
 20
489.4101849022
 30
0.0
 11
194.9946415122
 21
485.0101849022
 31
0.0
  0
LINE
  5
FC
330
1F
100
AcDbEntity
  8
0
  6
Continuous
 62
     7
370
    25
100
AcDbLine
 10
194.9946415122
 20
489.4101849022
 30
0.0
 11
184.5946415122
 21
489.4101849022
 31
0.0
  0
LINE
  5
FD
330
1F
100
AcDbEntity
  8
0
  6
Continuous
 62
     7
370
    25
100
AcDbLine
 10
184.5946415122
 20
489.4101849022
 30
0.0
 11
184.5946415122
 21
485.0101849022
 31
0.0
  0
LINE
  5
FE
330
1F
100
AcDbEntity
  8
0
  6
Continuous
 62
     7
370
    25
100
AcDbLine
 10
194.9946415122
 20
485.0101849022
 30
0.0
 11
184.5946415122
 21
485.0101849022
 31
0.0
  0
LINE
  5
FF
330
1F
100
AcDbEntity
  8
0
  6
Continuous
 62
     7
370
    25
100
AcDbLine
 10
214.9946415122
 20
489.4101849022
 30
0.0
 11
214.9946415122
 21
485.0101849022
 31
0.0
  0
LINE
  5
100
330
1F
100
AcDbEntity
  8
0
  6
Continuous
 62
     7
370
    25
100
AcDbLine
 10
214.9946415122
 20
489.4101849022
 30
0.0
 11
204.5946415122
 21
489.4101849022
 31
0.0
  0
LINE
  5
101
330
1F
100
AcDbEntity
  8
0
  6
Continuous
 62
     7
370
    25
100
AcDbLine
 10
204.5946415122
 20
489.4101849022
 30
0.0
 11
204.5946415122
 21
485.0101849022
 31
0.0
  0
LINE
  5
102
330
1F
100
AcDbEntity
  8
0
  6
Continuous
 62
     7
370
    25
100
AcDbLine
 10
214.9946415122
 20
485.0101849022
 30
0.0
 11
204.5946415122
 21
485.0101849022
 31
0.0
  0
LINE
  5
103
330
1F
100
AcDbEntity
  8
0
  6
Continuous
 62
     7
370
    25
100
AcDbLine
 10
10.89464151
 20
569.0101849021
 30
0.0
 11
10.89464151
 21
549.4101849021
 31
0.0
  0
LINE
  5
104
330
1F
100
AcDbEntity
  8
0
  6
Continuous
 62
     7
370
    25
100
AcDbLine
 10
15.2946415079
 20
569.0101849021
 30
0.0
 11
10.89464151
 21
569.0101849021
 31
0.0
  0
LINE
  5
105
330
1F
100
AcDbEntity
  8
0
  6
Continuous
 62
     7
370
    25
100
AcDbLine
 10
15.2946415079
 20
639.4101849021
 30
0.0
 11
15.2946415079
 21
569.0101849021
 31
0.0
  0
LINE
  5
106
330
1F
100
AcDbEntity
  8
0
  6
Continuous
 62
     7
370
    25
100
AcDbLine
 10
10.89464151
 20
639.4101849021
 30
0.0
 11
15.2946415079
 21
639.4101849021
 31
0.0
  0
LINE
  5
107
330
1F
100
AcDbEntity
  8
0
  6
Continuous
 62
     7
370
    25
100
AcDbLine
 10
10.89464151
 20
659.2101849022
 30
0.0
 11
10.89464151
 21
639.4101849021
 31
0.0
  0
LINE
  5
108
330
1F
100
AcDbEntity
  8
0
  6
Continuous
 62
     7
370
    25
100
AcDbLine
 10
250.89464151
 20
659.2101849022
 30
0.0
 11
10.89464151
 21
659.2101849022
 31
0.0
  0
LINE
  5
109
330
1F
100
AcDbEntity
  8
0
  6
Continuous
 62
     7
370
    25
100
AcDbLine
 10
250.89464151
 20
639.4101849021
 30
0.0
 11
250.89464151
 21
659.2101849022
 31
0.0
  0
LINE
  5
10A
330
1F
100
AcDbEntity
  8
0
  6
Continuous
 62
     7
370
    25
100
AcDbLine
 10
246.4946415122
 20
639.4101849021
 30
0.0
 11
250.89464151
 21
639.4101849021
 31
0.0
  0
LINE
  5
10B
330
1F
100
AcDbEntity
  8
0
  6
Continuous
 62
     7
370
    25
100
AcDbLine
 10
246.4946415122
 20
569.0101849021
 30
0.0
 11
246.4946415122
 21
639.4101849021
 31
0.0
  0
LINE
  5
10C
330
1F
100
AcDbEntity
  8
0
  6
Continuous
 62
     7
370
    25
100
AcDbLine
 10
250.89464151
 20
569.0101849021
 30
0.0
 11
246.4946415122
 21
569.0101849021
 31
0.0
  0
LINE
  5
10D
330
1F
100
AcDbEntity
  8
0
  6
Continuous
 62
     7
370
    25
100
AcDbLine
 10
250.89464151
 20
549.4101849021
 30
0.0
 11
250.89464151
 21
569.0101849021
 31
0.0
  0
LINE
  5
10E
330
1F
100
AcDbEntity
  8
0
  6
Continuous
 62
     7
370
    25
100
AcDbLine
 10
246.4946415122
 20
549.4101849021
 30
0.0
 11
250.89464151
 21
549.4101849021
 31
0.0
  0
LINE
  5
10F
330
1F
100
AcDbEntity
  8
0
  6
Continuous
 62
     7
370
    25
100
AcDbLine
 10
246.4946415122
 20
479.0101849021
 30
0.0
 11
246.4946415122
 21
549.4101849021
 31
0.0
  0
LINE
  5
110
330
1F
100
AcDbEntity
  8
0
  6
Continuous
 62
     7
370
    25
100
AcDbLine
 10
250.89464151
 20
479.0101849021
 30
0.0
 11
246.4946415122
 21
479.0101849021
 31
0.0
  0
LINE
  5
111
330
1F
100
AcDbEntity
  8
0
  6
Continuous
 62
     7
370
    25
100
AcDbLine
 10
250.89464151
 20
459.4101849021
 30
0.0
 11
250.89464151
 21
479.0101849021
 31
0.0
  0
LINE
  5
112
330
1F
100
AcDbEntity
  8
0
  6
Continuous
 62
     7
370
    25
100
AcDbLine
 10
246.4946415122
 20
459.4101849021
 30
0.0
 11
250.89464151
 21
459.4101849021
 31
0.0
  0
LINE
  5
113
330
1F
100
AcDbEntity
  8
0
  6
Continuous
 62
     7
370
    25
100
AcDbLine
 10
246.4946415122
 20
389.0101849021
 30
0.0
 11
246.4946415122
 21
459.4101849021
 31
0.0
  0
LINE
  5
114
330
1F
100
AcDbEntity
  8
0
  6
Continuous
 62
     7
370
    25
100
AcDbLine
 10
250.89464151
 20
389.0101849021
 30
0.0
 11
246.4946415122
 21
389.0101849021
 31
0.0
  0
LINE
  5
115
330
1F
100
AcDbEntity
  8
0
  6
Continuous
 62
     7
370
    25
100
AcDbLine
 10
250.89464151
 20
369.4101849021
 30
0.0
 11
250.89464151
 21
389.0101849021
 31
0.0
  0
LINE
  5
116
330
1F
100
AcDbEntity
  8
0
  6
Continuous
 62
     7
370
    25
100
AcDbLine
 10
246.69464151
 20
369.4101849021
 30
0.0
 11
250.89464151
 21
369.4101849021
 31
0.0
  0
LINE
  5
117
330
1F
100
AcDbEntity
  8
0
  6
Continuous
 62
     7
370
    25
100
AcDbLine
 10
246.69464151
 20
329.2101849022
 30
0.0
 11
246.69464151
 21
369.4101849021
 31
0.0
  0
LINE
  5
118
330
1F
100
AcDbEntity
  8
0
  6
Continuous
 62
     7
370
    25
100
AcDbLine
 10
15.09464151
 20
329.2101849022
 30
0.0
 11
246.69464151
 21
329.2101849022
 31
0.0
  0
LINE
  5
119
330
1F
100
AcDbEntity
  8
0
  6
Continuous
 62
     7
370
    25
100
AcDbLine
 10
15.09464151
 20
369.4101849021
 30
0.0
 11
15.09464151
 21
329.2101849022
 31
0.0
  0
LINE
  5
11A
330
1F
100
AcDbEntity
  8
0
  6
Continuous
 62
     7
370
    25
100
AcDbLine
 10
10.89464151
 20
369.4101849021
 30
0.0
 11
15.09464151
 21
369.4101849021
 31
0.0
  0
LINE
  5
11B
330
1F
100
AcDbEntity
  8
0
  6
Continuous
 62
     7
370
    25
100
AcDbLine
 10
10.89464151
 20
389.0101849021
 30
0.0
 11
10.89464151
 21
369.4101849021
 31
0.0
  0
LINE
  5
11C
330
1F
100
AcDbEntity
  8
0
  6
Continuous
 62
     7
370
    25
100
AcDbLine
 10
15.2946415079
 20
389.0101849021
 30
0.0
 11
10.89464151
 21
389.0101849021
 31
0.0
  0
LINE
  5
11D
330
1F
100
AcDbEntity
  8
0
  6
Continuous
 62
     7
370
    25
100
AcDbLine
 10
15.2946415079
 20
459.4101849021
 30
0.0
 11
15.2946415079
 21
389.0101849021
 31
0.0
  0
LINE
  5
11E
330
1F
100
AcDbEntity
  8
0
  6
Continuous
 62
     7
370
    25
100
AcDbLine
 10
10.89464151
 20
459.4101849021
 30
0.0
 11
15.2946415079
 21
459.4101849021
 31
0.0
  0
LINE
  5
11F
330
1F
100
AcDbEntity
  8
0
  6
Continuous
 62
     7
370
    25
100
AcDbLine
 10
10.89464151
 20
479.0101849021
 30
0.0
 11
10.89464151
 21
459.4101849021
 31
0.0
  0
LINE
  5
120
330
1F
100
AcDbEntity
  8
0
  6
Continuous
 62
     7
370
    25
100
AcDbLine
 10
15.2946415079
 20
479.0101849021
 30
0.0
 11
10.89464151
 21
479.0101849021
 31
0.0
  0
LINE
  5
121
330
1F
100
AcDbEntity
  8
0
  6
Continuous
 62
     7
370
    25
100
AcDbLine
 10
15.2946415079
 20
549.4101849021
 30
0.0
 11
15.2946415079
 21
479.0101849021
 31
0.0
  0
LINE
  5
122
330
1F
100
AcDbEntity
  8
0
  6
Continuous
 62
     7
370
    25
100
AcDbLine
 10
10.89464151
 20
549.4101849021
 30
0.0
 11
15.2946415079
 21
549.4101849021
 31
0.0
  0
LINE
  5
123
330
1F
100
AcDbEntity
  8
0
  6
Continuous
 62
     7
370
    25
100
AcDbLine
 10
85.7946415079
 20
405.2101849022
 30
0.0
 11
100.7946415079
 21
405.2101849022
 31
0.0
  0
LINE
  5
124
330
1F
100
AcDbEntity
  8
0
  6
Continuous
 62
     7
370
    25
100
AcDbLine
 10
85.7946415079
 20
390.2101849022
 30
0.0
 11
85.7946415079
 21
405.2101849022
 31
0.0
  0
LINE
  5
125
330
1F
100
AcDbEntity
  8
0
  6
Continuous
 62
     7
370
    25
100
AcDbLine
 10
100.7946415079
 20
390.2101849022
 30
0.0
 11
85.7946415079
 21
390.2101849022
 31
0.0
  0
LINE
  5
126
330
1F
100
AcDbEntity
  8
0
  6
Continuous
 62
     7
370
    25
100
AcDbLine
 10
100.7946415079
 20
405.2101849022
 30
0.0
 11
100.7946415079
 21
390.2101849022
 31
0.0
  0
CIRCLE
  5
127
330
1F
100
AcDbEntity
  8
0
  6
Continuous
 62
     7
370
    25
100
AcDbCircle
 10
130.89464151
 20
369.2101849022
 30
0.0
 40
1.599999999998658
  0
CIRCLE
  5
128
330
1F
100
AcDbEntity
  8
0
  6
Continuous
 62
     7
370
    25
100
AcDbCircle
 10
130.89464151
 20
509.2101849022
 30
0.0
 40
1.59999999999863
  0
CIRCLE
  5
129
330
1F
100
AcDbEntity
  8
0
  6
Continuous
 62
     7
370
    25
100
AcDbCircle
 10
130.89464151
 20
649.2101849022
 30
0.0
 40
1.59999999999863
  0
CIRCLE
  5
12A
330
1F
100
AcDbEntity
  8
0
  6
Continuous
 62
     7
370
    25
100
AcDbCircle
 10
35.2946415079
 20
629.2101849022
 30
0.0
 40
1.999999999986152
  0
CIRCLE
  5
12B
330
1F
100
AcDbEntity
  8
0
  6
Continuous
 62
     7
370
    25
100
AcDbCircle
 10
71.2946415079
 20
577.2101849022
 30
0.0
 40
1.999999999986159
  0
CIRCLE
  5
12C
330
1F
100
AcDbEntity
  8
0
  6
Continuous
 62
     7
370
    25
100
AcDbCircle
 10
35.2946415079
 20
577.2101849022
 30
0.0
 40
1.999999999986152
  0
CIRCLE
  5
12D
330
1F
100
AcDbEntity
  8
0
  6
Continuous
 62
     7
370
    25
100
AcDbCircle
 10
71.2946415079
 20
629.2101849022
 30
0.0
 40
1.999999999986159
  0
ARC
  5
12E
330
1F
100
AcDbEntity
  8
0
  6
Continuous
 62
     7
370
    25
100
AcDbCircle
 10
531.5640515172
 20
352.4341916348
 30
0.0
 40
37.50000000000009
100
AcDbArc
 50
325.9442022574
 51
214.0557977426
  0
LINE
  5
12F
330
1F
100
AcDbEntity
  8
0
  6
Continuous
 62
     7
370
    25
100
AcDbLine
 10
571.5640515172
 20
641.4341916348
 30
0.0
 11
571.5640515172
 21
661.4341916348
 31
0.0
  0
LINE
  5
130
330
1F
100
AcDbEntity
  8
0
  6
Continuous
 62
     7
370
    25
100
AcDbLine
 10
575.5640515172
 20
641.4341916348
 30
0.0
 11
571.5640515172
 21
641.4341916348
 31
0.0
  0
LINE
  5
131
330
1F
100
AcDbEntity
  8
0
  6
Continuous
 62
     7
370
    25
100
AcDbLine
 10
575.5640515172
 20
571.4341916348
 30
0.0
 11
575.5640515172
 21
641.4341916348
 31
0.0
  0
LINE
  5
132
330
1F
100
AcDbEntity
  8
0
  6
Continuous
 62
     7
370
    25
100
AcDbLine
 10
571.5640515172
 20
571.4341916348
 30
0.0
 11
575.5640515172
 21
571.4341916348
 31
0.0
  0
LINE
  5
133
330
1F
100
AcDbEntity
  8
0
  6
Continuous
 62
     7
370
    25
100
AcDbLine
 10
571.5640515172
 20
551.4341916348
 30
0.0
 11
571.5640515172
 21
571.4341916348
 31
0.0
  0
LINE
  5
134
330
1F
100
AcDbEntity
  8
0
  6
Continuous
 62
     7
370
    25
100
AcDbLine
 10
575.5640515172
 20
551.4341916348
 30
0.0
 11
571.5640515172
 21
551.4341916348
 31
0.0
  0
LINE
  5
135
330
1F
100
AcDbEntity
  8
0
  6
Continuous
 62
     7
370
    25
100
AcDbLine
 10
571.5640515172
 20
481.4341916348
 30
0.0
 11
575.5640515172
 21
481.4341916348
 31
0.0
  0
LINE
  5
136
330
1F
100
AcDbEntity
  8
0
  6
Continuous
 62
     7
370
    25
100
AcDbLine
 10
571.5640515172
 20
461.4341916348
 30
0.0
 11
571.5640515172
 21
481.4341916348
 31
0.0
  0
LINE
  5
137
330
1F
100
AcDbEntity
  8
0
  6
Continuous
 62
     7
370
    25
100
AcDbLine
 10
575.5640515172
 20
461.4341916348
 30
0.0
 11
571.5640515172
 21
461.4341916348
 31
0.0
  0
LINE
  5
138
330
1F
100
AcDbEntity
  8
0
  6
Continuous
 62
     7
370
    25
100
AcDbLine
 10
571.5640515172
 20
391.4341916348
 30
0.0
 11
575.5640515172
 21
391.4341916348
 31
0.0
  0
LINE
  5
139
330
1F
100
AcDbEntity
  8
0
  6
Continuous
 62
     7
370
    25
100
AcDbLine
 10
571.5640515172
 20
371.4341916348
 30
0.0
 11
571.5640515172
 21
391.4341916348
 31
0.0
  0
LINE
  5
13A
330
1F
100
AcDbEntity
  8
0
  6
Continuous
 62
     7
370
    25
100
AcDbLine
 10
575.5640515172
 20
371.4341916348
 30
0.0
 11
571.5640515172
 21
371.4341916348
 31
0.0
  0
CIRCLE
  5
13B
330
1F
100
AcDbEntity
  8
0
  6
Continuous
 62
     7
370
    25
100
AcDbCircle
 10
475.5640515172
 20
631.4341916348
 30
0.0
 40
2.0
  0
CIRCLE
  5
13C
330
1F
100
AcDbEntity
  8
0
  6
Continuous
 62
     7
370
    25
100
AcDbCircle
 10
439.5640515172
 20
579.4341916348
 30
0.0
 40
2.0
  0
CIRCLE
  5
13D
330
1F
100
AcDbEntity
  8
0
  6
Continuous
 62
     7
370
    25
100
AcDbCircle
 10
475.5640515172
 20
579.4341916348
 30
0.0
 40
2.0
  0
CIRCLE
  5
13E
330
1F
100
AcDbEntity
  8
0
  6
Continuous
 62
     7
370
    25
100
AcDbCircle
 10
439.5640515172
 20
631.4341916348
 30
0.0
 40
2.0
  0
CIRCLE
  5
13F
330
1F
100
AcDbEntity
  8
0
  6
Continuous
 62
     7
370
    25
100
AcDbCircle
 10
428.5640515172
 20
351.4341916348
 30
0.0
 40
2.0
  0
CIRCLE
  5
140
330
1F
100
AcDbEntity
  8
0
  6
Continuous
 62
     7
370
    25
100
AcDbCircle
 10
428.5640515172
 20
501.4341916348
 30
0.0
 40
2.0
  0
CIRCLE
  5
141
330
1F
100
AcDbEntity
  8
0
  6
Continuous
 62
     7
370
    25
100
AcDbCircle
 10
428.5640515172
 20
651.4341916348
 30
0.0
 40
2.0
  0
LINE
  5
142
330
1F
100
AcDbEntity
  8
0
  6
Continuous
 62
     7
370
    25
100
AcDbLine
 10
562.632524283
 20
331.4341916348
 30
0.0
 11
575.5640515172
 21
331.4341916348
 31
0.0
  0
LINE
  5
143
330
1F
100
AcDbEntity
  8
0
  6
Continuous
 62
     7
370
    25
100
AcDbLine
 10
418.5640515172
 20
661.4341916348
 30
0.0
 11
418.5640515172
 21
331.4341916348
 31
0.0
  0
LINE
  5
144
330
1F
100
AcDbEntity
  8
0
  6
Continuous
 62
     7
370
    25
100
AcDbLine
 10
571.5640515172
 20
661.4341916348
 30
0.0
 11
418.5640515172
 21
661.4341916348
 31
0.0
  0
LINE
  5
145
330
1F
100
AcDbEntity
  8
0
  6
Continuous
 62
     7
370
    25
100
AcDbLine
 10
418.5640515172
 20
331.4341916348
 30
0.0
 11
500.4955787514
 21
331.4341916348
 31
0.0
  0
LINE
  5
146
330
1F
100
AcDbEntity
  8
0
  6
Continuous
 62
     7
370
    25
100
AcDbLine
 10
575.5640515172
 20
331.4341916348
 30
0.0
 11
575.5640515172
 21
371.4341916348
 31
0.0
  0
LINE
  5
147
330
1F
100
AcDbEntity
  8
0
  6
Continuous
 62
     7
370
    25
100
AcDbLine
 10
575.5640515172
 20
391.4341916348
 30
0.0
 11
575.5640515172
 21
461.4341916348
 31
0.0
  0
LINE
  5
148
330
1F
100
AcDbEntity
  8
0
  6
Continuous
 62
     7
370
    25
100
AcDbLine
 10
575.5640515172
 20
481.4341916348
 30
0.0
 11
575.5640515172
 21
551.4341916348
 31
0.0
  0
ARC
  5
149
330
1F
100
AcDbEntity
  8
0
  6
Continuous
 62
     7
370
    25
100
AcDbCircle
 10
696.1114377035
 20
351.2692857314
 30
0.0
 40
37.5
100
AcDbArc
 50
325.9442022574
 51
214.0557977426
  0
LINE
  5
14A
330
1F
100
AcDbEntity
  8
0
  6
Continuous
 62
     7
370
    25
100
AcDbLine
 10
736.1114377035
 20
640.2692857314
 30
0.0
 11
736.1114377035
 21
660.2692857314
 31
0.0
  0
LINE
  5
14B
330
1F
100
AcDbEntity
  8
0
  6
Continuous
 62
     7
370
    25
100
AcDbLine
 10
740.1114377035
 20
640.2692857314
 30
0.0
 11
736.1114377035
 21
640.2692857314
 31
0.0
  0
LINE
  5
14C
330
1F
100
AcDbEntity
  8
0
  6
Continuous
 62
     7
370
    25
100
AcDbLine
 10
740.1114377035
 20
570.2692857314
 30
0.0
 11
740.1114377035
 21
640.2692857314
 31
0.0
  0
LINE
  5
14D
330
1F
100
AcDbEntity
  8
0
  6
Continuous
 62
     7
370
    25
100
AcDbLine
 10
736.1114377035
 20
570.2692857314
 30
0.0
 11
740.1114377035
 21
570.2692857314
 31
0.0
  0
LINE
  5
14E
330
1F
100
AcDbEntity
  8
0
  6
Continuous
 62
     7
370
    25
100
AcDbLine
 10
736.1114377035
 20
550.2692857314
 30
0.0
 11
736.1114377035
 21
570.2692857314
 31
0.0
  0
LINE
  5
14F
330
1F
100
AcDbEntity
  8
0
  6
Continuous
 62
     7
370
    25
100
AcDbLine
 10
740.1114377035
 20
550.2692857314
 30
0.0
 11
736.1114377035
 21
550.2692857314
 31
0.0
  0
LINE
  5
150
330
1F
100
AcDbEntity
  8
0
  6
Continuous
 62
     7
370
    25
100
AcDbLine
 10
736.1114377035
 20
480.2692857314
 30
0.0
 11
740.1114377035
 21
480.2692857314
 31
0.0
  0
LINE
  5
151
330
1F
100
AcDbEntity
  8
0
  6
Continuous
 62
     7
370
    25
100
AcDbLine
 10
736.1114377035
 20
460.2692857314
 30
0.0
 11
736.1114377035
 21
480.2692857314
 31
0.0
  0
LINE
  5
152
330
1F
100
AcDbEntity
  8
0
  6
Continuous
 62
     7
370
    25
100
AcDbLine
 10
740.1114377035
 20
460.2692857314
 30
0.0
 11
736.1114377035
 21
460.2692857314
 31
0.0
  0
LINE
  5
153
330
1F
100
AcDbEntity
  8
0
  6
Continuous
 62
     7
370
    25
100
AcDbLine
 10
736.1114377035
 20
390.2692857314
 30
0.0
 11
740.1114377035
 21
390.2692857314
 31
0.0
  0
LINE
  5
154
330
1F
100
AcDbEntity
  8
0
  6
Continuous
 62
     7
370
    25
100
AcDbLine
 10
736.1114377035
 20
370.2692857314
 30
0.0
 11
736.1114377035
 21
390.2692857314
 31
0.0
  0
LINE
  5
155
330
1F
100
AcDbEntity
  8
0
  6
Continuous
 62
     7
370
    25
100
AcDbLine
 10
740.1114377035
 20
370.2692857314
 30
0.0
 11
736.1114377035
 21
370.2692857314
 31
0.0
  0
CIRCLE
  5
156
330
1F
100
AcDbEntity
  8
0
  6
Continuous
 62
     7
370
    25
100
AcDbCircle
 10
640.1114377035
 20
630.2692857314
 30
0.0
 40
1.999999999999886
  0
CIRCLE
  5
157
330
1F
100
AcDbEntity
  8
0
  6
Continuous
 62
     7
370
    25
100
AcDbCircle
 10
604.1114377035
 20
578.2692857314
 30
0.0
 40
2.0
  0
CIRCLE
  5
158
330
1F
100
AcDbEntity
  8
0
  6
Continuous
 62
     7
370
    25
100
AcDbCircle
 10
640.1114377035
 20
578.2692857314
 30
0.0
 40
1.999999999999886
  0
CIRCLE
  5
159
330
1F
100
AcDbEntity
  8
0
  6
Continuous
 62
     7
370
    25
100
AcDbCircle
 10
604.1114377035
 20
630.2692857314
 30
0.0
 40
2.0
  0
CIRCLE
  5
15A
330
1F
100
AcDbEntity
  8
0
  6
Continuous
 62
     7
370
    25
100
AcDbCircle
 10
593.1114377035
 20
350.2692857314
 30
0.0
 40
2.0
  0
CIRCLE
  5
15B
330
1F
100
AcDbEntity
  8
0
  6
Continuous
 62
     7
370
    25
100
AcDbCircle
 10
593.1114377035
 20
500.2692857314
 30
0.0
 40
2.0
  0
CIRCLE
  5
15C
330
1F
100
AcDbEntity
  8
0
  6
Continuous
 62
     7
370
    25
100
AcDbCircle
 10
593.1114377035
 20
650.2692857314
 30
0.0
 40
2.0
  0
LINE
  5
15D
330
1F
100
AcDbEntity
  8
0
  6
Continuous
 62
     7
370
    25
100
AcDbLine
 10
727.1799104693
 20
330.2692857314
 30
0.0
 11
740.1114377035
 21
330.2692857314
 31
0.0
  0
LINE
  5
15E
330
1F
100
AcDbEntity
  8
0
  6
Continuous
 62
     7
370
    25
100
AcDbLine
 10
583.1114377035
 20
660.2692857314
 30
0.0
 11
583.1114377035
 21
330.2692857314
 31
0.0
  0
LINE
  5
15F
330
1F
100
AcDbEntity
  8
0
  6
Continuous
 62
     7
370
    25
100
AcDbLine
 10
736.1114377035
 20
660.2692857314
 30
0.0
 11
583.1114377035
 21
660.2692857314
 31
0.0
  0
LINE
  5
160
330
1F
100
AcDbEntity
  8
0
  6
Continuous
 62
     7
370
    25
100
AcDbLine
 10
583.1114377035
 20
330.2692857314
 30
0.0
 11
665.0429649377
 21
330.2692857314
 31
0.0
  0
LINE
  5
161
330
1F
100
AcDbEntity
  8
0
  6
Continuous
 62
     7
370
    25
100
AcDbLine
 10
740.1114377035
 20
330.2692857314
 30
0.0
 11
740.1114377035
 21
370.2692857314
 31
0.0
  0
LINE
  5
162
330
1F
100
AcDbEntity
  8
0
  6
Continuous
 62
     7
370
    25
100
AcDbLine
 10
740.1114377035
 20
390.2692857314
 30
0.0
 11
740.1114377035
 21
460.2692857314
 31
0.0
  0
LINE
  5
163
330
1F
100
AcDbEntity
  8
0
  6
Continuous
 62
     7
370
    25
100
AcDbLine
 10
740.1114377035
 20
480.2692857314
 30
0.0
 11
740.1114377035
 21
550.2692857314
 31
0.0
  0
LINE
  5
164
330
1F
100
AcDbEntity
  8
0
  6
Continuous
 62
     7
370
    25
100
AcDbLine
 10
360.4360187704
 20
421.8010785087
 30
0.0
 11
361.9360187704
 21
421.8010785087
 31
0.0
  0
LINE
  5
165
330
1F
100
AcDbEntity
  8
0
  6
Continuous
 62
     7
370
    25
100
AcDbLine
 10
360.4360187704
 20
425.8010785087
 30
0.0
 11
360.4360187704
 21
421.8010785087
 31
0.0
  0
LINE
  5
166
330
1F
100
AcDbEntity
  8
0
  6
Continuous
 62
     7
370
    25
100
AcDbLine
 10
361.8360187704
 20
425.8010785087
 30
0.0
 11
360.4360187704
 21
425.8010785087
 31
0.0
  0
LINE
  5
167
330
1F
100
AcDbEntity
  8
0
  6
Continuous
 62
     7
370
    25
100
AcDbLine
 10
361.8360187704
 20
428.8010785087
 30
0.0
 11
361.8360187704
 21
425.8010785087
 31
0.0
  0
LINE
  5
168
330
1F
100
AcDbEntity
  8
0
  6
Continuous
 62
     7
370
    25
100
AcDbLine
 10
360.4360187704
 20
428.8010785087
 30
0.0
 11
361.8360187704
 21
428.8010785087
 31
0.0
  0
LINE
  5
169
330
1F
100
AcDbEntity
  8
0
  6
Continuous
 62
     7
370
    25
100
AcDbLine
 10
360.4360187704
 20
432.7010785087
 30
0.0
 11
360.4360187704
 21
428.8010785087
 31
0.0
  0
LINE
  5
16A
330
1F
100
AcDbEntity
  8
0
  6
Continuous
 62
     7
370
    25
100
AcDbLine
 10
357.2360187704
 20
432.7010785087
 30
0.0
 11
360.4360187704
 21
432.7010785087
 31
0.0
  0
LINE
  5
16B
330
1F
100
AcDbEntity
  8
0
  6
Continuous
 62
     7
370
    25
100
AcDbLine
 10
357.2360187704
 20
428.8010785087
 30
0.0
 11
357.2360187704
 21
432.7010785087
 31
0.0
  0
LINE
  5
16C
330
1F
100
AcDbEntity
  8
0
  6
Continuous
 62
     7
370
    25
100
AcDbLine
 10
355.8360187704
 20
428.8010785087
 30
0.0
 11
357.2360187704
 21
428.8010785087
 31
0.0
  0
LINE
  5
16D
330
1F
100
AcDbEntity
  8
0
  6
Continuous
 62
     7
370
    25
100
AcDbLine
 10
355.8360187704
 20
425.8010785087
 30
0.0
 11
355.8360187704
 21
428.8010785087
 31
0.0
  0
LINE
  5
16E
330
1F
100
AcDbEntity
  8
0
  6
Continuous
 62
     7
370
    25
100
AcDbLine
 10
357.2360187704
 20
425.8010785087
 30
0.0
 11
355.8360187704
 21
425.8010785087
 31
0.0
  0
LINE
  5
16F
330
1F
100
AcDbEntity
  8
0
  6
Continuous
 62
     7
370
    25
100
AcDbLine
 10
357.2360187704
 20
421.8010785087
 30
0.0
 11
357.2360187704
 21
425.8010785087
 31
0.0
  0
LINE
  5
170
330
1F
100
AcDbEntity
  8
0
  6
Continuous
 62
     7
370
    25
100
AcDbLine
 10
355.7360187704
 20
421.8010785087
 30
0.0
 11
357.2360187704
 21
421.8010785087
 31
0.0
  0
LINE
  5
171
330
1F
100
AcDbEntity
  8
0
  6
Continuous
 62
     7
370
    25
100
AcDbLine
 10
355.7360187704
 20
417.7010785087
 30
0.0
 11
355.7360187704
 21
421.8010785087
 31
0.0
  0
LINE
  5
172
330
1F
100
AcDbEntity
  8
0
  6
Continuous
 62
     7
370
    25
100
AcDbLine
 10
344.8360187704
 20
427.9010785087
 30
0.0
 11
348.8360187704
 21
427.9010785087
 31
0.0
  0
LINE
  5
173
330
1F
100
AcDbEntity
  8
0
  6
Continuous
 62
     7
370
    25
100
AcDbLine
 10
344.8360187704
 20
447.7010785087
 30
0.0
 11
344.8360187704
 21
427.9010785087
 31
0.0
  0
LINE
  5
174
330
1F
100
AcDbEntity
  8
0
  6
Continuous
 62
     7
370
    25
100
AcDbLine
 10
348.8360187704
 20
447.7010785087
 30
0.0
 11
344.8360187704
 21
447.7010785087
 31
0.0
  0
LINE
  5
175
330
1F
100
AcDbEntity
  8
0
  6
Continuous
 62
     7
370
    25
100
AcDbLine
 10
344.8360187704
 20
467.9010785087
 30
0.0
 11
348.8360187704
 21
467.9010785087
 31
0.0
  0
LINE
  5
176
330
1F
100
AcDbEntity
  8
0
  6
Continuous
 62
     7
370
    25
100
AcDbLine
 10
344.8360187704
 20
487.7010785087
 30
0.0
 11
344.8360187704
 21
467.9010785087
 31
0.0
  0
LINE
  5
177
330
1F
100
AcDbEntity
  8
0
  6
Continuous
 62
     7
370
    25
100
AcDbLine
 10
348.8360187704
 20
487.7010785087
 30
0.0
 11
344.8360187704
 21
487.7010785087
 31
0.0
  0
LINE
  5
178
330
1F
100
AcDbEntity
  8
0
  6
Continuous
 62
     7
370
    25
100
AcDbLine
 10
344.8360187704
 20
507.9010785087
 30
0.0
 11
348.8360187704
 21
507.9010785087
 31
0.0
  0
LINE
  5
179
330
1F
100
AcDbEntity
  8
0
  6
Continuous
 62
     7
370
    25
100
AcDbLine
 10
344.8360187704
 20
527.7010785087
 30
0.0
 11
344.8360187704
 21
507.9010785087
 31
0.0
  0
LINE
  5
17A
330
1F
100
AcDbEntity
  8
0
  6
Continuous
 62
     7
370
    25
100
AcDbLine
 10
348.8360187704
 20
527.7010785087
 30
0.0
 11
344.8360187704
 21
527.7010785087
 31
0.0
  0
LINE
  5
17B
330
1F
100
AcDbEntity
  8
0
  6
Continuous
 62
     7
370
    25
100
AcDbLine
 10
344.8360187704
 20
547.9010785087
 30
0.0
 11
348.8360187704
 21
547.9010785087
 31
0.0
  0
LINE
  5
17C
330
1F
100
AcDbEntity
  8
0
  6
Continuous
 62
     7
370
    25
100
AcDbLine
 10
344.8360187704
 20
567.7010785087
 30
0.0
 11
344.8360187704
 21
547.9010785087
 31
0.0
  0
LINE
  5
17D
330
1F
100
AcDbEntity
  8
0
  6
Continuous
 62
     7
370
    25
100
AcDbLine
 10
348.8360187704
 20
567.7010785087
 30
0.0
 11
344.8360187704
 21
567.7010785087
 31
0.0
  0
LINE
  5
17E
330
1F
100
AcDbEntity
  8
0
  6
Continuous
 62
     7
370
    25
100
AcDbLine
 10
355.7360187704
 20
583.6010785087
 30
0.0
 11
355.7360187704
 21
587.7010785087
 31
0.0
  0
LINE
  5
17F
330
1F
100
AcDbEntity
  8
0
  6
Continuous
 62
     7
370
    25
100
AcDbLine
 10
357.2360187704
 20
583.6010785087
 30
0.0
 11
355.7360187704
 21
583.6010785087
 31
0.0
  0
LINE
  5
180
330
1F
100
AcDbEntity
  8
0
  6
Continuous
 62
     7
370
    25
100
AcDbLine
 10
357.2360187704
 20
579.6010785087
 30
0.0
 11
357.2360187704
 21
583.6010785087
 31
0.0
  0
LINE
  5
181
330
1F
100
AcDbEntity
  8
0
  6
Continuous
 62
     7
370
    25
100
AcDbLine
 10
355.8360187704
 20
579.6010785087
 30
0.0
 11
357.2360187704
 21
579.6010785087
 31
0.0
  0
LINE
  5
182
330
1F
100
AcDbEntity
  8
0
  6
Continuous
 62
     7
370
    25
100
AcDbLine
 10
355.8360187704
 20
576.6010785087
 30
0.0
 11
355.8360187704
 21
579.6010785087
 31
0.0
  0
LINE
  5
183
330
1F
100
AcDbEntity
  8
0
  6
Continuous
 62
     7
370
    25
100
AcDbLine
 10
357.2360187704
 20
576.6010785087
 30
0.0
 11
355.8360187704
 21
576.6010785087
 31
0.0
  0
LINE
  5
184
330
1F
100
AcDbEntity
  8
0
  6
Continuous
 62
     7
370
    25
100
AcDbLine
 10
357.2360187704
 20
572.7010785087
 30
0.0
 11
357.2360187704
 21
576.6010785087
 31
0.0
  0
LINE
  5
185
330
1F
100
AcDbEntity
  8
0
  6
Continuous
 62
     7
370
    25
100
AcDbLine
 10
360.4360187704
 20
572.7010785087
 30
0.0
 11
357.2360187704
 21
572.7010785087
 31
0.0
  0
LINE
  5
186
330
1F
100
AcDbEntity
  8
0
  6
Continuous
 62
     7
370
    25
100
AcDbLine
 10
360.4360187704
 20
576.6010785087
 30
0.0
 11
360.4360187704
 21
572.7010785087
 31
0.0
  0
LINE
  5
187
330
1F
100
AcDbEntity
  8
0
  6
Continuous
 62
     7
370
    25
100
AcDbLine
 10
361.8360187704
 20
576.6010785087
 30
0.0
 11
360.4360187704
 21
576.6010785087
 31
0.0
  0
LINE
  5
188
330
1F
100
AcDbEntity
  8
0
  6
Continuous
 62
     7
370
    25
100
AcDbLine
 10
361.8360187704
 20
579.6010785087
 30
0.0
 11
361.8360187704
 21
576.6010785087
 31
0.0
  0
LINE
  5
189
330
1F
100
AcDbEntity
  8
0
  6
Continuous
 62
     7
370
    25
100
AcDbLine
 10
360.4360187704
 20
579.6010785087
 30
0.0
 11
361.8360187704
 21
579.6010785087
 31
0.0
  0
LINE
  5
18A
330
1F
100
AcDbEntity
  8
0
  6
Continuous
 62
     7
370
    25
100
AcDbLine
 10
360.4360187704
 20
583.6010785087
 30
0.0
 11
360.4360187704
 21
579.6010785087
 31
0.0
  0
LINE
  5
18B
330
1F
100
AcDbEntity
  8
0
  6
Continuous
 62
     7
370
    25
100
AcDbLine
 10
361.9360187704
 20
583.6010785087
 30
0.0
 11
360.4360187704
 21
583.6010785087
 31
0.0
  0
LINE
  5
18C
330
1F
100
AcDbEntity
  8
0
  6
Continuous
 62
     7
370
    25
100
AcDbLine
 10
361.9360187704
 20
587.7010785087
 30
0.0
 11
361.9360187704
 21
583.6010785087
 31
0.0
  0
LINE
  5
18D
330
1F
100
AcDbEntity
  8
0
  6
Continuous
 62
     7
370
    25
100
AcDbLine
 10
395.5360187704
 20
583.6010785087
 30
0.0
 11
395.5360187704
 21
587.7010785087
 31
0.0
  0
LINE
  5
18E
330
1F
100
AcDbEntity
  8
0
  6
Continuous
 62
     7
370
    25
100
AcDbLine
 10
397.0360187704
 20
583.6010785087
 30
0.0
 11
395.5360187704
 21
583.6010785087
 31
0.0
  0
LINE
  5
18F
330
1F
100
AcDbEntity
  8
0
  6
Continuous
 62
     7
370
    25
100
AcDbLine
 10
397.0360187704
 20
579.6010785087
 30
0.0
 11
397.0360187704
 21
583.6010785087
 31
0.0
  0
LINE
  5
190
330
1F
100
AcDbEntity
  8
0
  6
Continuous
 62
     7
370
    25
100
AcDbLine
 10
395.6360187704
 20
579.6010785087
 30
0.0
 11
397.0360187704
 21
579.6010785087
 31
0.0
  0
LINE
  5
191
330
1F
100
AcDbEntity
  8
0
  6
Continuous
 62
     7
370
    25
100
AcDbLine
 10
395.6360187704
 20
576.6010785087
 30
0.0
 11
395.6360187704
 21
579.6010785087
 31
0.0
  0
LINE
  5
192
330
1F
100
AcDbEntity
  8
0
  6
Continuous
 62
     7
370
    25
100
AcDbLine
 10
397.0360187704
 20
576.6010785087
 30
0.0
 11
395.6360187704
 21
576.6010785087
 31
0.0
  0
LINE
  5
193
330
1F
100
AcDbEntity
  8
0
  6
Continuous
 62
     7
370
    25
100
AcDbLine
 10
397.0360187704
 20
572.7010785087
 30
0.0
 11
397.0360187704
 21
576.6010785087
 31
0.0
  0
LINE
  5
194
330
1F
100
AcDbEntity
  8
0
  6
Continuous
 62
     7
370
    25
100
AcDbLine
 10
400.2360187704
 20
572.7010785087
 30
0.0
 11
397.0360187704
 21
572.7010785087
 31
0.0
  0
LINE
  5
195
330
1F
100
AcDbEntity
  8
0
  6
Continuous
 62
     7
370
    25
100
AcDbLine
 10
400.2360187704
 20
576.6010785087
 30
0.0
 11
400.2360187704
 21
572.7010785087
 31
0.0
  0
LINE
  5
196
330
1F
100
AcDbEntity
  8
0
  6
Continuous
 62
     7
370
    25
100
AcDbLine
 10
401.6360187704
 20
576.6010785087
 30
0.0
 11
400.2360187704
 21
576.6010785087
 31
0.0
  0
LINE
  5
197
330
1F
100
AcDbEntity
  8
0
  6
Continuous
 62
     7
370
    25
100
AcDbLine
 10
401.6360187704
 20
579.6010785087
 30
0.0
 11
401.6360187704
 21
576.6010785087
 31
0.0
  0
LINE
  5
198
330
1F
100
AcDbEntity
  8
0
  6
Continuous
 62
     7
370
    25
100
AcDbLine
 10
400.2360187704
 20
579.6010785087
 30
0.0
 11
401.6360187704
 21
579.6010785087
 31
0.0
  0
LINE
  5
199
330
1F
100
AcDbEntity
  8
0
  6
Continuous
 62
     7
370
    25
100
AcDbLine
 10
400.2360187704
 20
583.6010785087
 30
0.0
 11
400.2360187704
 21
579.6010785087
 31
0.0
  0
LINE
  5
19A
330
1F
100
AcDbEntity
  8
0
  6
Continuous
 62
     7
370
    25
100
AcDbLine
 10
401.7360187704
 20
583.6010785087
 30
0.0
 11
400.2360187704
 21
583.6010785087
 31
0.0
  0
LINE
  5
19B
330
1F
100
AcDbEntity
  8
0
  6
Continuous
 62
     7
370
    25
100
AcDbLine
 10
401.7360187704
 20
587.7010785087
 30
0.0
 11
401.7360187704
 21
583.6010785087
 31
0.0
  0
LINE
  5
19C
330
1F
100
AcDbEntity
  8
0
  6
Continuous
 62
     7
370
    25
100
AcDbLine
 10
401.7360187704
 20
421.8010785087
 30
0.0
 11
401.7360187704
 21
417.7010785087
 31
0.0
  0
LINE
  5
19D
330
1F
100
AcDbEntity
  8
0
  6
Continuous
 62
     7
370
    25
100
AcDbLine
 10
400.2360187704
 20
421.8010785087
 30
0.0
 11
401.7360187704
 21
421.8010785087
 31
0.0
  0
LINE
  5
19E
330
1F
100
AcDbEntity
  8
0
  6
Continuous
 62
     7
370
    25
100
AcDbLine
 10
400.2360187704
 20
425.8010785087
 30
0.0
 11
400.2360187704
 21
421.8010785087
 31
0.0
  0
LINE
  5
19F
330
1F
100
AcDbEntity
  8
0
  6
Continuous
 62
     7
370
    25
100
AcDbLine
 10
401.6360187704
 20
425.8010785087
 30
0.0
 11
400.2360187704
 21
425.8010785087
 31
0.0
  0
LINE
  5
1A0
330
1F
100
AcDbEntity
  8
0
  6
Continuous
 62
     7
370
    25
100
AcDbLine
 10
401.6360187704
 20
428.8010785087
 30
0.0
 11
401.6360187704
 21
425.8010785087
 31
0.0
  0
LINE
  5
1A1
330
1F
100
AcDbEntity
  8
0
  6
Continuous
 62
     7
370
    25
100
AcDbLine
 10
400.2360187704
 20
428.8010785087
 30
0.0
 11
401.6360187704
 21
428.8010785087
 31
0.0
  0
LINE
  5
1A2
330
1F
100
AcDbEntity
  8
0
  6
Continuous
 62
     7
370
    25
100
AcDbLine
 10
400.2360187704
 20
432.7010785087
 30
0.0
 11
400.2360187704
 21
428.8010785087
 31
0.0
  0
LINE
  5
1A3
330
1F
100
AcDbEntity
  8
0
  6
Continuous
 62
     7
370
    25
100
AcDbLine
 10
397.0360187704
 20
432.7010785087
 30
0.0
 11
400.2360187704
 21
432.7010785087
 31
0.0
  0
LINE
  5
1A4
330
1F
100
AcDbEntity
  8
0
  6
Continuous
 62
     7
370
    25
100
AcDbLine
 10
397.0360187704
 20
428.8010785087
 30
0.0
 11
397.0360187704
 21
432.7010785087
 31
0.0
  0
LINE
  5
1A5
330
1F
100
AcDbEntity
  8
0
  6
Continuous
 62
     7
370
    25
100
AcDbLine
 10
395.6360187704
 20
428.8010785087
 30
0.0
 11
397.0360187704
 21
428.8010785087
 31
0.0
  0
LINE
  5
1A6
330
1F
100
AcDbEntity
  8
0
  6
Continuous
 62
     7
370
    25
100
AcDbLine
 10
395.6360187704
 20
425.8010785087
 30
0.0
 11
395.6360187704
 21
428.8010785087
 31
0.0
  0
LINE
  5
1A7
330
1F
100
AcDbEntity
  8
0
  6
Continuous
 62
     7
370
    25
100
AcDbLine
 10
397.0360187704
 20
425.8010785087
 30
0.0
 11
395.6360187704
 21
425.8010785087
 31
0.0
  0
LINE
  5
1A8
330
1F
100
AcDbEntity
  8
0
  6
Continuous
 62
     7
370
    25
100
AcDbLine
 10
397.0360187704
 20
421.8010785087
 30
0.0
 11
397.0360187704
 21
425.8010785087
 31
0.0
  0
LINE
  5
1A9
330
1F
100
AcDbEntity
  8
0
  6
Continuous
 62
     7
370
    25
100
AcDbLine
 10
395.5360187704
 20
421.8010785087
 30
0.0
 11
397.0360187704
 21
421.8010785087
 31
0.0
  0
LINE
  5
1AA
330
1F
100
AcDbEntity
  8
0
  6
Continuous
 62
     7
370
    25
100
AcDbLine
 10
395.5360187704
 20
417.7010785087
 30
0.0
 11
395.5360187704
 21
421.8010785087
 31
0.0
  0
LINE
  5
1AB
330
1F
100
AcDbEntity
  8
0
  6
Continuous
 62
     7
370
    25
100
AcDbLine
 10
361.9360187704
 20
421.8010785087
 30
0.0
 11
361.9360187704
 21
417.7010785087
 31
0.0
  0
LINE
  5
1AC
330
1F
100
AcDbEntity
  8
0
  6
Continuous
 62
     7
370
    25
100
AcDbLine
 10
373.7360187704
 20
472.7010785087
 30
0.0
 11
383.7360187704
 21
472.7010785087
 31
0.0
  0
ARC
  5
1AD
330
1F
100
AcDbEntity
  8
0
  6
Continuous
 62
     7
370
    25
100
AcDbCircle
 10
383.7360187704
 20
482.7010785087
 30
0.0
 40
10.0
100
AcDbArc
 50
270.0
 51
0.0
  0
LINE
  5
1AE
330
1F
100
AcDbEntity
  8
0
  6
Continuous
 62
     7
370
    25
100
AcDbLine
 10
393.7360187704
 20
482.7010785087
 30
0.0
 11
393.7360187704
 21
522.7010785087
 31
0.0
  0
ARC
  5
1AF
330
1F
100
AcDbEntity
  8
0
  6
Continuous
 62
     7
370
    25
100
AcDbCircle
 10
383.7360187704
 20
522.7010785087
 30
0.0
 40
10.0
100
AcDbArc
 50
0.0
 51
90.0
  0
LINE
  5
1B0
330
1F
100
AcDbEntity
  8
0
  6
Continuous
 62
     7
370
    25
100
AcDbLine
 10
383.7360187704
 20
532.7010785087
 30
0.0
 11
373.7360187704
 21
532.7010785087
 31
0.0
  0
ARC
  5
1B1
330
1F
100
AcDbEntity
  8
0
  6
Continuous
 62
     7
370
    25
100
AcDbCircle
 10
373.7360187704
 20
522.7010785087
 30
0.0
 40
10.0
100
AcDbArc
 50
90.0
 51
180.0
  0
LINE
  5
1B2
330
1F
100
AcDbEntity
  8
0
  6
Continuous
 62
     7
370
    25
100
AcDbLine
 10
363.7360187704
 20
522.7010785087
 30
0.0
 11
363.7360187704
 21
482.7010785087
 31
0.0
  0
ARC
  5
1B3
330
1F
100
AcDbEntity
  8
0
  6
Continuous
 62
     7
370
    25
100
AcDbCircle
 10
373.7360187704
 20
482.7010785087
 30
0.0
 40
10.0
100
AcDbArc
 50
180.0
 51
270.0
  0
LINE
  5
1B4
330
1F
100
AcDbEntity
  8
0
  6
Continuous
 62
     7
370
    25
100
AcDbLine
 10
348.8360187704
 20
417.7010785087
 30
0.0
 11
355.7360187704
 21
417.7010785087
 31
0.0
  0
LINE
  5
1B5
330
1F
100
AcDbEntity
  8
0
  6
Continuous
 62
     7
370
    25
100
AcDbLine
 10
348.8360187704
 20
587.7010785087
 30
0.0
 11
348.8360187704
 21
567.7010785087
 31
0.0
  0
LINE
  5
1B6
330
1F
100
AcDbEntity
  8
0
  6
Continuous
 62
     7
370
    25
100
AcDbLine
 10
368.8360187704
 20
587.7010785087
 30
0.0
 11
361.9360187704
 21
587.7010785087
 31
0.0
  0
LINE
  5
1B7
330
1F
100
AcDbEntity
  8
0
  6
Continuous
 62
     7
370
    25
100
AcDbLine
 10
368.8360187704
 20
591.7010785087
 30
0.0
 11
368.8360187704
 21
587.7010785087
 31
0.0
  0
LINE
  5
1B8
330
1F
100
AcDbEntity
  8
0
  6
Continuous
 62
     7
370
    25
100
AcDbLine
 10
388.6360187704
 20
591.7010785087
 30
0.0
 11
368.8360187704
 21
591.7010785087
 31
0.0
  0
LINE
  5
1B9
330
1F
100
AcDbEntity
  8
0
  6
Continuous
 62
     7
370
    25
100
AcDbLine
 10
388.6360187704
 20
587.7010785087
 30
0.0
 11
388.6360187704
 21
591.7010785087
 31
0.0
  0
LINE
  5
1BA
330
1F
100
AcDbEntity
  8
0
  6
Continuous
 62
     7
370
    25
100
AcDbLine
 10
408.6360187704
 20
587.7010785087
 30
0.0
 11
401.7360187704
 21
587.7010785087
 31
0.0
  0
LINE
  5
1BB
330
1F
100
AcDbEntity
  8
0
  6
Continuous
 62
     7
370
    25
100
AcDbLine
 10
408.6360187704
 20
417.7010785087
 30
0.0
 11
408.6360187704
 21
587.7010785087
 31
0.0
  0
LINE
  5
1BC
330
1F
100
AcDbEntity
  8
0
  6
Continuous
 62
     7
370
    25
100
AcDbLine
 10
401.7360187704
 20
417.7010785087
 30
0.0
 11
408.6360187704
 21
417.7010785087
 31
0.0
  0
LINE
  5
1BD
330
1F
100
AcDbEntity
  8
0
  6
Continuous
 62
     7
370
    25
100
AcDbLine
 10
361.9360187704
 20
417.7010785087
 30
0.0
 11
395.5360187704
 21
417.7010785087
 31
0.0
  0
LINE
  5
1BE
330
1F
100
AcDbEntity
  8
0
  6
Continuous
 62
     7
370
    25
100
AcDbLine
 10
355.7360187704
 20
587.7010785087
 30
0.0
 11
348.8360187704
 21
587.7010785087
 31
0.0
  0
LINE
  5
1BF
330
1F
100
AcDbEntity
  8
0
  6
Continuous
 62
     7
370
    25
100
AcDbLine
 10
395.5360187704
 20
587.7010785087
 30
0.0
 11
388.6360187704
 21
587.7010785087
 31
0.0
  0
LINE
  5
1C0
330
1F
100
AcDbEntity
  8
0
  6
Continuous
 62
     7
370
    25
100
AcDbLine
 10
348.8360187704
 20
547.9010785087
 30
0.0
 11
348.8360187704
 21
527.7010785087
 31
0.0
  0
LINE
  5
1C1
330
1F
100
AcDbEntity
  8
0
  6
Continuous
 62
     7
370
    25
100
AcDbLine
 10
348.8360187704
 20
507.9010785087
 30
0.0
 11
348.8360187704
 21
487.7010785087
 31
0.0
  0
LINE
  5
1C2
330
1F
100
AcDbEntity
  8
0
  6
Continuous
 62
     7
370
    25
100
AcDbLine
 10
348.8360187704
 20
467.9010785087
 30
0.0
 11
348.8360187704
 21
447.7010785087
 31
0.0
  0
LINE
  5
1C3
330
1F
100
AcDbEntity
  8
0
  6
Continuous
 62
     7
370
    25
100
AcDbLine
 10
348.8360187704
 20
427.9010785087
 30
0.0
 11
348.8360187704
 21
417.7010785087
 31
0.0
  0
LINE
  5
1C4
330
1F
100
AcDbEntity
  8
0
  6
Continuous
 62
     7
370
    25
100
AcDbLine
 10
271.7023391277
 20
420.9033363792
 30
0.0
 11
273.2023391277
 21
420.9033363792
 31
0.0
  0
LINE
  5
1C5
330
1F
100
AcDbEntity
  8
0
  6
Continuous
 62
     7
370
    25
100
AcDbLine
 10
271.7023391277
 20
424.9033363792
 30
0.0
 11
271.7023391277
 21
420.9033363792
 31
0.0
  0
LINE
  5
1C6
330
1F
100
AcDbEntity
  8
0
  6
Continuous
 62
     7
370
    25
100
AcDbLine
 10
273.1023391277
 20
424.9033363792
 30
0.0
 11
271.7023391277
 21
424.9033363792
 31
0.0
  0
LINE
  5
1C7
330
1F
100
AcDbEntity
  8
0
  6
Continuous
 62
     7
370
    25
100
AcDbLine
 10
273.1023391277
 20
427.9033363792
 30
0.0
 11
273.1023391277
 21
424.9033363792
 31
0.0
  0
LINE
  5
1C8
330
1F
100
AcDbEntity
  8
0
  6
Continuous
 62
     7
370
    25
100
AcDbLine
 10
271.7023391277
 20
427.9033363792
 30
0.0
 11
273.1023391277
 21
427.9033363792
 31
0.0
  0
LINE
  5
1C9
330
1F
100
AcDbEntity
  8
0
  6
Continuous
 62
     7
370
    25
100
AcDbLine
 10
271.7023391277
 20
431.8033363792
 30
0.0
 11
271.7023391277
 21
427.9033363792
 31
0.0
  0
LINE
  5
1CA
330
1F
100
AcDbEntity
  8
0
  6
Continuous
 62
     7
370
    25
100
AcDbLine
 10
268.5023391277
 20
431.8033363792
 30
0.0
 11
271.7023391277
 21
431.8033363792
 31
0.0
  0
LINE
  5
1CB
330
1F
100
AcDbEntity
  8
0
  6
Continuous
 62
     7
370
    25
100
AcDbLine
 10
268.5023391277
 20
427.9033363792
 30
0.0
 11
268.5023391277
 21
431.8033363792
 31
0.0
  0
LINE
  5
1CC
330
1F
100
AcDbEntity
  8
0
  6
Continuous
 62
     7
370
    25
100
AcDbLine
 10
267.1023391277
 20
427.9033363792
 30
0.0
 11
268.5023391277
 21
427.9033363792
 31
0.0
  0
LINE
  5
1CD
330
1F
100
AcDbEntity
  8
0
  6
Continuous
 62
     7
370
    25
100
AcDbLine
 10
267.1023391277
 20
424.9033363792
 30
0.0
 11
267.1023391277
 21
427.9033363792
 31
0.0
  0
LINE
  5
1CE
330
1F
100
AcDbEntity
  8
0
  6
Continuous
 62
     7
370
    25
100
AcDbLine
 10
268.5023391277
 20
424.9033363792
 30
0.0
 11
267.1023391277
 21
424.9033363792
 31
0.0
  0
LINE
  5
1CF
330
1F
100
AcDbEntity
  8
0
  6
Continuous
 62
     7
370
    25
100
AcDbLine
 10
268.5023391277
 20
420.9033363792
 30
0.0
 11
268.5023391277
 21
424.9033363792
 31
0.0
  0
LINE
  5
1D0
330
1F
100
AcDbEntity
  8
0
  6
Continuous
 62
     7
370
    25
100
AcDbLine
 10
267.0023391277
 20
420.9033363792
 30
0.0
 11
268.5023391277
 21
420.9033363792
 31
0.0
  0
LINE
  5
1D1
330
1F
100
AcDbEntity
  8
0
  6
Continuous
 62
     7
370
    25
100
AcDbLine
 10
267.0023391277
 20
416.8033363792
 30
0.0
 11
267.0023391277
 21
420.9033363792
 31
0.0
  0
LINE
  5
1D2
330
1F
100
AcDbEntity
  8
0
  6
Continuous
 62
     7
370
    25
100
AcDbLine
 10
267.0023391277
 20
582.7033363792
 30
0.0
 11
267.0023391277
 21
586.8033363792
 31
0.0
  0
LINE
  5
1D3
330
1F
100
AcDbEntity
  8
0
  6
Continuous
 62
     7
370
    25
100
AcDbLine
 10
268.5023391277
 20
582.7033363792
 30
0.0
 11
267.0023391277
 21
582.7033363792
 31
0.0
  0
LINE
  5
1D4
330
1F
100
AcDbEntity
  8
0
  6
Continuous
 62
     7
370
    25
100
AcDbLine
 10
268.5023391277
 20
578.7033363792
 30
0.0
 11
268.5023391277
 21
582.7033363792
 31
0.0
  0
LINE
  5
1D5
330
1F
100
AcDbEntity
  8
0
  6
Continuous
 62
     7
370
    25
100
AcDbLine
 10
267.1023391277
 20
578.7033363792
 30
0.0
 11
268.5023391277
 21
578.7033363792
 31
0.0
  0
LINE
  5
1D6
330
1F
100
AcDbEntity
  8
0
  6
Continuous
 62
     7
370
    25
100
AcDbLine
 10
267.1023391277
 20
575.7033363792
 30
0.0
 11
267.1023391277
 21
578.7033363792
 31
0.0
  0
LINE
  5
1D7
330
1F
100
AcDbEntity
  8
0
  6
Continuous
 62
     7
370
    25
100
AcDbLine
 10
268.5023391277
 20
575.7033363792
 30
0.0
 11
267.1023391277
 21
575.7033363792
 31
0.0
  0
LINE
  5
1D8
330
1F
100
AcDbEntity
  8
0
  6
Continuous
 62
     7
370
    25
100
AcDbLine
 10
268.5023391277
 20
571.8033363792
 30
0.0
 11
268.5023391277
 21
575.7033363792
 31
0.0
  0
LINE
  5
1D9
330
1F
100
AcDbEntity
  8
0
  6
Continuous
 62
     7
370
    25
100
AcDbLine
 10
271.7023391277
 20
571.8033363792
 30
0.0
 11
268.5023391277
 21
571.8033363792
 31
0.0
  0
LINE
  5
1DA
330
1F
100
AcDbEntity
  8
0
  6
Continuous
 62
     7
370
    25
100
AcDbLine
 10
271.7023391277
 20
575.7033363792
 30
0.0
 11
271.7023391277
 21
571.8033363792
 31
0.0
  0
LINE
  5
1DB
330
1F
100
AcDbEntity
  8
0
  6
Continuous
 62
     7
370
    25
100
AcDbLine
 10
273.1023391277
 20
575.7033363792
 30
0.0
 11
271.7023391277
 21
575.7033363792
 31
0.0
  0
LINE
  5
1DC
330
1F
100
AcDbEntity
  8
0
  6
Continuous
 62
     7
370
    25
100
AcDbLine
 10
273.1023391277
 20
578.7033363792
 30
0.0
 11
273.1023391277
 21
575.7033363792
 31
0.0
  0
LINE
  5
1DD
330
1F
100
AcDbEntity
  8
0
  6
Continuous
 62
     7
370
    25
100
AcDbLine
 10
271.7023391277
 20
578.7033363792
 30
0.0
 11
273.1023391277
 21
578.7033363792
 31
0.0
  0
LINE
  5
1DE
330
1F
100
AcDbEntity
  8
0
  6
Continuous
 62
     7
370
    25
100
AcDbLine
 10
271.7023391277
 20
582.7033363792
 30
0.0
 11
271.7023391277
 21
578.7033363792
 31
0.0
  0
LINE
  5
1DF
330
1F
100
AcDbEntity
  8
0
  6
Continuous
 62
     7
370
    25
100
AcDbLine
 10
273.2023391277
 20
582.7033363792
 30
0.0
 11
271.7023391277
 21
582.7033363792
 31
0.0
  0
LINE
  5
1E0
330
1F
100
AcDbEntity
  8
0
  6
Continuous
 62
     7
370
    25
100
AcDbLine
 10
273.2023391277
 20
586.8033363792
 30
0.0
 11
273.2023391277
 21
582.7033363792
 31
0.0
  0
LINE
  5
1E1
330
1F
100
AcDbEntity
  8
0
  6
Continuous
 62
     7
370
    25
100
AcDbLine
 10
311.8023391277
 20
582.7033363792
 30
0.0
 11
311.8023391277
 21
586.8033363792
 31
0.0
  0
LINE
  5
1E2
330
1F
100
AcDbEntity
  8
0
  6
Continuous
 62
     7
370
    25
100
AcDbLine
 10
313.3023391277
 20
582.7033363792
 30
0.0
 11
311.8023391277
 21
582.7033363792
 31
0.0
  0
LINE
  5
1E3
330
1F
100
AcDbEntity
  8
0
  6
Continuous
 62
     7
370
    25
100
AcDbLine
 10
313.3023391277
 20
578.7033363792
 30
0.0
 11
313.3023391277
 21
582.7033363792
 31
0.0
  0
LINE
  5
1E4
330
1F
100
AcDbEntity
  8
0
  6
Continuous
 62
     7
370
    25
100
AcDbLine
 10
311.9023391277
 20
578.7033363792
 30
0.0
 11
313.3023391277
 21
578.7033363792
 31
0.0
  0
LINE
  5
1E5
330
1F
100
AcDbEntity
  8
0
  6
Continuous
 62
     7
370
    25
100
AcDbLine
 10
311.9023391277
 20
575.7033363792
 30
0.0
 11
311.9023391277
 21
578.7033363792
 31
0.0
  0
LINE
  5
1E6
330
1F
100
AcDbEntity
  8
0
  6
Continuous
 62
     7
370
    25
100
AcDbLine
 10
313.3023391277
 20
575.7033363792
 30
0.0
 11
311.9023391277
 21
575.7033363792
 31
0.0
  0
LINE
  5
1E7
330
1F
100
AcDbEntity
  8
0
  6
Continuous
 62
     7
370
    25
100
AcDbLine
 10
313.3023391277
 20
571.8033363792
 30
0.0
 11
313.3023391277
 21
575.7033363792
 31
0.0
  0
LINE
  5
1E8
330
1F
100
AcDbEntity
  8
0
  6
Continuous
 62
     7
370
    25
100
AcDbLine
 10
316.5023391277
 20
571.8033363792
 30
0.0
 11
313.3023391277
 21
571.8033363792
 31
0.0
  0
LINE
  5
1E9
330
1F
100
AcDbEntity
  8
0
  6
Continuous
 62
     7
370
    25
100
AcDbLine
 10
316.5023391277
 20
575.7033363792
 30
0.0
 11
316.5023391277
 21
571.8033363792
 31
0.0
  0
LINE
  5
1EA
330
1F
100
AcDbEntity
  8
0
  6
Continuous
 62
     7
370
    25
100
AcDbLine
 10
317.9023391277
 20
575.7033363792
 30
0.0
 11
316.5023391277
 21
575.7033363792
 31
0.0
  0
LINE
  5
1EB
330
1F
100
AcDbEntity
  8
0
  6
Continuous
 62
     7
370
    25
100
AcDbLine
 10
317.9023391277
 20
578.7033363792
 30
0.0
 11
317.9023391277
 21
575.7033363792
 31
0.0
  0
LINE
  5
1EC
330
1F
100
AcDbEntity
  8
0
  6
Continuous
 62
     7
370
    25
100
AcDbLine
 10
316.5023391277
 20
578.7033363792
 30
0.0
 11
317.9023391277
 21
578.7033363792
 31
0.0
  0
LINE
  5
1ED
330
1F
100
AcDbEntity
  8
0
  6
Continuous
 62
     7
370
    25
100
AcDbLine
 10
316.5023391277
 20
582.7033363792
 30
0.0
 11
316.5023391277
 21
578.7033363792
 31
0.0
  0
LINE
  5
1EE
330
1F
100
AcDbEntity
  8
0
  6
Continuous
 62
     7
370
    25
100
AcDbLine
 10
318.0023391277
 20
582.7033363792
 30
0.0
 11
316.5023391277
 21
582.7033363792
 31
0.0
  0
LINE
  5
1EF
330
1F
100
AcDbEntity
  8
0
  6
Continuous
 62
     7
370
    25
100
AcDbLine
 10
318.0023391277
 20
586.8033363792
 30
0.0
 11
318.0023391277
 21
582.7033363792
 31
0.0
  0
LINE
  5
1F0
330
1F
100
AcDbEntity
  8
0
  6
Continuous
 62
     7
370
    25
100
AcDbLine
 10
331.4023391277
 20
586.8033363792
 30
0.0
 11
331.4023391277
 21
567.0033363792
 31
0.0
  0
LINE
  5
1F1
330
1F
100
AcDbEntity
  8
0
  6
Continuous
 62
     7
370
    25
100
AcDbLine
 10
331.4023391277
 20
567.0033363792
 30
0.0
 11
327.4023391277
 21
567.0033363792
 31
0.0
  0
LINE
  5
1F2
330
1F
100
AcDbEntity
  8
0
  6
Continuous
 62
     7
370
    25
100
AcDbLine
 10
327.4023391277
 20
546.8033363792
 30
0.0
 11
331.4023391277
 21
546.8033363792
 31
0.0
  0
LINE
  5
1F3
330
1F
100
AcDbEntity
  8
0
  6
Continuous
 62
     7
370
    25
100
AcDbLine
 10
331.4023391277
 20
546.8033363792
 30
0.0
 11
331.4023391277
 21
527.0033363792
 31
0.0
  0
LINE
  5
1F4
330
1F
100
AcDbEntity
  8
0
  6
Continuous
 62
     7
370
    25
100
AcDbLine
 10
331.4023391277
 20
527.0033363792
 30
0.0
 11
327.4023391277
 21
527.0033363792
 31
0.0
  0
LINE
  5
1F5
330
1F
100
AcDbEntity
  8
0
  6
Continuous
 62
     7
370
    25
100
AcDbLine
 10
327.4023391277
 20
506.8033363792
 30
0.0
 11
331.4023391277
 21
506.8033363792
 31
0.0
  0
LINE
  5
1F6
330
1F
100
AcDbEntity
  8
0
  6
Continuous
 62
     7
370
    25
100
AcDbLine
 10
331.4023391277
 20
506.8033363792
 30
0.0
 11
331.4023391277
 21
487.0033363792
 31
0.0
  0
LINE
  5
1F7
330
1F
100
AcDbEntity
  8
0
  6
Continuous
 62
     7
370
    25
100
AcDbLine
 10
331.4023391277
 20
487.0033363792
 30
0.0
 11
327.4023391277
 21
487.0033363792
 31
0.0
  0
LINE
  5
1F8
330
1F
100
AcDbEntity
  8
0
  6
Continuous
 62
     7
370
    25
100
AcDbLine
 10
327.4023391277
 20
466.8033363792
 30
0.0
 11
331.4023391277
 21
466.8033363792
 31
0.0
  0
LINE
  5
1F9
330
1F
100
AcDbEntity
  8
0
  6
Continuous
 62
     7
370
    25
100
AcDbLine
 10
331.4023391277
 20
466.8033363792
 30
0.0
 11
331.4023391277
 21
447.0033363792
 31
0.0
  0
LINE
  5
1FA
330
1F
100
AcDbEntity
  8
0
  6
Continuous
 62
     7
370
    25
100
AcDbLine
 10
331.4023391277
 20
447.0033363792
 30
0.0
 11
327.4023391277
 21
447.0033363792
 31
0.0
  0
LINE
  5
1FB
330
1F
100
AcDbEntity
  8
0
  6
Continuous
 62
     7
370
    25
100
AcDbLine
 10
327.4023391277
 20
426.8033363792
 30
0.0
 11
331.4023391277
 21
426.8033363792
 31
0.0
  0
LINE
  5
1FC
330
1F
100
AcDbEntity
  8
0
  6
Continuous
 62
     7
370
    25
100
AcDbLine
 10
331.4023391277
 20
426.8033363792
 30
0.0
 11
331.4023391277
 21
416.8033363792
 31
0.0
  0
LINE
  5
1FD
330
1F
100
AcDbEntity
  8
0
  6
Continuous
 62
     7
370
    25
100
AcDbLine
 10
318.0023391277
 20
420.9033363792
 30
0.0
 11
318.0023391277
 21
416.8033363792
 31
0.0
  0
LINE
  5
1FE
330
1F
100
AcDbEntity
  8
0
  6
Continuous
 62
     7
370
    25
100
AcDbLine
 10
316.5023391277
 20
420.9033363792
 30
0.0
 11
318.0023391277
 21
420.9033363792
 31
0.0
  0
LINE
  5
1FF
330
1F
100
AcDbEntity
  8
0
  6
Continuous
 62
     7
370
    25
100
AcDbLine
 10
316.5023391277
 20
424.9033363792
 30
0.0
 11
316.5023391277
 21
420.9033363792
 31
0.0
  0
LINE
  5
200
330
1F
100
AcDbEntity
  8
0
  6
Continuous
 62
     7
370
    25
100
AcDbLine
 10
317.9023391277
 20
424.9033363792
 30
0.0
 11
316.5023391277
 21
424.9033363792
 31
0.0
  0
LINE
  5
201
330
1F
100
AcDbEntity
  8
0
  6
Continuous
 62
     7
370
    25
100
AcDbLine
 10
317.9023391277
 20
427.9033363792
 30
0.0
 11
317.9023391277
 21
424.9033363792
 31
0.0
  0
LINE
  5
202
330
1F
100
AcDbEntity
  8
0
  6
Continuous
 62
     7
370
    25
100
AcDbLine
 10
316.5023391277
 20
427.9033363792
 30
0.0
 11
317.9023391277
 21
427.9033363792
 31
0.0
  0
LINE
  5
203
330
1F
100
AcDbEntity
  8
0
  6
Continuous
 62
     7
370
    25
100
AcDbLine
 10
316.5023391277
 20
431.8033363792
 30
0.0
 11
316.5023391277
 21
427.9033363792
 31
0.0
  0
LINE
  5
204
330
1F
100
AcDbEntity
  8
0
  6
Continuous
 62
     7
370
    25
100
AcDbLine
 10
313.3023391277
 20
431.8033363792
 30
0.0
 11
316.5023391277
 21
431.8033363792
 31
0.0
  0
LINE
  5
205
330
1F
100
AcDbEntity
  8
0
  6
Continuous
 62
     7
370
    25
100
AcDbLine
 10
313.3023391277
 20
427.9033363792
 30
0.0
 11
313.3023391277
 21
431.8033363792
 31
0.0
  0
LINE
  5
206
330
1F
100
AcDbEntity
  8
0
  6
Continuous
 62
     7
370
    25
100
AcDbLine
 10
311.9023391277
 20
427.9033363792
 30
0.0
 11
313.3023391277
 21
427.9033363792
 31
0.0
  0
LINE
  5
207
330
1F
100
AcDbEntity
  8
0
  6
Continuous
 62
     7
370
    25
100
AcDbLine
 10
311.9023391277
 20
424.9033363792
 30
0.0
 11
311.9023391277
 21
427.9033363792
 31
0.0
  0
LINE
  5
208
330
1F
100
AcDbEntity
  8
0
  6
Continuous
 62
     7
370
    25
100
AcDbLine
 10
313.3023391277
 20
424.9033363792
 30
0.0
 11
311.9023391277
 21
424.9033363792
 31
0.0
  0
LINE
  5
209
330
1F
100
AcDbEntity
  8
0
  6
Continuous
 62
     7
370
    25
100
AcDbLine
 10
313.3023391277
 20
420.9033363792
 30
0.0
 11
313.3023391277
 21
424.9033363792
 31
0.0
  0
LINE
  5
20A
330
1F
100
AcDbEntity
  8
0
  6
Continuous
 62
     7
370
    25
100
AcDbLine
 10
311.8023391277
 20
420.9033363792
 30
0.0
 11
313.3023391277
 21
420.9033363792
 31
0.0
  0
LINE
  5
20B
330
1F
100
AcDbEntity
  8
0
  6
Continuous
 62
     7
370
    25
100
AcDbLine
 10
311.8023391277
 20
416.8033363792
 30
0.0
 11
311.8023391277
 21
420.9033363792
 31
0.0
  0
LINE
  5
20C
330
1F
100
AcDbEntity
  8
0
  6
Continuous
 62
     7
370
    25
100
AcDbLine
 10
273.2023391277
 20
420.9033363792
 30
0.0
 11
273.2023391277
 21
416.8033363792
 31
0.0
  0
LINE
  5
20D
330
1F
100
AcDbEntity
  8
0
  6
Continuous
 62
     7
370
    25
100
AcDbLine
 10
310.0023391277
 20
516.8033363792
 30
0.0
 11
310.0023391277
 21
486.8033363792
 31
0.0
  0
ARC
  5
20E
330
1F
100
AcDbEntity
  8
0
  6
Continuous
 62
     7
370
    25
100
AcDbCircle
 10
300.0023391277
 20
516.8033363792
 30
0.0
 40
10.00000000000011
100
AcDbArc
 50
0.0
 51
90.0
  0
LINE
  5
20F
330
1F
100
AcDbEntity
  8
0
  6
Continuous
 62
     7
370
    25
100
AcDbLine
 10
285.0023391277
 20
526.8033363792
 30
0.0
 11
300.0023391277
 21
526.8033363792
 31
0.0
  0
ARC
  5
210
330
1F
100
AcDbEntity
  8
0
  6
Continuous
 62
     7
370
    25
100
AcDbCircle
 10
285.0023391277
 20
516.8033363792
 30
0.0
 40
10.00000000000011
100
AcDbArc
 50
90.0
 51
180.0
  0
LINE
  5
211
330
1F
100
AcDbEntity
  8
0
  6
Continuous
 62
     7
370
    25
100
AcDbLine
 10
275.0023391277
 20
486.8033363792
 30
0.0
 11
275.0023391277
 21
516.8033363792
 31
0.0
  0
ARC
  5
212
330
1F
100
AcDbEntity
  8
0
  6
Continuous
 62
     7
370
    25
100
AcDbCircle
 10
285.0023391277
 20
486.8033363792
 30
0.0
 40
10.00000000000006
100
AcDbArc
 50
180.0
 51
270.0
  0
LINE
  5
213
330
1F
100
AcDbEntity
  8
0
  6
Continuous
 62
     7
370
    25
100
AcDbLine
 10
300.0023391277
 20
476.8033363792
 30
0.0
 11
285.0023391277
 21
476.8033363792
 31
0.0
  0
ARC
  5
214
330
1F
100
AcDbEntity
  8
0
  6
Continuous
 62
     7
370
    25
100
AcDbCircle
 10
300.0023391277
 20
486.8033363792
 30
0.0
 40
10.00000000000006
100
AcDbArc
 50
270.0
 51
0.0
  0
LINE
  5
215
330
1F
100
AcDbEntity
  8
0
  6
Continuous
 62
     7
370
    25
100
AcDbLine
 10
257.6023391277
 20
416.8033363792
 30
0.0
 11
267.0023391277
 21
416.8033363792
 31
0.0
  0
LINE
  5
216
330
1F
100
AcDbEntity
  8
0
  6
Continuous
 62
     7
370
    25
100
AcDbLine
 10
257.6023391277
 20
586.8033363792
 30
0.0
 11
257.6023391277
 21
416.8033363792
 31
0.0
  0
LINE
  5
217
330
1F
100
AcDbEntity
  8
0
  6
Continuous
 62
     7
370
    25
100
AcDbLine
 10
282.6023391277
 20
586.8033363792
 30
0.0
 11
273.2023391277
 21
586.8033363792
 31
0.0
  0
LINE
  5
218
330
1F
100
AcDbEntity
  8
0
  6
Continuous
 62
     7
370
    25
100
AcDbLine
 10
282.6023391277
 20
590.8033363792
 30
0.0
 11
282.6023391277
 21
586.8033363792
 31
0.0
  0
LINE
  5
219
330
1F
100
AcDbEntity
  8
0
  6
Continuous
 62
     7
370
    25
100
AcDbLine
 10
302.4023391277
 20
590.8033363792
 30
0.0
 11
282.6023391277
 21
590.8033363792
 31
0.0
  0
LINE
  5
21A
330
1F
100
AcDbEntity
  8
0
  6
Continuous
 62
     7
370
    25
100
AcDbLine
 10
302.4023391277
 20
586.8033363792
 30
0.0
 11
302.4023391277
 21
590.8033363792
 31
0.0
  0
LINE
  5
21B
330
1F
100
AcDbEntity
  8
0
  6
Continuous
 62
     7
370
    25
100
AcDbLine
 10
331.4023391277
 20
586.8033363792
 30
0.0
 11
318.0023391277
 21
586.8033363792
 31
0.0
  0
LINE
  5
21C
330
1F
100
AcDbEntity
  8
0
  6
Continuous
 62
     7
370
    25
100
AcDbLine
 10
318.0023391277
 20
416.8033363792
 30
0.0
 11
331.4023391277
 21
416.8033363792
 31
0.0
  0
LINE
  5
21D
330
1F
100
AcDbEntity
  8
0
  6
Continuous
 62
     7
370
    25
100
AcDbLine
 10
273.2023391277
 20
416.8033363792
 30
0.0
 11
311.8023391277
 21
416.8033363792
 31
0.0
  0
LINE
  5
21E
330
1F
100
AcDbEntity
  8
0
  6
Continuous
 62
     7
370
    25
100
AcDbLine
 10
267.0023391277
 20
586.8033363792
 30
0.0
 11
257.6023391277
 21
586.8033363792
 31
0.0
  0
LINE
  5
21F
330
1F
100
AcDbEntity
  8
0
  6
Continuous
 62
     7
370
    25
100
AcDbLine
 10
311.8023391277
 20
586.8033363792
 30
0.0
 11
302.4023391277
 21
586.8033363792
 31
0.0
  0
LINE
  5
220
330
1F
100
AcDbEntity
  8
0
  6
Continuous
 62
     7
370
    25
100
AcDbLine
 10
327.4023391277
 20
426.8033363792
 30
0.0
 11
327.4023391277
 21
447.0033363792
 31
0.0
  0
LINE
  5
221
330
1F
100
AcDbEntity
  8
0
  6
Continuous
 62
     7
370
    25
100
AcDbLine
 10
327.4023391277
 20
546.8033363792
 30
0.0
 11
327.4023391277
 21
567.0033363792
 31
0.0
  0
LINE
  5
222
330
1F
100
AcDbEntity
  8
0
  6
Continuous
 62
     7
370
    25
100
AcDbLine
 10
327.4023391277
 20
506.8033363792
 30
0.0
 11
327.4023391277
 21
527.0033363792
 31
0.0
  0
LINE
  5
223
330
1F
100
AcDbEntity
  8
0
  6
Continuous
 62
     7
370
    25
100
AcDbLine
 10
327.4023391277
 20
466.8033363792
 30
0.0
 11
327.4023391277
 21
487.0033363792
 31
0.0
  0
CIRCLE
  5
224
330
1F
100
AcDbEntity
  8
0
  6
Continuous
 62
     7
370
    25
100
AcDbCircle
 10
318.9441942628
 20
340.5997235516
 30
0.0
 40
1.599999999999966
  0
CIRCLE
  5
225
330
1F
100
AcDbEntity
  8
0
  6
Continuous
 62
     7
370
    25
100
AcDbCircle
 10
269.5441942669
 20
340.5997235516
 30
0.0
 40
1.599999999999966
  0
CIRCLE
  5
226
330
1F
100
AcDbEntity
  8
0
  6
Continuous
 62
     7
370
    25
100
AcDbCircle
 10
259.5441942628
 20
392.6039423153
 30
0.0
 40
1.599999999999966
  0
CIRCLE
  5
227
330
1F
100
AcDbEntity
  8
0
  6
Continuous
 62
     7
370
    25
100
AcDbCircle
 10
259.5441942628
 20
348.6039423153
 30
0.0
 40
1.599999999999966
  0
LINE
  5
228
330
1F
100
AcDbEntity
  8
0
  6
Continuous
 62
     7
370
    25
100
AcDbLine
 10
330.9441942669
 20
402.6039423153
 30
0.0
 11
319.2441942669
 21
402.6039423153
 31
0.0
  0
LINE
  5
229
330
1F
100
AcDbEntity
  8
0
  6
Continuous
 62
     7
370
    25
100
AcDbLine
 10
330.9441942669
 20
338.6039423153
 30
0.0
 11
330.9441942669
 21
402.6039423153
 31
0.0
  0
LINE
  5
22A
330
1F
100
AcDbEntity
  8
0
  6
Continuous
 62
     7
370
    25
100
AcDbLine
 10
322.4107281595
 20
338.6039423153
 30
0.0
 11
330.9441942669
 21
338.6039423153
 31
0.0
  0
ARC
  5
22B
330
1F
100
AcDbEntity
  8
0
  6
Continuous
 62
     7
370
    25
100
AcDbCircle
 10
318.9441942628
 20
340.5997235516
 30
0.0
 40
4.000000000000028
100
AcDbArc
 50
209.9302467065
 51
330.0697532935
  0
LINE
  5
22C
330
1F
100
AcDbEntity
  8
0
  6
Continuous
 62
     7
370
    25
100
AcDbLine
 10
273.0107281636
 20
338.6039423153
 30
0.0
 11
315.4776603661
 21
338.6039423153
 31
0.0
  0
ARC
  5
22D
330
1F
100
AcDbEntity
  8
0
  6
Continuous
 62
     7
370
    25
100
AcDbCircle
 10
269.5441942669
 20
340.5997235516
 30
0.0
 40
4.000000000000078
100
AcDbArc
 50
209.9302467065
 51
330.0697532935
  0
LINE
  5
22E
330
1F
100
AcDbEntity
  8
0
  6
Continuous
 62
     7
370
    25
100
AcDbLine
 10
257.5441942628
 20
338.6039423153
 30
0.0
 11
266.0776603702
 21
338.6039423153
 31
0.0
  0
LINE
  5
22F
330
1F
100
AcDbEntity
  8
0
  6
Continuous
 62
     7
370
    25
100
AcDbLine
 10
257.5441942628
 20
345.1398407002
 30
0.0
 11
257.5441942628
 21
338.6039423153
 31
0.0
  0
ARC
  5
230
330
1F
100
AcDbEntity
  8
0
  6
Continuous
 62
     7
370
    25
100
AcDbCircle
 10
259.5441942628
 20
348.6039423153
 30
0.0
 40
4.000000000000033
100
AcDbArc
 50
120.0
 51
240.0
  0
LINE
  5
231
330
1F
100
AcDbEntity
  8
0
  6
Continuous
 62
     7
370
    25
100
AcDbLine
 10
257.5441942628
 20
389.1398407002
 30
0.0
 11
257.5441942628
 21
352.0680439304
 31
0.0
  0
ARC
  5
232
330
1F
100
AcDbEntity
  8
0
  6
Continuous
 62
     7
370
    25
100
AcDbCircle
 10
259.5441942628
 20
392.6039423153
 30
0.0
 40
3.999999999999984
100
AcDbArc
 50
120.0
 51
240.0
  0
LINE
  5
233
330
1F
100
AcDbEntity
  8
0
  6
Continuous
 62
     7
370
    25
100
AcDbLine
 10
257.5441942628
 20
402.6039423153
 30
0.0
 11
257.5441942628
 21
396.0680439305
 31
0.0
  0
LINE
  5
234
330
1F
100
AcDbEntity
  8
0
  6
Continuous
 62
     7
370
    25
100
AcDbLine
 10
269.2441942669
 20
402.6039423153
 30
0.0
 11
257.5441942628
 21
402.6039423153
 31
0.0
  0
LINE
  5
235
330
1F
100
AcDbEntity
  8
0
  6
Continuous
 62
     7
370
    25
100
AcDbLine
 10
269.2441942669
 20
402.6039423153
 30
0.0
 11
269.2441942669
 21
406.6039423153
 31
0.0
  0
LINE
  5
236
330
1F
100
AcDbEntity
  8
0
  6
Continuous
 62
     7
370
    25
100
AcDbLine
 10
269.2441942669
 20
406.6039423153
 30
0.0
 11
279.2441942669
 21
406.6039423153
 31
0.0
  0
LINE
  5
237
330
1F
100
AcDbEntity
  8
0
  6
Continuous
 62
     7
370
    25
100
AcDbLine
 10
279.2441942669
 20
406.6039423153
 30
0.0
 11
279.2441942669
 21
402.6039423153
 31
0.0
  0
LINE
  5
238
330
1F
100
AcDbEntity
  8
0
  6
Continuous
 62
     7
370
    25
100
AcDbLine
 10
289.2441942669
 20
402.6039423153
 30
0.0
 11
279.2441942669
 21
402.6039423153
 31
0.0
  0
LINE
  5
239
330
1F
100
AcDbEntity
  8
0
  6
Continuous
 62
     7
370
    25
100
AcDbLine
 10
289.2441942669
 20
402.6039423153
 30
0.0
 11
289.2441942669
 21
406.6039423153
 31
0.0
  0
LINE
  5
23A
330
1F
100
AcDbEntity
  8
0
  6
Continuous
 62
     7
370
    25
100
AcDbLine
 10
289.2441942669
 20
406.6039423153
 30
0.0
 11
299.2441942669
 21
406.6039423153
 31
0.0
  0
LINE
  5
23B
330
1F
100
AcDbEntity
  8
0
  6
Continuous
 62
     7
370
    25
100
AcDbLine
 10
299.2441942669
 20
406.6039423153
 30
0.0
 11
299.2441942669
 21
402.6039423153
 31
0.0
  0
LINE
  5
23C
330
1F
100
AcDbEntity
  8
0
  6
Continuous
 62
     7
370
    25
100
AcDbLine
 10
309.2441942669
 20
402.6039423153
 30
0.0
 11
299.2441942669
 21
402.6039423153
 31
0.0
  0
LINE
  5
23D
330
1F
100
AcDbEntity
  8
0
  6
Continuous
 62
     7
370
    25
100
AcDbLine
 10
309.2441942669
 20
406.6039423153
 30
0.0
 11
319.2441942669
 21
406.6039423153
 31
0.0
  0
LINE
  5
23E
330
1F
100
AcDbEntity
  8
0
  6
Continuous
 62
     7
370
    25
100
AcDbLine
 10
309.2441942669
 20
402.6039423153
 30
0.0
 11
309.2441942669
 21
406.6039423153
 31
0.0
  0
LINE
  5
23F
330
1F
100
AcDbEntity
  8
0
  6
Continuous
 62
     7
370
    25
100
AcDbLine
 10
319.2441942669
 20
406.6039423153
 30
0.0
 11
319.2441942669
 21
402.6039423153
 31
0.0
  0
LINE
  5
240
330
1F
100
AcDbEntity
  8
0
  6
Continuous
 62
     7
370
    25
100
AcDbLine
 10
125.7345091479
 20
236.9070407366
 30
0.0
 11
125.7345091479
 21
241.0070407366
 31
0.0
  0
LINE
  5
241
330
1F
100
AcDbEntity
  8
0
  6
Continuous
 62
     7
370
    25
100
AcDbLine
 10
125.7345091479
 20
241.0070407366
 30
0.0
 11
124.2345091479
 21
241.0070407366
 31
0.0
  0
LINE
  5
242
330
1F
100
AcDbEntity
  8
0
  6
Continuous
 62
     7
370
    25
100
AcDbLine
 10
124.2345091479
 20
241.0070407366
 30
0.0
 11
124.2345091479
 21
245.0070407366
 31
0.0
  0
LINE
  5
243
330
1F
100
AcDbEntity
  8
0
  6
Continuous
 62
     7
370
    25
100
AcDbLine
 10
124.2345091479
 20
245.0070407366
 30
0.0
 11
125.6345091479
 21
245.0070407366
 31
0.0
  0
LINE
  5
244
330
1F
100
AcDbEntity
  8
0
  6
Continuous
 62
     7
370
    25
100
AcDbLine
 10
125.6345091479
 20
245.0070407366
 30
0.0
 11
125.6345091479
 21
248.0070407366
 31
0.0
  0
LINE
  5
245
330
1F
100
AcDbEntity
  8
0
  6
Continuous
 62
     7
370
    25
100
AcDbLine
 10
125.6345091479
 20
248.0070407366
 30
0.0
 11
124.2345091479
 21
248.0070407366
 31
0.0
  0
LINE
  5
246
330
1F
100
AcDbEntity
  8
0
  6
Continuous
 62
     7
370
    25
100
AcDbLine
 10
124.2345091479
 20
248.0070407366
 30
0.0
 11
124.2345091479
 21
251.9070407366
 31
0.0
  0
LINE
  5
247
330
1F
100
AcDbEntity
  8
0
  6
Continuous
 62
     7
370
    25
100
AcDbLine
 10
124.2345091479
 20
251.9070407366
 30
0.0
 11
121.0345091479
 21
251.9070407366
 31
0.0
  0
LINE
  5
248
330
1F
100
AcDbEntity
  8
0
  6
Continuous
 62
     7
370
    25
100
AcDbLine
 10
121.0345091479
 20
251.9070407366
 30
0.0
 11
121.0345091479
 21
248.0070407366
 31
0.0
  0
LINE
  5
249
330
1F
100
AcDbEntity
  8
0
  6
Continuous
 62
     7
370
    25
100
AcDbLine
 10
121.0345091479
 20
248.0070407366
 30
0.0
 11
119.6345091479
 21
248.0070407366
 31
0.0
  0
LINE
  5
24A
330
1F
100
AcDbEntity
  8
0
  6
Continuous
 62
     7
370
    25
100
AcDbLine
 10
119.6345091479
 20
248.0070407366
 30
0.0
 11
119.6345091479
 21
245.0070407366
 31
0.0
  0
LINE
  5
24B
330
1F
100
AcDbEntity
  8
0
  6
Continuous
 62
     7
370
    25
100
AcDbLine
 10
119.6345091479
 20
245.0070407366
 30
0.0
 11
121.0345091479
 21
245.0070407366
 31
0.0
  0
LINE
  5
24C
330
1F
100
AcDbEntity
  8
0
  6
Continuous
 62
     7
370
    25
100
AcDbLine
 10
121.0345091479
 20
245.0070407366
 30
0.0
 11
121.0345091479
 21
241.0070407366
 31
0.0
  0
LINE
  5
24D
330
1F
100
AcDbEntity
  8
0
  6
Continuous
 62
     7
370
    25
100
AcDbLine
 10
121.0345091479
 20
241.0070407366
 30
0.0
 11
119.5345091479
 21
241.0070407366
 31
0.0
  0
LINE
  5
24E
330
1F
100
AcDbEntity
  8
0
  6
Continuous
 62
     7
370
    25
100
AcDbLine
 10
119.5345091479
 20
241.0070407366
 30
0.0
 11
119.5345091479
 21
236.9070407366
 31
0.0
  0
LINE
  5
24F
330
1F
100
AcDbEntity
  8
0
  6
Continuous
 62
     7
370
    25
100
AcDbLine
 10
112.6345091479
 20
236.9070407366
 30
0.0
 11
119.5345091479
 21
236.9070407366
 31
0.0
  0
LINE
  5
250
330
1F
100
AcDbEntity
  8
0
  6
Continuous
 62
     7
370
    25
100
AcDbLine
 10
112.6345091479
 20
315.1370407366
 30
0.0
 11
112.6345091479
 21
236.9070407366
 31
0.0
  0
LINE
  5
251
330
1F
100
AcDbEntity
  8
0
  6
Continuous
 62
     7
370
    25
100
AcDbLine
 10
203.6345091479
 20
315.1370407366
 30
0.0
 11
112.6345091479
 21
315.1370407366
 31
0.0
  0
LINE
  5
252
330
1F
100
AcDbEntity
  8
0
  6
Continuous
 62
     7
370
    25
100
AcDbLine
 10
203.6345091479
 20
236.9070407366
 30
0.0
 11
203.6345091479
 21
315.1370407366
 31
0.0
  0
LINE
  5
253
330
1F
100
AcDbEntity
  8
0
  6
Continuous
 62
     7
370
    25
100
AcDbLine
 10
196.7345091479
 20
236.9070407366
 30
0.0
 11
203.6345091479
 21
236.9070407366
 31
0.0
  0
LINE
  5
254
330
1F
100
AcDbEntity
  8
0
  6
Continuous
 62
     7
370
    25
100
AcDbLine
 10
196.7345091479
 20
236.9070407366
 30
0.0
 11
196.7345091479
 21
241.0070407366
 31
0.0
  0
LINE
  5
255
330
1F
100
AcDbEntity
  8
0
  6
Continuous
 62
     7
370
    25
100
AcDbLine
 10
196.7345091479
 20
241.0070407366
 30
0.0
 11
195.2345091479
 21
241.0070407366
 31
0.0
  0
LINE
  5
256
330
1F
100
AcDbEntity
  8
0
  6
Continuous
 62
     7
370
    25
100
AcDbLine
 10
195.2345091479
 20
241.0070407366
 30
0.0
 11
195.2345091479
 21
245.0070407366
 31
0.0
  0
LINE
  5
257
330
1F
100
AcDbEntity
  8
0
  6
Continuous
 62
     7
370
    25
100
AcDbLine
 10
195.2345091479
 20
245.0070407366
 30
0.0
 11
196.6345091479
 21
245.0070407366
 31
0.0
  0
LINE
  5
258
330
1F
100
AcDbEntity
  8
0
  6
Continuous
 62
     7
370
    25
100
AcDbLine
 10
196.6345091479
 20
245.0070407366
 30
0.0
 11
196.6345091479
 21
248.0070407366
 31
0.0
  0
LINE
  5
259
330
1F
100
AcDbEntity
  8
0
  6
Continuous
 62
     7
370
    25
100
AcDbLine
 10
196.6345091479
 20
248.0070407366
 30
0.0
 11
195.2345091479
 21
248.0070407366
 31
0.0
  0
LINE
  5
25A
330
1F
100
AcDbEntity
  8
0
  6
Continuous
 62
     7
370
    25
100
AcDbLine
 10
195.2345091479
 20
248.0070407366
 30
0.0
 11
195.2345091479
 21
251.9070407366
 31
0.0
  0
LINE
  5
25B
330
1F
100
AcDbEntity
  8
0
  6
Continuous
 62
     7
370
    25
100
AcDbLine
 10
195.2345091479
 20
251.9070407366
 30
0.0
 11
192.0345091479
 21
251.9070407366
 31
0.0
  0
LINE
  5
25C
330
1F
100
AcDbEntity
  8
0
  6
Continuous
 62
     7
370
    25
100
AcDbLine
 10
192.0345091479
 20
251.9070407366
 30
0.0
 11
192.0345091479
 21
248.0070407366
 31
0.0
  0
LINE
  5
25D
330
1F
100
AcDbEntity
  8
0
  6
Continuous
 62
     7
370
    25
100
AcDbLine
 10
192.0345091479
 20
248.0070407366
 30
0.0
 11
190.6345091479
 21
248.0070407366
 31
0.0
  0
LINE
  5
25E
330
1F
100
AcDbEntity
  8
0
  6
Continuous
 62
     7
370
    25
100
AcDbLine
 10
190.6345091479
 20
248.0070407366
 30
0.0
 11
190.6345091479
 21
245.0070407366
 31
0.0
  0
LINE
  5
25F
330
1F
100
AcDbEntity
  8
0
  6
Continuous
 62
     7
370
    25
100
AcDbLine
 10
190.6345091479
 20
245.0070407366
 30
0.0
 11
192.0345091479
 21
245.0070407366
 31
0.0
  0
LINE
  5
260
330
1F
100
AcDbEntity
  8
0
  6
Continuous
 62
     7
370
    25
100
AcDbLine
 10
192.0345091479
 20
245.0070407366
 30
0.0
 11
192.0345091479
 21
241.0070407366
 31
0.0
  0
LINE
  5
261
330
1F
100
AcDbEntity
  8
0
  6
Continuous
 62
     7
370
    25
100
AcDbLine
 10
192.0345091479
 20
241.0070407366
 30
0.0
 11
190.5345091479
 21
241.0070407366
 31
0.0
  0
LINE
  5
262
330
1F
100
AcDbEntity
  8
0
  6
Continuous
 62
     7
370
    25
100
AcDbLine
 10
190.5345091479
 20
241.0070407366
 30
0.0
 11
190.5345091479
 21
236.9070407366
 31
0.0
  0
LINE
  5
263
330
1F
100
AcDbEntity
  8
0
  6
Continuous
 62
     7
370
    25
100
AcDbLine
 10
173.2345091479
 20
236.9070407366
 30
0.0
 11
190.5345091479
 21
236.9070407366
 31
0.0
  0
LINE
  5
264
330
1F
100
AcDbEntity
  8
0
  6
Continuous
 62
     7
370
    25
100
AcDbLine
 10
173.2345091479
 20
236.9070407366
 30
0.0
 11
173.2345091479
 21
240.9070407366
 31
0.0
  0
LINE
  5
265
330
1F
100
AcDbEntity
  8
0
  6
Continuous
 62
     7
370
    25
100
AcDbLine
 10
143.0345091479
 20
240.9070407366
 30
0.0
 11
173.2345091479
 21
240.9070407366
 31
0.0
  0
LINE
  5
266
330
1F
100
AcDbEntity
  8
0
  6
Continuous
 62
     7
370
    25
100
AcDbLine
 10
143.0345091479
 20
236.9070407366
 30
0.0
 11
143.0345091479
 21
240.9070407366
 31
0.0
  0
LINE
  5
267
330
1F
100
AcDbEntity
  8
0
  6
Continuous
 62
     7
370
    25
100
AcDbLine
 10
125.7345091479
 20
236.9070407366
 30
0.0
 11
143.0345091479
 21
236.9070407366
 31
0.0
  0
LINE
  5
268
330
1F
100
AcDbEntity
  8
0
  6
Continuous
 62
     7
370
    25
100
AcDbLine
 10
25.3914939609
 20
237.3466708847
 30
0.0
 11
25.3914939609
 21
241.4466708847
 31
0.0
  0
LINE
  5
269
330
1F
100
AcDbEntity
  8
0
  6
Continuous
 62
     7
370
    25
100
AcDbLine
 10
25.3914939609
 20
241.4466708847
 30
0.0
 11
23.8914939609
 21
241.4466708847
 31
0.0
  0
LINE
  5
26A
330
1F
100
AcDbEntity
  8
0
  6
Continuous
 62
     7
370
    25
100
AcDbLine
 10
23.8914939609
 20
241.4466708847
 30
0.0
 11
23.8914939609
 21
245.4466708847
 31
0.0
  0
LINE
  5
26B
330
1F
100
AcDbEntity
  8
0
  6
Continuous
 62
     7
370
    25
100
AcDbLine
 10
23.8914939609
 20
245.4466708847
 30
0.0
 11
25.2914939609
 21
245.4466708847
 31
0.0
  0
LINE
  5
26C
330
1F
100
AcDbEntity
  8
0
  6
Continuous
 62
     7
370
    25
100
AcDbLine
 10
25.2914939609
 20
245.4466708847
 30
0.0
 11
25.2914939609
 21
248.4466708847
 31
0.0
  0
LINE
  5
26D
330
1F
100
AcDbEntity
  8
0
  6
Continuous
 62
     7
370
    25
100
AcDbLine
 10
25.2914939609
 20
248.4466708847
 30
0.0
 11
23.8914939609
 21
248.4466708847
 31
0.0
  0
LINE
  5
26E
330
1F
100
AcDbEntity
  8
0
  6
Continuous
 62
     7
370
    25
100
AcDbLine
 10
23.8914939609
 20
248.4466708847
 30
0.0
 11
23.8914939609
 21
252.3466708847
 31
0.0
  0
LINE
  5
26F
330
1F
100
AcDbEntity
  8
0
  6
Continuous
 62
     7
370
    25
100
AcDbLine
 10
23.8914939609
 20
252.3466708847
 30
0.0
 11
20.6914939609
 21
252.3466708847
 31
0.0
  0
LINE
  5
270
330
1F
100
AcDbEntity
  8
0
  6
Continuous
 62
     7
370
    25
100
AcDbLine
 10
20.6914939609
 20
252.3466708847
 30
0.0
 11
20.6914939609
 21
248.4466708847
 31
0.0
  0
LINE
  5
271
330
1F
100
AcDbEntity
  8
0
  6
Continuous
 62
     7
370
    25
100
AcDbLine
 10
20.6914939609
 20
248.4466708847
 30
0.0
 11
19.2914939609
 21
248.4466708847
 31
0.0
  0
LINE
  5
272
330
1F
100
AcDbEntity
  8
0
  6
Continuous
 62
     7
370
    25
100
AcDbLine
 10
19.2914939609
 20
248.4466708847
 30
0.0
 11
19.2914939609
 21
245.4466708847
 31
0.0
  0
LINE
  5
273
330
1F
100
AcDbEntity
  8
0
  6
Continuous
 62
     7
370
    25
100
AcDbLine
 10
19.2914939609
 20
245.4466708847
 30
0.0
 11
20.6914939609
 21
245.4466708847
 31
0.0
  0
LINE
  5
274
330
1F
100
AcDbEntity
  8
0
  6
Continuous
 62
     7
370
    25
100
AcDbLine
 10
20.6914939609
 20
245.4466708847
 30
0.0
 11
20.6914939609
 21
241.4466708847
 31
0.0
  0
LINE
  5
275
330
1F
100
AcDbEntity
  8
0
  6
Continuous
 62
     7
370
    25
100
AcDbLine
 10
20.6914939609
 20
241.4466708847
 30
0.0
 11
19.1914939609
 21
241.4466708847
 31
0.0
  0
LINE
  5
276
330
1F
100
AcDbEntity
  8
0
  6
Continuous
 62
     7
370
    25
100
AcDbLine
 10
19.1914939609
 20
241.4466708847
 30
0.0
 11
19.1914939609
 21
237.3466708847
 31
0.0
  0
LINE
  5
277
330
1F
100
AcDbEntity
  8
0
  6
Continuous
 62
     7
370
    25
100
AcDbLine
 10
12.2914939609
 20
237.3466708847
 30
0.0
 11
19.1914939609
 21
237.3466708847
 31
0.0
  0
LINE
  5
278
330
1F
100
AcDbEntity
  8
0
  6
Continuous
 62
     7
370
    25
100
AcDbLine
 10
12.2914939609
 20
315.5766708847
 30
0.0
 11
12.2914939609
 21
237.3466708847
 31
0.0
  0
LINE
  5
279
330
1F
100
AcDbEntity
  8
0
  6
Continuous
 62
     7
370
    25
100
AcDbLine
 10
103.2914939609
 20
315.5766708847
 30
0.0
 11
12.2914939609
 21
315.5766708847
 31
0.0
  0
LINE
  5
27A
330
1F
100
AcDbEntity
  8
0
  6
Continuous
 62
     7
370
    25
100
AcDbLine
 10
103.2914939609
 20
237.3466708847
 30
0.0
 11
103.2914939609
 21
315.5766708847
 31
0.0
  0
LINE
  5
27B
330
1F
100
AcDbEntity
  8
0
  6
Continuous
 62
     7
370
    25
100
AcDbLine
 10
96.3914939609
 20
237.3466708847
 30
0.0
 11
103.2914939609
 21
237.3466708847
 31
0.0
  0
LINE
  5
27C
330
1F
100
AcDbEntity
  8
0
  6
Continuous
 62
     7
370
    25
100
AcDbLine
 10
96.3914939609
 20
237.3466708847
 30
0.0
 11
96.3914939609
 21
241.4466708847
 31
0.0
  0
LINE
  5
27D
330
1F
100
AcDbEntity
  8
0
  6
Continuous
 62
     7
370
    25
100
AcDbLine
 10
96.3914939609
 20
241.4466708847
 30
0.0
 11
94.8914939609
 21
241.4466708847
 31
0.0
  0
LINE
  5
27E
330
1F
100
AcDbEntity
  8
0
  6
Continuous
 62
     7
370
    25
100
AcDbLine
 10
94.8914939609
 20
241.4466708847
 30
0.0
 11
94.8914939609
 21
245.4466708847
 31
0.0
  0
LINE
  5
27F
330
1F
100
AcDbEntity
  8
0
  6
Continuous
 62
     7
370
    25
100
AcDbLine
 10
94.8914939609
 20
245.4466708847
 30
0.0
 11
96.2914939609
 21
245.4466708847
 31
0.0
  0
LINE
  5
280
330
1F
100
AcDbEntity
  8
0
  6
Continuous
 62
     7
370
    25
100
AcDbLine
 10
96.2914939609
 20
245.4466708847
 30
0.0
 11
96.2914939609
 21
248.4466708847
 31
0.0
  0
LINE
  5
281
330
1F
100
AcDbEntity
  8
0
  6
Continuous
 62
     7
370
    25
100
AcDbLine
 10
96.2914939609
 20
248.4466708847
 30
0.0
 11
94.8914939609
 21
248.4466708847
 31
0.0
  0
LINE
  5
282
330
1F
100
AcDbEntity
  8
0
  6
Continuous
 62
     7
370
    25
100
AcDbLine
 10
94.8914939609
 20
248.4466708847
 30
0.0
 11
94.8914939609
 21
252.3466708847
 31
0.0
  0
LINE
  5
283
330
1F
100
AcDbEntity
  8
0
  6
Continuous
 62
     7
370
    25
100
AcDbLine
 10
94.8914939609
 20
252.3466708847
 30
0.0
 11
91.6914939609
 21
252.3466708847
 31
0.0
  0
LINE
  5
284
330
1F
100
AcDbEntity
  8
0
  6
Continuous
 62
     7
370
    25
100
AcDbLine
 10
91.6914939609
 20
252.3466708847
 30
0.0
 11
91.6914939609
 21
248.4466708847
 31
0.0
  0
LINE
  5
285
330
1F
100
AcDbEntity
  8
0
  6
Continuous
 62
     7
370
    25
100
AcDbLine
 10
91.6914939609
 20
248.4466708847
 30
0.0
 11
90.2914939609
 21
248.4466708847
 31
0.0
  0
LINE
  5
286
330
1F
100
AcDbEntity
  8
0
  6
Continuous
 62
     7
370
    25
100
AcDbLine
 10
90.2914939609
 20
248.4466708847
 30
0.0
 11
90.2914939609
 21
245.4466708847
 31
0.0
  0
LINE
  5
287
330
1F
100
AcDbEntity
  8
0
  6
Continuous
 62
     7
370
    25
100
AcDbLine
 10
90.2914939609
 20
245.4466708847
 30
0.0
 11
91.6914939609
 21
245.4466708847
 31
0.0
  0
LINE
  5
288
330
1F
100
AcDbEntity
  8
0
  6
Continuous
 62
     7
370
    25
100
AcDbLine
 10
91.6914939609
 20
245.4466708847
 30
0.0
 11
91.6914939609
 21
241.4466708847
 31
0.0
  0
LINE
  5
289
330
1F
100
AcDbEntity
  8
0
  6
Continuous
 62
     7
370
    25
100
AcDbLine
 10
91.6914939609
 20
241.4466708847
 30
0.0
 11
90.1914939609
 21
241.4466708847
 31
0.0
  0
LINE
  5
28A
330
1F
100
AcDbEntity
  8
0
  6
Continuous
 62
     7
370
    25
100
AcDbLine
 10
90.1914939609
 20
241.4466708847
 30
0.0
 11
90.1914939609
 21
237.3466708847
 31
0.0
  0
LINE
  5
28B
330
1F
100
AcDbEntity
  8
0
  6
Continuous
 62
     7
370
    25
100
AcDbLine
 10
72.8914939609
 20
237.3466708847
 30
0.0
 11
90.1914939609
 21
237.3466708847
 31
0.0
  0
LINE
  5
28C
330
1F
100
AcDbEntity
  8
0
  6
Continuous
 62
     7
370
    25
100
AcDbLine
 10
72.8914939609
 20
237.3466708847
 30
0.0
 11
72.8914939609
 21
241.3466708847
 31
0.0
  0
LINE
  5
28D
330
1F
100
AcDbEntity
  8
0
  6
Continuous
 62
     7
370
    25
100
AcDbLine
 10
42.6914939609
 20
241.3466708847
 30
0.0
 11
72.8914939609
 21
241.3466708847
 31
0.0
  0
LINE
  5
28E
330
1F
100
AcDbEntity
  8
0
  6
Continuous
 62
     7
370
    25
100
AcDbLine
 10
42.6914939609
 20
237.3466708847
 30
0.0
 11
42.6914939609
 21
241.3466708847
 31
0.0
  0
LINE
  5
28F
330
1F
100
AcDbEntity
  8
0
  6
Continuous
 62
     7
370
    25
100
AcDbLine
 10
25.3914939609
 20
237.3466708847
 30
0.0
 11
42.6914939609
 21
237.3466708847
 31
0.0
  0
CIRCLE
  5
290
330
1F
100
AcDbEntity
  8
0
  6
Continuous
 62
     7
370
    25
100
AcDbCircle
 10
409.1072201814
 20
394.6555759698
 30
0.0
 40
1.600000000000023
  0
CIRCLE
  5
291
330
1F
100
AcDbEntity
  8
0
  6
Continuous
 62
     7
370
    25
100
AcDbCircle
 10
409.1072201814
 20
323.6555759698
 30
0.0
 40
1.600000000000023
  0
CIRCLE
  5
292
330
1F
100
AcDbEntity
  8
0
  6
Continuous
 62
     7
370
    25
100
AcDbCircle
 10
340.1072201814
 20
323.6555759698
 30
0.0
 40
1.600000000000023
  0
CIRCLE
  5
293
330
1F
100
AcDbEntity
  8
0
  6
Continuous
 62
     7
370
    25
100
AcDbCircle
 10
340.1072201814
 20
394.6555759698
 30
0.0
 40
1.600000000000023
  0
LINE
  5
294
330
1F
100
AcDbEntity
  8
0
  6
Continuous
 62
     7
370
    25
100
AcDbLine
 10
385.1072201814
 20
334.6555759698
 30
0.0
 11
385.1072201814
 21
313.6555759698
 31
0.0
  0
LINE
  5
295
330
1F
100
AcDbEntity
  8
0
  6
Continuous
 62
     7
370
    25
100
AcDbLine
 10
364.1072201814
 20
334.6555759698
 30
0.0
 11
385.1072201814
 21
334.6555759698
 31
0.0
  0
LINE
  5
296
330
1F
100
AcDbEntity
  8
0
  6
Continuous
 62
     7
370
    25
100
AcDbLine
 10
364.1072201814
 20
313.6555759698
 30
0.0
 11
364.1072201814
 21
334.6555759698
 31
0.0
  0
LINE
  5
297
330
1F
100
AcDbEntity
  8
0
  6
Continuous
 62
     7
370
    25
100
AcDbLine
 10
342.1072201814
 20
313.6555759698
 30
0.0
 11
364.1072201814
 21
313.6555759698
 31
0.0
  0
LINE
  5
298
330
1F
100
AcDbEntity
  8
0
  6
Continuous
 62
     7
370
    25
100
AcDbLine
 10
342.1072201814
 20
320.6555759698
 30
0.0
 11
342.1072201814
 21
313.6555759698
 31
0.0
  0
LINE
  5
299
330
1F
100
AcDbEntity
  8
0
  6
Continuous
 62
     7
370
    25
100
AcDbLine
 10
340.1072201814
 20
320.6555759698
 30
0.0
 11
342.1072201814
 21
320.6555759698
 31
0.0
  0
LINE
  5
29A
330
1F
100
AcDbEntity
  8
0
  6
Continuous
 62
     7
370
    25
100
AcDbLine
 10
342.1072201814
 20
344.1555759698
 30
0.0
 11
342.1072201814
 21
326.6555759698
 31
0.0
  0
LINE
  5
29B
330
1F
100
AcDbEntity
  8
0
  6
Continuous
 62
     7
370
    25
100
AcDbLine
 10
342.1072201814
 20
344.1555759698
 30
0.0
 11
338.1072201814
 21
344.1555759698
 31
0.0
  0
LINE
  5
29C
330
1F
100
AcDbEntity
  8
0
  6
Continuous
 62
     7
370
    25
100
AcDbLine
 10
338.1072201814
 20
344.1555759698
 30
0.0
 11
338.1072201814
 21
374.1555759698
 31
0.0
  0
LINE
  5
29D
330
1F
100
AcDbEntity
  8
0
  6
Continuous
 62
     7
370
    25
100
AcDbLine
 10
338.1072201814
 20
374.1555759698
 30
0.0
 11
342.1072201814
 21
374.1555759698
 31
0.0
  0
LINE
  5
29E
330
1F
100
AcDbEntity
  8
0
  6
Continuous
 62
     7
370
    25
100
AcDbLine
 10
342.1072201814
 20
391.6555759698
 30
0.0
 11
342.1072201814
 21
374.1555759698
 31
0.0
  0
LINE
  5
29F
330
1F
100
AcDbEntity
  8
0
  6
Continuous
 62
     7
370
    25
100
AcDbLine
 10
342.1072201814
 20
391.6555759698
 30
0.0
 11
340.1072201814
 21
391.6555759698
 31
0.0
  0
ARC
  5
2A0
330
1F
100
AcDbEntity
  8
0
  6
Continuous
 62
     7
370
    25
100
AcDbCircle
 10
340.1072201814
 20
394.6555759698
 30
0.0
 40
3.0
100
AcDbArc
 50
90.0
 51
270.0
  0
LINE
  5
2A1
330
1F
100
AcDbEntity
  8
0
  6
Continuous
 62
     7
370
    25
100
AcDbLine
 10
407.1072201814
 20
404.6555759698
 30
0.0
 11
342.1072201814
 21
404.6555759698
 31
0.0
  0
LINE
  5
2A2
330
1F
100
AcDbEntity
  8
0
  6
Continuous
 62
     7
370
    25
100
AcDbLine
 10
407.1072201814
 20
397.6555759698
 30
0.0
 11
407.1072201814
 21
404.6555759698
 31
0.0
  0
LINE
  5
2A3
330
1F
100
AcDbEntity
  8
0
  6
Continuous
 62
     7
370
    25
100
AcDbLine
 10
409.1072201814
 20
397.6555759698
 30
0.0
 11
407.1072201814
 21
397.6555759698
 31
0.0
  0
LINE
  5
2A4
330
1F
100
AcDbEntity
  8
0
  6
Continuous
 62
     7
370
    25
100
AcDbLine
 10
407.1072201814
 20
374.1555759698
 30
0.0
 11
407.1072201814
 21
391.6555759698
 31
0.0
  0
LINE
  5
2A5
330
1F
100
AcDbEntity
  8
0
  6
Continuous
 62
     7
370
    25
100
AcDbLine
 10
407.1072201814
 20
374.1555759698
 30
0.0
 11
411.1072201814
 21
374.1555759698
 31
0.0
  0
LINE
  5
2A6
330
1F
100
AcDbEntity
  8
0
  6
Continuous
 62
     7
370
    25
100
AcDbLine
 10
411.1072201814
 20
374.1555759698
 30
0.0
 11
411.1072201814
 21
344.1555759698
 31
0.0
  0
LINE
  5
2A7
330
1F
100
AcDbEntity
  8
0
  6
Continuous
 62
     7
370
    25
100
AcDbLine
 10
411.1072201814
 20
344.1555759698
 30
0.0
 11
407.1072201814
 21
344.1555759698
 31
0.0
  0
LINE
  5
2A8
330
1F
100
AcDbEntity
  8
0
  6
Continuous
 62
     7
370
    25
100
AcDbLine
 10
407.1072201814
 20
326.6555759698
 30
0.0
 11
407.1072201814
 21
344.1555759698
 31
0.0
  0
LINE
  5
2A9
330
1F
100
AcDbEntity
  8
0
  6
Continuous
 62
     7
370
    25
100
AcDbLine
 10
407.1072201814
 20
326.6555759698
 30
0.0
 11
409.1072201814
 21
326.6555759698
 31
0.0
  0
ARC
  5
2AA
330
1F
100
AcDbEntity
  8
0
  6
Continuous
 62
     7
370
    25
100
AcDbCircle
 10
409.1072201814
 20
323.6555759698
 30
0.0
 40
3.0
100
AcDbArc
 50
270.0
 51
90.0
  0
LINE
  5
2AB
330
1F
100
AcDbEntity
  8
0
  6
Continuous
 62
     7
370
    25
100
AcDbLine
 10
385.1072201814
 20
313.6555759698
 30
0.0
 11
407.1072201814
 21
313.6555759698
 31
0.0
  0
CIRCLE
  5
2AC
330
1F
100
AcDbEntity
  8
0
  6
Continuous
 62
     7
370
    25
100
AcDbCircle
 10
393.6072201824
 20
323.6555500209
 30
0.0
 40
1.600000002269326
  0
CIRCLE
  5
2AD
330
1F
100
AcDbEntity
  8
0
  6
Continuous
 62
     7
370
    25
100
AcDbCircle
 10
374.6072201824
 20
342.655550021
 30
0.0
 40
1.600000002269326
  0
CIRCLE
  5
2AE
330
1F
100
AcDbEntity
  8
0
  6
Continuous
 62
     7
370
    25
100
AcDbCircle
 10
355.6072201824
 20
323.6555500209
 30
0.0
 40
1.600000002269439
  0
LINE
  5
2AF
330
1F
100
AcDbEntity
  8
0
  6
Continuous
 62
     7
370
    25
100
AcDbLine
 10
340.1072201814
 20
397.6555759698
 30
0.0
 11
342.1072201814
 21
397.6555759698
 31
0.0
  0
ARC
  5
2B0
330
1F
100
AcDbEntity
  8
0
  6
Continuous
 62
     7
370
    25
100
AcDbCircle
 10
409.1072201814
 20
394.6555759698
 30
0.0
 40
3.0
100
AcDbArc
 50
270.0
 51
90.0
  0
LINE
  5
2B1
330
1F
100
AcDbEntity
  8
0
  6
Continuous
 62
     7
370
    25
100
AcDbLine
 10
409.1072201814
 20
320.6555759698
 30
0.0
 11
407.1072201814
 21
320.6555759698
 31
0.0
  0
LINE
  5
2B2
330
1F
100
AcDbEntity
  8
0
  6
Continuous
 62
     7
370
    25
100
AcDbLine
 10
342.1072201814
 20
326.6555759698
 30
0.0
 11
340.1072201814
 21
326.6555759698
 31
0.0
  0
ARC
  5
2B3
330
1F
100
AcDbEntity
  8
0
  6
Continuous
 62
     7
370
    25
100
AcDbCircle
 10
340.1072201814
 20
323.6555759698
 30
0.0
 40
3.0
100
AcDbArc
 50
90.0
 51
270.0
  0
LINE
  5
2B4
330
1F
100
AcDbEntity
  8
0
  6
Continuous
 62
     7
370
    25
100
AcDbLine
 10
407.1072201814
 20
391.6555759698
 30
0.0
 11
409.1072201814
 21
391.6555759698
 31
0.0
  0
LINE
  5
2B5
330
1F
100
AcDbEntity
  8
0
  6
Continuous
 62
     7
370
    25
100
AcDbLine
 10
407.1072201814
 20
313.6555759698
 30
0.0
 11
407.1072201814
 21
320.6555759698
 31
0.0
  0
LINE
  5
2B6
330
1F
100
AcDbEntity
  8
0
  6
Continuous
 62
     7
370
    25
100
AcDbLine
 10
342.1072201814
 20
404.6555759698
 30
0.0
 11
342.1072201814
 21
397.6555759698
 31
0.0
  0
CIRCLE
  5
2B7
330
1F
100
AcDbEntity
  8
0
  6
Continuous
 62
     7
370
    25
100
AcDbCircle
 10
228.5014195846
 20
272.0270487869
 30
0.0
 40
6.5
  0
ARC
  5
2B8
330
1F
100
AcDbEntity
  8
0
  6
Continuous
 62
     7
370
    25
100
AcDbCircle
 10
241.0014195846
 20
278.0270487869
 30
0.0
 40
5.0
100
AcDbArc
 50
0.0
 51
90.0
  0
LINE
  5
2B9
330
1F
100
AcDbEntity
  8
0
  6
Continuous
 62
     7
370
    25
100
AcDbLine
 10
246.0014195846
 20
261.0270487869
 30
0.0
 11
246.0014195846
 21
278.0270487869
 31
0.0
  0
LINE
  5
2BA
330
1F
100
AcDbEntity
  8
0
  6
Continuous
 62
     7
370
    25
100
AcDbLine
 10
241.3514195846
 20
261.0270487869
 30
0.0
 11
246.0014195846
 21
261.0270487869
 31
0.0
  0
LINE
  5
2BB
330
1F
100
AcDbEntity
  8
0
  6
Continuous
 62
     7
370
    25
100
AcDbLine
 10
241.3514195846
 20
261.0270487869
 30
0.0
 11
241.3514195846
 21
266.0270487869
 31
0.0
  0
LINE
  5
2BC
330
1F
100
AcDbEntity
  8
0
  6
Continuous
 62
     7
370
    25
100
AcDbLine
 10
241.3514195846
 20
266.0270487869
 30
0.0
 11
242.7514195846
 21
266.0270487869
 31
0.0
  0
LINE
  5
2BD
330
1F
100
AcDbEntity
  8
0
  6
Continuous
 62
     7
370
    25
100
AcDbLine
 10
242.7514195846
 20
266.0270487869
 30
0.0
 11
242.7514195846
 21
269.0270487869
 31
0.0
  0
LINE
  5
2BE
330
1F
100
AcDbEntity
  8
0
  6
Continuous
 62
     7
370
    25
100
AcDbLine
 10
242.7514195846
 20
269.0270487869
 30
0.0
 11
241.3514195846
 21
269.0270487869
 31
0.0
  0
LINE
  5
2BF
330
1F
100
AcDbEntity
  8
0
  6
Continuous
 62
     7
370
    25
100
AcDbLine
 10
241.3514195846
 20
269.0270487869
 30
0.0
 11
241.3514195846
 21
276.0270487869
 31
0.0
  0
LINE
  5
2C0
330
1F
100
AcDbEntity
  8
0
  6
Continuous
 62
     7
370
    25
100
AcDbLine
 10
241.3514195846
 20
276.0270487869
 30
0.0
 11
238.1514195846
 21
276.0270487869
 31
0.0
  0
LINE
  5
2C1
330
1F
100
AcDbEntity
  8
0
  6
Continuous
 62
     7
370
    25
100
AcDbLine
 10
238.1514195846
 20
276.0270487869
 30
0.0
 11
238.1514195846
 21
269.0270487869
 31
0.0
  0
LINE
  5
2C2
330
1F
100
AcDbEntity
  8
0
  6
Continuous
 62
     7
370
    25
100
AcDbLine
 10
238.1514195846
 20
269.0270487869
 30
0.0
 11
236.7514195846
 21
269.0270487869
 31
0.0
  0
LINE
  5
2C3
330
1F
100
AcDbEntity
  8
0
  6
Continuous
 62
     7
370
    25
100
AcDbLine
 10
236.7514195846
 20
269.0270487869
 30
0.0
 11
236.7514195846
 21
266.0270487869
 31
0.0
  0
LINE
  5
2C4
330
1F
100
AcDbEntity
  8
0
  6
Continuous
 62
     7
370
    25
100
AcDbLine
 10
236.7514195846
 20
266.0270487869
 30
0.0
 11
238.1514195846
 21
266.0270487869
 31
0.0
  0
LINE
  5
2C5
330
1F
100
AcDbEntity
  8
0
  6
Continuous
 62
     7
370
    25
100
AcDbLine
 10
238.1514195846
 20
266.0270487869
 30
0.0
 11
238.1514195846
 21
261.0270487869
 31
0.0
  0
LINE
  5
2C6
330
1F
100
AcDbEntity
  8
0
  6
Continuous
 62
     7
370
    25
100
AcDbLine
 10
233.5014195846
 20
257.0270487869
 30
0.0
 11
233.5014195846
 21
261.0270487869
 31
0.0
  0
LINE
  5
2C7
330
1F
100
AcDbEntity
  8
0
  6
Continuous
 62
     7
370
    25
100
AcDbLine
 10
223.5014195846
 20
257.0270487869
 30
0.0
 11
233.5014195846
 21
257.0270487869
 31
0.0
  0
LINE
  5
2C8
330
1F
100
AcDbEntity
  8
0
  6
Continuous
 62
     7
370
    25
100
AcDbLine
 10
223.5014195846
 20
261.0270487869
 30
0.0
 11
223.5014195846
 21
257.0270487869
 31
0.0
  0
LINE
  5
2C9
330
1F
100
AcDbEntity
  8
0
  6
Continuous
 62
     7
370
    25
100
AcDbLine
 10
218.8514195846
 20
261.0270487869
 30
0.0
 11
218.8514195846
 21
266.0270487869
 31
0.0
  0
LINE
  5
2CA
330
1F
100
AcDbEntity
  8
0
  6
Continuous
 62
     7
370
    25
100
AcDbLine
 10
218.8514195846
 20
266.0270487869
 30
0.0
 11
220.2514195846
 21
266.0270487869
 31
0.0
  0
LINE
  5
2CB
330
1F
100
AcDbEntity
  8
0
  6
Continuous
 62
     7
370
    25
100
AcDbLine
 10
220.2514195846
 20
266.0270487869
 30
0.0
 11
220.2514195846
 21
269.0270487869
 31
0.0
  0
LINE
  5
2CC
330
1F
100
AcDbEntity
  8
0
  6
Continuous
 62
     7
370
    25
100
AcDbLine
 10
220.2514195846
 20
269.0270487869
 30
0.0
 11
218.8514195846
 21
269.0270487869
 31
0.0
  0
LINE
  5
2CD
330
1F
100
AcDbEntity
  8
0
  6
Continuous
 62
     7
370
    25
100
AcDbLine
 10
218.8514195846
 20
269.0270487869
 30
0.0
 11
218.8514195846
 21
276.0270487869
 31
0.0
  0
LINE
  5
2CE
330
1F
100
AcDbEntity
  8
0
  6
Continuous
 62
     7
370
    25
100
AcDbLine
 10
218.8514195846
 20
276.0270487869
 30
0.0
 11
215.6514195846
 21
276.0270487869
 31
0.0
  0
LINE
  5
2CF
330
1F
100
AcDbEntity
  8
0
  6
Continuous
 62
     7
370
    25
100
AcDbLine
 10
215.6514195846
 20
276.0270487869
 30
0.0
 11
215.6514195846
 21
269.0270487869
 31
0.0
  0
LINE
  5
2D0
330
1F
100
AcDbEntity
  8
0
  6
Continuous
 62
     7
370
    25
100
AcDbLine
 10
215.6514195846
 20
269.0270487869
 30
0.0
 11
214.2514195846
 21
269.0270487869
 31
0.0
  0
LINE
  5
2D1
330
1F
100
AcDbEntity
  8
0
  6
Continuous
 62
     7
370
    25
100
AcDbLine
 10
214.2514195846
 20
269.0270487869
 30
0.0
 11
214.2514195846
 21
266.0270487869
 31
0.0
  0
LINE
  5
2D2
330
1F
100
AcDbEntity
  8
0
  6
Continuous
 62
     7
370
    25
100
AcDbLine
 10
214.2514195846
 20
266.0270487869
 30
0.0
 11
215.6514195846
 21
266.0270487869
 31
0.0
  0
LINE
  5
2D3
330
1F
100
AcDbEntity
  8
0
  6
Continuous
 62
     7
370
    25
100
AcDbLine
 10
215.6514195846
 20
266.0270487869
 30
0.0
 11
215.6514195846
 21
261.0270487869
 31
0.0
  0
LINE
  5
2D4
330
1F
100
AcDbEntity
  8
0
  6
Continuous
 62
     7
370
    25
100
AcDbLine
 10
211.0014195846
 20
261.0270487869
 30
0.0
 11
215.6514195846
 21
261.0270487869
 31
0.0
  0
LINE
  5
2D5
330
1F
100
AcDbEntity
  8
0
  6
Continuous
 62
     7
370
    25
100
AcDbLine
 10
211.0014195846
 20
278.0270487869
 30
0.0
 11
211.0014195846
 21
261.0270487869
 31
0.0
  0
ARC
  5
2D6
330
1F
100
AcDbEntity
  8
0
  6
Continuous
 62
     7
370
    25
100
AcDbCircle
 10
216.0014195846
 20
278.0270487869
 30
0.0
 40
5.0
100
AcDbArc
 50
90.0
 51
180.0
  0
LINE
  5
2D7
330
1F
100
AcDbEntity
  8
0
  6
Continuous
 62
     7
370
    25
100
AcDbLine
 10
241.0014195846
 20
283.0270487869
 30
0.0
 11
216.0014195846
 21
283.0270487869
 31
0.0
  0
LINE
  5
2D8
330
1F
100
AcDbEntity
  8
0
  6
Continuous
 62
     7
370
    25
100
AcDbLine
 10
233.5014195846
 20
261.0270487869
 30
0.0
 11
238.1514195846
 21
261.0270487869
 31
0.0
  0
LINE
  5
2D9
330
1F
100
AcDbEntity
  8
0
  6
Continuous
 62
     7
370
    25
100
AcDbLine
 10
218.8514195846
 20
261.0270487869
 30
0.0
 11
223.5014195846
 21
261.0270487869
 31
0.0
  0
CIRCLE
  5
2DA
330
1F
100
AcDbEntity
  8
0
  6
Continuous
 62
     7
370
    25
100
AcDbCircle
 10
229.6866675281
 20
303.2238368554
 30
0.0
 40
6.5
  0
ARC
  5
2DB
330
1F
100
AcDbEntity
  8
0
  6
Continuous
 62
     7
370
    25
100
AcDbCircle
 10
242.1866675281
 20
309.2238368554
 30
0.0
 40
5.0
100
AcDbArc
 50
0.0
 51
90.0
  0
LINE
  5
2DC
330
1F
100
AcDbEntity
  8
0
  6
Continuous
 62
     7
370
    25
100
AcDbLine
 10
247.1866675281
 20
292.2238368554
 30
0.0
 11
247.1866675281
 21
309.2238368554
 31
0.0
  0
LINE
  5
2DD
330
1F
100
AcDbEntity
  8
0
  6
Continuous
 62
     7
370
    25
100
AcDbLine
 10
242.5366675281
 20
292.2238368554
 30
0.0
 11
247.1866675281
 21
292.2238368554
 31
0.0
  0
LINE
  5
2DE
330
1F
100
AcDbEntity
  8
0
  6
Continuous
 62
     7
370
    25
100
AcDbLine
 10
242.5366675281
 20
292.2238368554
 30
0.0
 11
242.5366675281
 21
297.2238368554
 31
0.0
  0
LINE
  5
2DF
330
1F
100
AcDbEntity
  8
0
  6
Continuous
 62
     7
370
    25
100
AcDbLine
 10
242.5366675281
 20
297.2238368554
 30
0.0
 11
243.9366675281
 21
297.2238368554
 31
0.0
  0
LINE
  5
2E0
330
1F
100
AcDbEntity
  8
0
  6
Continuous
 62
     7
370
    25
100
AcDbLine
 10
243.9366675281
 20
297.2238368554
 30
0.0
 11
243.9366675281
 21
300.2238368554
 31
0.0
  0
LINE
  5
2E1
330
1F
100
AcDbEntity
  8
0
  6
Continuous
 62
     7
370
    25
100
AcDbLine
 10
243.9366675281
 20
300.2238368554
 30
0.0
 11
242.5366675281
 21
300.2238368554
 31
0.0
  0
LINE
  5
2E2
330
1F
100
AcDbEntity
  8
0
  6
Continuous
 62
     7
370
    25
100
AcDbLine
 10
242.5366675281
 20
300.2238368554
 30
0.0
 11
242.5366675281
 21
307.2238368554
 31
0.0
  0
LINE
  5
2E3
330
1F
100
AcDbEntity
  8
0
  6
Continuous
 62
     7
370
    25
100
AcDbLine
 10
242.5366675281
 20
307.2238368554
 30
0.0
 11
239.3366675281
 21
307.2238368554
 31
0.0
  0
LINE
  5
2E4
330
1F
100
AcDbEntity
  8
0
  6
Continuous
 62
     7
370
    25
100
AcDbLine
 10
239.3366675281
 20
307.2238368554
 30
0.0
 11
239.3366675281
 21
300.2238368554
 31
0.0
  0
LINE
  5
2E5
330
1F
100
AcDbEntity
  8
0
  6
Continuous
 62
     7
370
    25
100
AcDbLine
 10
239.3366675281
 20
300.2238368554
 30
0.0
 11
237.9366675281
 21
300.2238368554
 31
0.0
  0
LINE
  5
2E6
330
1F
100
AcDbEntity
  8
0
  6
Continuous
 62
     7
370
    25
100
AcDbLine
 10
237.9366675281
 20
300.2238368554
 30
0.0
 11
237.9366675281
 21
297.2238368554
 31
0.0
  0
LINE
  5
2E7
330
1F
100
AcDbEntity
  8
0
  6
Continuous
 62
     7
370
    25
100
AcDbLine
 10
237.9366675281
 20
297.2238368554
 30
0.0
 11
239.3366675281
 21
297.2238368554
 31
0.0
  0
LINE
  5
2E8
330
1F
100
AcDbEntity
  8
0
  6
Continuous
 62
     7
370
    25
100
AcDbLine
 10
239.3366675281
 20
297.2238368554
 30
0.0
 11
239.3366675281
 21
292.2238368554
 31
0.0
  0
LINE
  5
2E9
330
1F
100
AcDbEntity
  8
0
  6
Continuous
 62
     7
370
    25
100
AcDbLine
 10
234.6866675281
 20
288.2238368554
 30
0.0
 11
234.6866675281
 21
292.2238368554
 31
0.0
  0
LINE
  5
2EA
330
1F
100
AcDbEntity
  8
0
  6
Continuous
 62
     7
370
    25
100
AcDbLine
 10
224.6866675281
 20
288.2238368554
 30
0.0
 11
234.6866675281
 21
288.2238368554
 31
0.0
  0
LINE
  5
2EB
330
1F
100
AcDbEntity
  8
0
  6
Continuous
 62
     7
370
    25
100
AcDbLine
 10
224.6866675281
 20
292.2238368554
 30
0.0
 11
224.6866675281
 21
288.2238368554
 31
0.0
  0
LINE
  5
2EC
330
1F
100
AcDbEntity
  8
0
  6
Continuous
 62
     7
370
    25
100
AcDbLine
 10
220.0366675281
 20
292.2238368554
 30
0.0
 11
220.0366675281
 21
297.2238368554
 31
0.0
  0
LINE
  5
2ED
330
1F
100
AcDbEntity
  8
0
  6
Continuous
 62
     7
370
    25
100
AcDbLine
 10
220.0366675281
 20
297.2238368554
 30
0.0
 11
221.4366675281
 21
297.2238368554
 31
0.0
  0
LINE
  5
2EE
330
1F
100
AcDbEntity
  8
0
  6
Continuous
 62
     7
370
    25
100
AcDbLine
 10
221.4366675281
 20
297.2238368554
 30
0.0
 11
221.4366675281
 21
300.2238368554
 31
0.0
  0
LINE
  5
2EF
330
1F
100
AcDbEntity
  8
0
  6
Continuous
 62
     7
370
    25
100
AcDbLine
 10
221.4366675281
 20
300.2238368554
 30
0.0
 11
220.0366675281
 21
300.2238368554
 31
0.0
  0
LINE
  5
2F0
330
1F
100
AcDbEntity
  8
0
  6
Continuous
 62
     7
370
    25
100
AcDbLine
 10
220.0366675281
 20
300.2238368554
 30
0.0
 11
220.0366675281
 21
307.2238368554
 31
0.0
  0
LINE
  5
2F1
330
1F
100
AcDbEntity
  8
0
  6
Continuous
 62
     7
370
    25
100
AcDbLine
 10
220.0366675281
 20
307.2238368554
 30
0.0
 11
216.8366675281
 21
307.2238368554
 31
0.0
  0
LINE
  5
2F2
330
1F
100
AcDbEntity
  8
0
  6
Continuous
 62
     7
370
    25
100
AcDbLine
 10
216.8366675281
 20
307.2238368554
 30
0.0
 11
216.8366675281
 21
300.2238368554
 31
0.0
  0
LINE
  5
2F3
330
1F
100
AcDbEntity
  8
0
  6
Continuous
 62
     7
370
    25
100
AcDbLine
 10
216.8366675281
 20
300.2238368554
 30
0.0
 11
215.4366675281
 21
300.2238368554
 31
0.0
  0
LINE
  5
2F4
330
1F
100
AcDbEntity
  8
0
  6
Continuous
 62
     7
370
    25
100
AcDbLine
 10
215.4366675281
 20
300.2238368554
 30
0.0
 11
215.4366675281
 21
297.2238368554
 31
0.0
  0
LINE
  5
2F5
330
1F
100
AcDbEntity
  8
0
  6
Continuous
 62
     7
370
    25
100
AcDbLine
 10
215.4366675281
 20
297.2238368554
 30
0.0
 11
216.8366675281
 21
297.2238368554
 31
0.0
  0
LINE
  5
2F6
330
1F
100
AcDbEntity
  8
0
  6
Continuous
 62
     7
370
    25
100
AcDbLine
 10
216.8366675281
 20
297.2238368554
 30
0.0
 11
216.8366675281
 21
292.2238368554
 31
0.0
  0
LINE
  5
2F7
330
1F
100
AcDbEntity
  8
0
  6
Continuous
 62
     7
370
    25
100
AcDbLine
 10
212.1866675281
 20
292.2238368554
 30
0.0
 11
216.8366675281
 21
292.2238368554
 31
0.0
  0
LINE
  5
2F8
330
1F
100
AcDbEntity
  8
0
  6
Continuous
 62
     7
370
    25
100
AcDbLine
 10
212.1866675281
 20
309.2238368554
 30
0.0
 11
212.1866675281
 21
292.2238368554
 31
0.0
  0
ARC
  5
2F9
330
1F
100
AcDbEntity
  8
0
  6
Continuous
 62
     7
370
    25
100
AcDbCircle
 10
217.1866675281
 20
309.2238368554
 30
0.0
 40
5.000000000000028
100
AcDbArc
 50
90.0
 51
180.0
  0
LINE
  5
2FA
330
1F
100
AcDbEntity
  8
0
  6
Continuous
 62
     7
370
    25
100
AcDbLine
 10
242.1866675281
 20
314.2238368554
 30
0.0
 11
217.1866675281
 21
314.2238368554
 31
0.0
  0
LINE
  5
2FB
330
1F
100
AcDbEntity
  8
0
  6
Continuous
 62
     7
370
    25
100
AcDbLine
 10
234.6866675281
 20
292.2238368554
 30
0.0
 11
239.3366675281
 21
292.2238368554
 31
0.0
  0
LINE
  5
2FC
330
1F
100
AcDbEntity
  8
0
  6
Continuous
 62
     7
370
    25
100
AcDbLine
 10
220.0366675281
 20
292.2238368554
 30
0.0
 11
224.6866675281
 21
292.2238368554
 31
0.0
  0
CIRCLE
  5
2FD
330
1F
100
AcDbEntity
  8
0
  6
Continuous
 62
     7
370
    25
100
AcDbCircle
 10
295.4303606591
 20
632.8191783866
 30
0.0
 40
0.75
  0
CIRCLE
  5
2FE
330
1F
100
AcDbEntity
  8
0
  6
Continuous
 62
     7
370
    25
100
AcDbCircle
 10
300.0680495573
 20
637.3186916544
 30
0.0
 40
0.7500000000000568
  0
CIRCLE
  5
2FF
330
1F
100
AcDbEntity
  8
0
  6
Continuous
 62
     7
370
    25
100
AcDbCircle
 10
299.4649757651
 20
633.8984902211
 30
0.0
 40
0.75
  0
CIRCLE
  5
300
330
1F
100
AcDbEntity
  8
0
  6
Continuous
 62
     7
370
    25
100
AcDbCircle
 10
297.7284939885
 20
630.8908155575
 30
0.0
 40
0.75
  0
CIRCLE
  5
301
330
1F
100
AcDbEntity
  8
0
  6
Continuous
 62
     7
370
    25
100
AcDbCircle
 10
296.6458979028
 20
634.9245506511
 30
0.0
 40
0.7499999999999432
  0
CIRCLE
  5
302
330
1F
100
AcDbEntity
  8
0
  6
Continuous
 62
     7
370
    25
100
AcDbCircle
 10
297.0680495573
 20
637.2915556072
 30
0.0
 40
0.7500000000000568
  0
CIRCLE
  5
303
330
1F
100
AcDbEntity
  8
0
  6
Continuous
 62
     7
370
    25
100
AcDbCircle
 10
295.5317442396
 20
643.8300694209
 30
0.0
 40
0.7500000000000568
  0
CIRCLE
  5
304
330
1F
100
AcDbEntity
  8
0
  6
Continuous
 62
     7
370
    25
100
AcDbCircle
 10
292.9752207755
 20
645.3060789311
 30
0.0
 40
0.7500000000000568
  0
CIRCLE
  5
305
330
1F
100
AcDbEntity
  8
0
  6
Continuous
 62
     7
370
    25
100
AcDbCircle
 10
287.160878339
 20
629.3313043777
 30
0.0
 40
0.75
  0
CIRCLE
  5
306
330
1F
100
AcDbEntity
  8
0
  6
Continuous
 62
     7
370
    25
100
AcDbCircle
 10
284.6043548749
 20
630.8073138879
 30
0.0
 40
0.7500000000000568
  0
CIRCLE
  5
307
330
1F
100
AcDbEntity
  8
0
  6
Continuous
 62
     7
370
    25
100
AcDbCircle
 10
283.0680495573
 20
637.3186916544
 30
0.0
 40
0.75
  0
CIRCLE
  5
308
330
1F
100
AcDbEntity
  8
0
  6
Continuous
 62
     7
370
    25
100
AcDbCircle
 10
283.4902012118
 20
639.7128326577
 30
0.0
 40
0.75
  0
CIRCLE
  5
309
330
1F
100
AcDbEntity
  8
0
  6
Continuous
 62
     7
370
    25
100
AcDbCircle
 10
282.4076051261
 20
643.7465677512
 30
0.0
 40
0.7499999999999432
  0
CIRCLE
  5
30A
330
1F
100
AcDbEntity
  8
0
  6
Continuous
 62
     7
370
    25
100
AcDbCircle
 10
280.6711233494
 20
640.7388930876
 30
0.0
 40
0.75
  0
CIRCLE
  5
30B
330
1F
100
AcDbEntity
  8
0
  6
Continuous
 62
     7
370
    25
100
AcDbCircle
 10
280.0680495573
 20
637.3186916544
 30
0.0
 40
0.75
  0
CIRCLE
  5
30C
330
1F
100
AcDbEntity
  8
0
  6
Continuous
 62
     7
370
    25
100
AcDbCircle
 10
284.7057384554
 20
641.8182049222
 30
0.0
 40
0.7499999999999432
  0
CIRCLE
  5
30D
330
1F
100
AcDbEntity
  8
0
  6
Continuous
 62
     7
370
    25
100
AcDbCircle
 10
290.0680495573
 20
628.8186916544
 30
0.0
 40
0.75
  0
CIRCLE
  5
30E
330
1F
100
AcDbEntity
  8
0
  6
Continuous
 62
     7
370
    25
100
AcDbCircle
 10
290.0680495573
 20
645.8186916544
 30
0.0
 40
0.7500000000000568
  0
ARC
  5
30F
330
1F
100
AcDbEntity
  8
0
  6
Continuous
 62
     7
370
    25
100
AcDbCircle
 10
265.0680495573
 20
626.7215530537
 30
0.0
 40
5.000000000000009
100
AcDbArc
 50
180.0
 51
232.7085460481
  0
ARC
  5
310
330
1F
100
AcDbEntity
  8
0
  6
Continuous
 62
     7
370
    25
100
AcDbCircle
 10
265.0680495573
 20
647.9158302549
 30
0.0
 40
5.000000000000009
100
AcDbArc
 50
127.2914539519
 51
180.0
  0
ARC
  5
311
330
1F
100
AcDbEntity
  8
0
  6
Continuous
 62
     7
370
    25
100
AcDbCircle
 10
315.0680495573
 20
647.9158302549
 30
0.0
 40
5.000000000000009
100
AcDbArc
 50
0.0
 51
52.7085460481
  0
ARC
  5
312
330
1F
100
AcDbEntity
  8
0
  6
Continuous
 62
     7
370
    25
100
AcDbCircle
 10
315.0680495573
 20
626.7215530537
 30
0.0
 40
5.000000000000009
100
AcDbArc
 50
307.2914539519
 51
0.0
  0
LINE
  5
313
330
1F
100
AcDbEntity
  8
0
  6
Continuous
 62
     7
370
    25
100
AcDbLine
 10
320.0680495573
 20
626.7215530537
 30
0.0
 11
320.0680495573
 21
647.9158302549
 31
0.0
  0
LINE
  5
314
330
1F
100
AcDbEntity
  8
0
  6
Continuous
 62
     7
370
    25
100
AcDbLine
 10
260.0680495573
 20
647.9158302549
 30
0.0
 11
260.0680495573
 21
626.7215530537
 31
0.0
  0
CIRCLE
  5
315
330
1F
100
AcDbEntity
  8
0
  6
Continuous
 62
     7
370
    25
100
AcDbCircle
 10
308.0680495573
 20
626.1186916543
 30
0.0
 40
1.600000000000023
  0
CIRCLE
  5
316
330
1F
100
AcDbEntity
  8
0
  6
Continuous
 62
     7
370
    25
100
AcDbCircle
 10
308.0680495573
 20
648.5186916543
 30
0.0
 40
1.600000000000023
  0
LINE
  5
317
330
1F
100
AcDbEntity
  8
0
  6
Continuous
 62
     7
370
    25
100
AcDbLine
 10
305.8680495573
 20
632.1186916543
 30
0.0
 11
310.2680495573
 21
632.1186916543
 31
0.0
  0
LINE
  5
318
330
1F
100
AcDbEntity
  8
0
  6
Continuous
 62
     7
370
    25
100
AcDbLine
 10
305.8680495573
 20
642.5186916543
 30
0.0
 11
305.8680495573
 21
632.1186916543
 31
0.0
  0
LINE
  5
319
330
1F
100
AcDbEntity
  8
0
  6
Continuous
 62
     7
370
    25
100
AcDbLine
 10
310.2680495573
 20
642.5186916543
 30
0.0
 11
305.8680495573
 21
642.5186916543
 31
0.0
  0
LINE
  5
31A
330
1F
100
AcDbEntity
  8
0
  6
Continuous
 62
     7
370
    25
100
AcDbLine
 10
310.2680495573
 20
632.1186916543
 30
0.0
 11
310.2680495573
 21
642.5186916543
 31
0.0
  0
CIRCLE
  5
31B
330
1F
100
AcDbEntity
  8
0
  6
Continuous
 62
     7
370
    25
100
AcDbCircle
 10
272.0680495573
 20
626.1186916543
 30
0.0
 40
1.599999999999966
  0
CIRCLE
  5
31C
330
1F
100
AcDbEntity
  8
0
  6
Continuous
 62
     7
370
    25
100
AcDbCircle
 10
272.0680495573
 20
648.5186916543
 30
0.0
 40
1.599999999999966
  0
SPLINE
  5
31D
330
1F
100
AcDbEntity
  8
0
  6
Continuous
 62
     7
370
    25
100
AcDbSpline
210
0.0
220
0.0
230
1.0
 70
     8
 71
     3
 72
    42
 73
    38
 74
     0
 42
0.00000001
 43
0.00000001
 40
0.0
 40
0.0
 40
0.0
 40
0.0
 40
0.03125
 40
0.03125
 40
0.0624999999999999
 40
0.0624999999999999
 40
0.1249999999999998
 40
0.1249999999999998
 40
0.1874999999999998
 40
0.1874999999999998
 40
0.2499999999999997
 40
0.2499999999999997
 40
0.3749999999999995
 40
0.3749999999999995
 40
0.4374999999999994
 40
0.4374999999999994
 40
0.4999999999999993
 40
0.4999999999999993
 40
0.5624999999999992
 40
0.5624999999999992
 40
0.5937499999999992
 40
0.5937499999999992
 40
0.6249999999999991
 40
0.6249999999999991
 40
0.6562499999999991
 40
0.6562499999999991
 40
0.6874999999999991
 40
0.6874999999999991
 40
0.718749999999999
 40
0.718749999999999
 40
0.749999999999999
 40
0.749999999999999
 40
0.8124999999999991
 40
0.8124999999999991
 40
0.8749999999999992
 40
0.8749999999999992
 40
1.0
 40
1.0
 40
1.0
 40
1.0
 10
290.0680495572815
 20
623.2236902611726
 30
0.0
 10
290.4027549322145
 20
623.2236902611726
 30
0.0
 10
290.7333872717002
 20
623.2026936151564
 30
0.0
 10
291.391447425024
 20
623.1441808767471
 30
0.0
 10
291.7186163624754
 20
623.1053302671565
 30
0.0
 10
292.6960703398127
 20
622.96788592632
 30
0.0
 10
293.3423373366134
 20
622.8485790366885
 30
0.0
 10
294.6253230712593
 20
622.5607436348927
 30
0.0
 10
295.2619845845455
 20
622.3919201280436
 30
0.0
 10
296.5237246023684
 20
621.9945622825455
 30
0.0
 10
297.1484819819913
 20
621.7625723083585
 30
0.0
 10
298.9720832165991
 20
620.9825971655868
 30
0.0
 10
300.1353380956254
 20
620.356159487889
 30
0.0
 10
301.8590399144137
 20
619.373538313463
 30
0.0
 10
302.4299868684456
 20
619.0388088076273
 30
0.0
 10
303.5766573822247
 20
618.3784930451367
 30
0.0
 10
304.1522785334548
 20
618.0525409709754
 30
0.0
 10
305.3263100409867
 20
617.4425665822342
 30
0.0
 10
305.926958374631
 20
617.1568190491213
 30
0.0
 10
306.8544420198164
 20
616.8091578783818
 30
0.0
 10
307.1682159172686
 20
616.7068906260536
 30
0.0
 10
307.8092873031483
 20
616.5422870446181
 30
0.0
 10
308.1378306494965
 20
616.4801654530854
 30
0.0
 10
308.7937965446924
 20
616.4151509749755
 30
0.0
 10
309.1231429863388
 20
616.4116090040505
 30
0.0
 10
309.7853030118793
 20
616.4781789992645
 30
0.0
 10
310.1097388923451
 20
616.5490766005893
 30
0.0
 10
310.7328083469927
 20
616.7568657758319
 30
0.0
 10
311.0362281396065
 20
616.8933235873052
 30
0.0
 10
311.6197407968266
 20
617.2065293947178
 30
0.0
 10
311.8975308183973
 20
617.3814568229021
 30
0.0
 10
312.7045440669884
 20
617.9408206271665
 30
0.0
 10
313.2080449189324
 20
618.3590061031622
 30
0.0
 10
314.1899744224508
 20
619.2282730918868
 30
0.0
 10
314.6676745534041
 20
619.6802907459573
 30
0.0
 10
316.098960931446
 20
621.0362700646731
 30
0.0
 10
317.0487734699014
 20
621.945142879532
 30
0.0
 10
318.0973982739995
 20
622.743733757634
 30
0.0
  0
SPLINE
  5
31E
330
1F
100
AcDbEntity
  8
0
  6
Continuous
 62
     7
370
    25
100
AcDbSpline
210
0.0
220
0.0
230
1.0
 70
     8
 71
     3
 72
    42
 73
    38
 74
     0
 42
0.00000001
 43
0.00000001
 40
0.0
 40
0.0
 40
0.0
 40
0.0
 40
0.1250000000000005
 40
0.1250000000000005
 40
0.1875000000000006
 40
0.1875000000000006
 40
0.2500000000000007
 40
0.2500000000000007
 40
0.2812500000000008
 40
0.2812500000000008
 40
0.3125000000000009
 40
0.3125000000000009
 40
0.3437500000000011
 40
0.3437500000000011
 40
0.3750000000000012
 40
0.3750000000000012
 40
0.4062500000000013
 40
0.4062500000000013
 40
0.4375000000000014
 40
0.4375000000000014
 40
0.5000000000000013
 40
0.5000000000000013
 40
0.5625000000000012
 40
0.5625000000000012
 40
0.6250000000000011
 40
0.6250000000000011
 40
0.7500000000000008
 40
0.7500000000000008
 40
0.8125000000000007
 40
0.8125000000000007
 40
0.8750000000000004
 40
0.8750000000000004
 40
0.9375000000000002
 40
0.9375000000000002
 40
0.9687500000000001
 40
0.9687500000000001
 40
1.0
 40
1.0
 40
1.0
 40
1.0
 10
262.0387008405636
 20
622.743733757634
 30
0.0
 10
263.0907051229633
 20
621.9425692092319
 30
0.0
 10
264.0432430811116
 20
621.0304513789822
 30
0.0
 10
265.479127123335
 20
619.6701690444219
 30
0.0
 10
265.9583597327081
 20
619.2168589110868
 30
0.0
 10
266.9445429757585
 20
618.3450093167606
 30
0.0
 10
267.45066952414
 20
617.9254895639468
 30
0.0
 10
268.2643029655828
 20
617.3647296887643
 30
0.0
 10
268.5465998180156
 20
617.188604207176
 30
0.0
 10
269.1289695238043
 20
616.8795790001756
 30
0.0
 10
269.4290987927239
 20
616.7462728678013
 30
0.0
 10
270.0554571279042
 20
616.5415410653575
 30
0.0
 10
270.3845395454549
 20
616.4727745379172
 30
0.0
 10
271.0371138136781
 20
616.411379401237
 30
0.0
 10
271.3645218488215
 20
616.4160615938121
 30
0.0
 10
272.0211879791793
 20
616.4838206820971
 30
0.0
 10
272.3478596624035
 20
616.5469007011344
 30
0.0
 10
272.9829333398045
 20
616.7115919022665
 30
0.0
 10
273.2942470183992
 20
616.8135350326688
 30
0.0
 10
274.2153342709282
 20
617.1598426369637
 30
0.0
 10
274.8131499157779
 20
617.4442887153291
 30
0.0
 10
275.981987331471
 20
618.0516125382219
 30
0.0
 10
276.5553160487781
 20
618.376164506472
 30
0.0
 10
277.6974562547887
 20
619.0337774819823
 30
0.0
 10
278.2663283895097
 20
619.367284957918
 30
0.0
 10
279.9829660806257
 20
620.3462828044817
 30
0.0
 10
281.1406880228915
 20
620.9703294081395
 30
0.0
 10
282.950884640646
 20
621.747961131376
 30
0.0
 10
283.5674562626374
 20
621.9788201034678
 30
0.0
 10
284.8290864159812
 20
622.379225902358
 30
0.0
 10
285.4751285872686
 20
622.5519261657275
 30
0.0
 10
286.771984106936
 20
622.844477773016
 30
0.0
 10
287.4243026239131
 20
622.9653450928663
 30
0.0
 10
288.4092594664287
 20
623.1043347013389
 30
0.0
 10
288.7386657857459
 20
623.1435635187578
 30
0.0
 10
289.4004558623647
 20
623.2025770757552
 30
0.0
 10
289.7326361970545
 20
623.2236902611726
 30
0.0
 10
290.0680495572815
 20
623.2236902611726
 30
0.0
  0
SPLINE
  5
31F
330
1F
100
AcDbEntity
  8
0
  6
Continuous
 62
     7
370
    25
100
AcDbSpline
210
0.0
220
0.0
230
1.0
 70
     8
 71
     3
 72
    42
 73
    38
 74
     0
 42
0.00000001
 43
0.00000001
 40
0.0
 40
0.0
 40
0.0
 40
0.0
 40
0.03125
 40
0.03125
 40
0.0624999999999999
 40
0.0624999999999999
 40
0.1249999999999998
 40
0.1249999999999998
 40
0.1874999999999998
 40
0.1874999999999998
 40
0.2499999999999997
 40
0.2499999999999997
 40
0.3749999999999995
 40
0.3749999999999995
 40
0.4374999999999995
 40
0.4374999999999995
 40
0.4999999999999996
 40
0.4999999999999996
 40
0.5624999999999996
 40
0.5624999999999996
 40
0.5937499999999996
 40
0.5937499999999996
 40
0.6249999999999994
 40
0.6249999999999994
 40
0.6562499999999994
 40
0.6562499999999994
 40
0.6874999999999994
 40
0.6874999999999994
 40
0.7187499999999993
 40
0.7187499999999993
 40
0.7499999999999993
 40
0.7499999999999993
 40
0.8124999999999996
 40
0.8124999999999996
 40
0.8749999999999998
 40
0.8749999999999998
 40
1.0
 40
1.0
 40
1.0
 40
1.0
 10
290.0680495572815
 20
651.4136930474899
 30
0.0
 10
289.7333441823486
 20
651.4136930474899
 30
0.0
 10
289.4027118428629
 20
651.434689693506
 30
0.0
 10
288.7446516895392
 20
651.4932024319153
 30
0.0
 10
288.4174827520877
 20
651.5320530415058
 30
0.0
 10
287.4400287747504
 20
651.6694973823423
 30
0.0
 10
286.7937617779497
 20
651.7888042719738
 30
0.0
 10
285.5107760433038
 20
652.0766396737697
 30
0.0
 10
284.8741145300176
 20
652.2454631806188
 30
0.0
 10
283.6123745121947
 20
652.6428210261168
 30
0.0
 10
282.9876171325718
 20
652.8748110003039
 30
0.0
 10
281.164015897964
 20
653.6547861430756
 30
0.0
 10
280.0007610189377
 20
654.2812238207733
 30
0.0
 10
278.2770592001494
 20
655.2638449951994
 30
0.0
 10
277.7061122461175
 20
655.598574501035
 30
0.0
 10
276.5594417323384
 20
656.2588902635257
 30
0.0
 10
275.9838205811083
 20
656.584842337687
 30
0.0
 10
274.8097890735764
 20
657.1948167264281
 30
0.0
 10
274.2091407399321
 20
657.4805642595412
 30
0.0
 10
273.2816570947467
 20
657.8282254302806
 30
0.0
 10
272.9678831972946
 20
657.9304926826088
 30
0.0
 10
272.3268118114148
 20
658.0950962640443
 30
0.0
 10
271.9982684650666
 20
658.157217855577
 30
0.0
 10
271.3423025698708
 20
658.2222323336869
 30
0.0
 10
271.0129561282242
 20
658.2257743046118
 30
0.0
 10
270.3507961026839
 20
658.1592043093979
 30
0.0
 10
270.026360222218
 20
658.0883067080732
 30
0.0
 10
269.4032907675704
 20
657.8805175328305
 30
0.0
 10
269.0998709749565
 20
657.7440597213572
 30
0.0
 10
268.5163583177365
 20
657.4308539139446
 30
0.0
 10
268.2385682961658
 20
657.2559264857603
 30
0.0
 10
267.4315550475747
 20
656.6965626814958
 30
0.0
 10
266.9280541956306
 20
656.2783772055002
 30
0.0
 10
265.9461246921123
 20
655.4091102167756
 30
0.0
 10
265.4684245611589
 20
654.957092562705
 30
0.0
 10
264.0371381831171
 20
653.6011132439893
 30
0.0
 10
263.0873256446617
 20
652.6922404291304
 30
0.0
 10
262.0387008405636
 20
651.8936495510284
 30
0.0
  0
SPLINE
  5
320
330
1F
100
AcDbEntity
  8
0
  6
Continuous
 62
     7
370
    25
100
AcDbSpline
210
0.0
220
0.0
230
1.0
 70
     8
 71
     3
 72
    42
 73
    38
 74
     0
 42
0.00000001
 43
0.00000001
 40
0.0
 40
0.0
 40
0.0
 40
0.0
 40
0.1250000000000003
 40
0.1250000000000003
 40
0.1875000000000006
 40
0.1875000000000006
 40
0.2500000000000009
 40
0.2500000000000009
 40
0.2812500000000009
 40
0.2812500000000009
 40
0.3125000000000009
 40
0.3125000000000009
 40
0.343750000000001
 40
0.343750000000001
 40
0.375000000000001
 40
0.375000000000001
 40
0.406250000000001
 40
0.406250000000001
 40
0.4375000000000011
 40
0.4375000000000011
 40
0.5000000000000009
 40
0.5000000000000009
 40
0.5625000000000008
 40
0.5625000000000008
 40
0.6250000000000008
 40
0.6250000000000008
 40
0.7500000000000006
 40
0.7500000000000006
 40
0.8125000000000003
 40
0.8125000000000003
 40
0.8750000000000002
 40
0.8750000000000002
 40
0.9375
 40
0.9375
 40
0.96875
 40
0.96875
 40
1.0
 40
1.0
 40
1.0
 40
1.0
 10
318.0973982739995
 20
651.8936495510284
 30
0.0
 10
317.0453939915998
 20
652.6948140994305
 30
0.0
 10
316.0928560334515
 20
653.6069319296802
 30
0.0
 10
314.6569719912281
 20
654.9672142642405
 30
0.0
 10
314.1777393818551
 20
655.4205243975756
 30
0.0
 10
313.1915561388046
 20
656.2923739919017
 30
0.0
 10
312.685429590423
 20
656.7118937447157
 30
0.0
 10
311.8717961489803
 20
657.272653619898
 30
0.0
 10
311.5894992965474
 20
657.4487791014864
 30
0.0
 10
311.0071295907588
 20
657.7578043084868
 30
0.0
 10
310.7070003218391
 20
657.8911104408611
 30
0.0
 10
310.0806419866589
 20
658.0958422433049
 30
0.0
 10
309.7515595691082
 20
658.1646087707452
 30
0.0
 10
309.098985300885
 20
658.2260039074254
 30
0.0
 10
308.7715772657416
 20
658.2213217148503
 30
0.0
 10
308.1149111353838
 20
658.1535626265652
 30
0.0
 10
307.7882394521595
 20
658.090482607528
 30
0.0
 10
307.1531657747586
 20
657.9257914063959
 30
0.0
 10
306.841852096164
 20
657.8238482759936
 30
0.0
 10
305.920764843635
 20
657.4775406716986
 30
0.0
 10
305.3229491987852
 20
657.1930945933333
 30
0.0
 10
304.1541117830921
 20
656.5857707704405
 30
0.0
 10
303.580783065785
 20
656.2612188021903
 30
0.0
 10
302.4386428597743
 20
655.6036058266801
 30
0.0
 10
301.8697707250533
 20
655.2700983507443
 30
0.0
 10
300.1531330339374
 20
654.2911005041807
 30
0.0
 10
298.9954110916716
 20
653.6670539005229
 30
0.0
 10
297.1852144739171
 20
652.8894221772864
 30
0.0
 10
296.5686428519256
 20
652.6585632051946
 30
0.0
 10
295.3070126985818
 20
652.2581574063043
 30
0.0
 10
294.6609705272945
 20
652.0854571429348
 30
0.0
 10
293.364115007627
 20
651.7929055356462
 30
0.0
 10
292.71179649065
 20
651.6720382157961
 30
0.0
 10
291.7268396481344
 20
651.5330486073235
 30
0.0
 10
291.3974333288172
 20
651.4938197899046
 30
0.0
 10
290.7356432521984
 20
651.4348062329071
 30
0.0
 10
290.4034629175086
 20
651.4136930474899
 30
0.0
 10
290.0680495572815
 20
651.4136930474899
 30
0.0
  0
LINE
  5
321
330
1F
100
AcDbEntity
  8
0
  6
Continuous
 62
     7
370
    25
100
AcDbLine
 10
274.2680495573
 20
642.5186916543
 30
0.0
 11
269.8680495573
 21
642.5186916543
 31
0.0
  0
LINE
  5
322
330
1F
100
AcDbEntity
  8
0
  6
Continuous
 62
     7
370
    25
100
AcDbLine
 10
274.2680495573
 20
632.1186916543
 30
0.0
 11
274.2680495573
 21
642.5186916543
 31
0.0
  0
LINE
  5
323
330
1F
100
AcDbEntity
  8
0
  6
Continuous
 62
     7
370
    25
100
AcDbLine
 10
269.8680495573
 20
632.1186916543
 30
0.0
 11
274.2680495573
 21
632.1186916543
 31
0.0
  0
LINE
  5
324
330
1F
100
AcDbEntity
  8
0
  6
Continuous
 62
     7
370
    25
100
AcDbLine
 10
269.8680495573
 20
642.5186916543
 30
0.0
 11
269.8680495573
 21
632.1186916543
 31
0.0
  0
ENDSEC
  0
SECTION
  2
OBJECTS
  0
DICTIONARY
  5
C
330
0
100
AcDbDictionary
281
     1
  3
ACAD_GROUP
350
D
  3
ACAD_LAYOUT
350
1A
  3
ACAD_MLINESTYLE
350
17
  3
ACAD_PLOTSETTINGS
350
19
  3
ACAD_PLOTSTYLENAME
350
E
  3
ACAD_SCALELIST
350
47
  3
DWGPROPS
350
325
  0
DICTIONARY
  5
D
102
{ACAD_REACTORS
330
C
102
}
330
C
100
AcDbDictionary
281
     1
  0
DICTIONARY
  5
1A
102
{ACAD_REACTORS
330
C
102
}
330
C
100
AcDbDictionary
281
     1
  3
Layout1
350
1E
  3
Layout2
350
26
  3
Model
350
22
  0
DICTIONARY
  5
17
102
{ACAD_REACTORS
330
C
102
}
330
C
100
AcDbDictionary
281
     1
  3
Standard
350
18
  0
DICTIONARY
  5
19
102
{ACAD_REACTORS
330
C
102
}
330
C
100
AcDbDictionary
281
     1
  0
ACDBDICTIONARYWDFLT
  5
E
102
{ACAD_REACTORS
330
C
102
}
330
C
100
AcDbDictionary
281
     1
  3
Normal
350
F
100
AcDbDictionaryWithDefault
340
F
  0
DICTIONARY
  5
47
102
{ACAD_REACTORS
330
C
102
}
330
C
100
AcDbDictionary
281
     1
  3
A0
350
48
  3
A1
350
49
  3
A2
350
4A
  3
A3
350
4B
  3
A4
350
4C
  3
A5
350
4D
  3
A6
350
4E
  3
A7
350
4F
  3
A8
350
50
  3
A9
350
51
  3
B0
350
52
  3
B1
350
53
  3
B2
350
54
  3
B3
350
55
  3
B4
350
56
  3
B5
350
57
  3
B6
350
58
  3
B7
350
59
  3
B8
350
5A
  3
B9
350
5B
  3
C0
350
5C
  3
C1
350
5D
  3
C2
350
5E
  3
C3
350
5F
  3
C4
350
60
  3
C5
350
61
  3
C6
350
62
  3
C7
350
63
  3
C8
350
64
  3
C9
350
65
  3
D0
350
66
  3
D1
350
67
  3
D2
350
68
  0
XRECORD
  5
325
102
{ACAD_REACTORS
330
C
102
}
330
C
100
AcDbXrecord
280
     1
  1
DWGPROPS COOKIE
  2

  3

  4

  6

  7

  8
Awni
  9

300
=
301
=
302
=
303
=
304
=
305
=
306
=
307
=
308
=
309
=
 40
0.0
 41
2459621.695594201
 42
2459621.695595451
  1

 90
        0
  0
LAYOUT
  5
1E
102
{ACAD_REACTORS
330
1A
102
}
330
1A
100
AcDbPlotSettings
  1

  2
none_device
  4

  6

 40
0.0
 41
0.0
 42
0.0
 43
0.0
 44
0.0
 45
0.0
 46
0.0
 47
0.0
 48
0.0
 49
0.0
140
0.0
141
0.0
142
1.0
143
1.0
 70
   688
 72
     1
 73
     0
 74
     5
  7

 75
    16
147
1.0
148
0.0
149
0.0
100
AcDbLayout
  1
Layout1
 70
     1
 71
     1
 10
0.0
 20
0.0
 11
420.0
 21
297.0
 12
0.0
 22
0.0
 32
0.0
 14
1.0000000000E+20
 24
1.0000000000E+20
 34
1.0000000000E+20
 15
-1.0000000000E+20
 25
-1.0000000000E+20
 35
-1.0000000000E+20
146
0.0
 13
0.0
 23
0.0
 33
0.0
 16
1.0
 26
0.0
 36
0.0
 17
0.0
 27
1.0
 37
0.0
 76
     0
330
1B
  0
LAYOUT
  5
26
102
{ACAD_REACTORS
330
1A
102
}
330
1A
100
AcDbPlotSettings
  1

  2
none_device
  4

  6

 40
0.0
 41
0.0
 42
0.0
 43
0.0
 44
0.0
 45
0.0
 46
0.0
 47
0.0
 48
0.0
 49
0.0
140
0.0
141
0.0
142
1.0
143
1.0
 70
   688
 72
     1
 73
     0
 74
     5
  7

 75
    16
147
1.0
148
0.0
149
0.0
100
AcDbLayout
  1
Layout2
 70
     1
 71
     2
 10
0.0
 20
0.0
 11
0.0
 21
0.0
 12
0.0
 22
0.0
 32
0.0
 14
0.0
 24
0.0
 34
0.0
 15
0.0
 25
0.0
 35
0.0
146
0.0
 13
0.0
 23
0.0
 33
0.0
 16
1.0
 26
0.0
 36
0.0
 17
0.0
 27
1.0
 37
0.0
 76
     0
330
23
  0
LAYOUT
  5
22
102
{ACAD_REACTORS
330
1A
102
}
330
1A
100
AcDbPlotSettings
  1

  2
none_device
  4
Letter_(8.50_x_11.00_Inches)
  6

 40
6.35
 41
6.35
 42
6.35000508
 43
6.35000508
 44
215.9
 45
279.4
 46
0.0
 47
0.0
 48
0.0
 49
0.0
140
0.0
141
0.0
142
1.0
143
1.0
 70
  1712
 72
     1
 73
     0
 74
     0
  7

 75
     0
147
1.0
148
0.0
149
0.0
100
AcDbLayout
  1
Model
 70
     1
 71
     0
 10
0.0
 20
0.0
 11
1189.0
 21
841.0
 12
0.0
 22
0.0
 32
0.0
 14
0.0
 24
0.0
 34
0.0
 15
1189.0
 25
841.0
 35
0.0
146
0.0
 13
0.0
 23
0.0
 33
0.0
 16
1.0
 26
0.0
 36
0.0
 17
0.0
 27
1.0
 37
0.0
 76
     0
330
1F
331
29
  0
MLINESTYLE
  5
18
102
{ACAD_REACTORS
330
17
102
}
330
17
100
AcDbMlineStyle
  2
Standard
 70
     0
  3

 62
   256
 51
90.0
 52
90.0
 71
     2
 49
0.5
 62
   256
  6
BYLAYER
 49
-0.5
 62
   256
  6
BYLAYER
  0
ACDBPLACEHOLDER
  5
F
102
{ACAD_REACTORS
330
E
102
}
330
E
  0
SCALE
  5
48
102
{ACAD_REACTORS
330
47
102
}
330
47
100
AcDbScale
 70
     0
300
1:1
140
1.0
141
1.0
290
     1
  0
SCALE
  5
49
102
{ACAD_REACTORS
330
47
102
}
330
47
100
AcDbScale
 70
     0
300
1:2
140
1.0
141
2.0
290
     0
  0
SCALE
  5
4A
102
{ACAD_REACTORS
330
47
102
}
330
47
100
AcDbScale
 70
     0
300
1:4
140
1.0
141
4.0
290
     0
  0
SCALE
  5
4B
102
{ACAD_REACTORS
330
47
102
}
330
47
100
AcDbScale
 70
     0
300
1:5
140
1.0
141
5.0
290
     0
  0
SCALE
  5
4C
102
{ACAD_REACTORS
330
47
102
}
330
47
100
AcDbScale
 70
     0
300
1:8
140
1.0
141
8.0
290
     0
  0
SCALE
  5
4D
102
{ACAD_REACTORS
330
47
102
}
330
47
100
AcDbScale
 70
     0
300
1:10
140
1.0
141
10.0
290
     0
  0
SCALE
  5
4E
102
{ACAD_REACTORS
330
47
102
}
330
47
100
AcDbScale
 70
     0
300
1:16
140
1.0
141
16.0
290
     0
  0
SCALE
  5
4F
102
{ACAD_REACTORS
330
47
102
}
330
47
100
AcDbScale
 70
     0
300
1:20
140
1.0
141
20.0
290
     0
  0
SCALE
  5
50
102
{ACAD_REACTORS
330
47
102
}
330
47
100
AcDbScale
 70
     0
300
1:30
140
1.0
141
30.0
290
     0
  0
SCALE
  5
51
102
{ACAD_REACTORS
330
47
102
}
330
47
100
AcDbScale
 70
     0
300
1:40
140
1.0
141
40.0
290
     0
  0
SCALE
  5
52
102
{ACAD_REACTORS
330
47
102
}
330
47
100
AcDbScale
 70
     0
300
1:50
140
1.0
141
50.0
290
     0
  0
SCALE
  5
53
102
{ACAD_REACTORS
330
47
102
}
330
47
100
AcDbScale
 70
     0
300
1:100
140
1.0
141
100.0
290
     0
  0
SCALE
  5
54
102
{ACAD_REACTORS
330
47
102
}
330
47
100
AcDbScale
 70
     0
300
2:1
140
2.0
141
1.0
290
     0
  0
SCALE
  5
55
102
{ACAD_REACTORS
330
47
102
}
330
47
100
AcDbScale
 70
     0
300
4:1
140
4.0
141
1.0
290
     0
  0
SCALE
  5
56
102
{ACAD_REACTORS
330
47
102
}
330
47
100
AcDbScale
 70
     0
300
8:1
140
8.0
141
1.0
290
     0
  0
SCALE
  5
57
102
{ACAD_REACTORS
330
47
102
}
330
47
100
AcDbScale
 70
     0
300
10:1
140
10.0
141
1.0
290
     0
  0
SCALE
  5
58
102
{ACAD_REACTORS
330
47
102
}
330
47
100
AcDbScale
 70
     0
300
100:1
140
100.0
141
1.0
290
     0
  0
SCALE
  5
59
102
{ACAD_REACTORS
330
47
102
}
330
47
100
AcDbScale
 70
     0
300
1/128" = 1'-0"
140
0.0078125
141
12.0
290
     0
  0
SCALE
  5
5A
102
{ACAD_REACTORS
330
47
102
}
330
47
100
AcDbScale
 70
     0
300
1/64" = 1'-0"
140
0.015625
141
12.0
290
     0
  0
SCALE
  5
5B
102
{ACAD_REACTORS
330
47
102
}
330
47
100
AcDbScale
 70
     0
300
1/32" = 1'-0"
140
0.03125
141
12.0
290
     0
  0
SCALE
  5
5C
102
{ACAD_REACTORS
330
47
102
}
330
47
100
AcDbScale
 70
     0
300
1/16" = 1'-0"
140
0.0625
141
12.0
290
     0
  0
SCALE
  5
5D
102
{ACAD_REACTORS
330
47
102
}
330
47
100
AcDbScale
 70
     0
300
3/32" = 1'-0"
140
0.09375
141
12.0
290
     0
  0
SCALE
  5
5E
102
{ACAD_REACTORS
330
47
102
}
330
47
100
AcDbScale
 70
     0
300
1/8" = 1'-0"
140
0.125
141
12.0
290
     0
  0
SCALE
  5
5F
102
{ACAD_REACTORS
330
47
102
}
330
47
100
AcDbScale
 70
     0
300
3/16" = 1'-0"
140
0.1875
141
12.0
290
     0
  0
SCALE
  5
60
102
{ACAD_REACTORS
330
47
102
}
330
47
100
AcDbScale
 70
     0
300
1/4" = 1'-0"
140
0.25
141
12.0
290
     0
  0
SCALE
  5
61
102
{ACAD_REACTORS
330
47
102
}
330
47
100
AcDbScale
 70
     0
300
3/8" = 1'-0"
140
0.375
141
12.0
290
     0
  0
SCALE
  5
62
102
{ACAD_REACTORS
330
47
102
}
330
47
100
AcDbScale
 70
     0
300
1/2" = 1'-0"
140
0.5
141
12.0
290
     0
  0
SCALE
  5
63
102
{ACAD_REACTORS
330
47
102
}
330
47
100
AcDbScale
 70
     0
300
3/4" = 1'-0"
140
0.75
141
12.0
290
     0
  0
SCALE
  5
64
102
{ACAD_REACTORS
330
47
102
}
330
47
100
AcDbScale
 70
     0
300
1" = 1'-0"
140
1.0
141
12.0
290
     0
  0
SCALE
  5
65
102
{ACAD_REACTORS
330
47
102
}
330
47
100
AcDbScale
 70
     0
300
1-1/2" = 1'-0"
140
1.5
141
12.0
290
     0
  0
SCALE
  5
66
102
{ACAD_REACTORS
330
47
102
}
330
47
100
AcDbScale
 70
     0
300
3" = 1'-0"
140
3.0
141
12.0
290
     0
  0
SCALE
  5
67
102
{ACAD_REACTORS
330
47
102
}
330
47
100
AcDbScale
 70
     0
300
6" = 1'-0"
140
6.0
141
12.0
290
     0
  0
SCALE
  5
68
102
{ACAD_REACTORS
330
47
102
}
330
47
100
AcDbScale
 70
     0
300
1'-0" = 1'-0"
140
12.0
141
12.0
290
     0
  0
ENDSEC
  0
EOF
